<svg id="Logos" xmlns="http://www.w3.org/2000/svg" viewBox="0 0 3746.77 516.96"><path d="M1608.84,251.78c0-43.82-30.52-79.38-68.13-79.38s-68.14,35.56-68.14,79.38,30.49,79.37,68.14,79.37S1608.84,295.61,1608.84,251.78Zm-20.6-37.91a79.52,79.52,0,0,1,0,75.79Zm0,80.36a81.34,81.34,0,0,0,0-84.9V204c9.31,12.85,14.94,29.58,14.94,47.81s-5.63,34.94-14.94,47.8v-5.35Zm-95-4.47a79.35,79.35,0,0,1,0-76Zm0-80.5a81.43,81.43,0,0,0,0,85v5.37c-9.34-12.86-15-29.6-15-47.86s5.65-35,15-47.88Zm26.85,112.05a57.69,57.69,0,0,1-12.37-7v-3.79a55.36,55.36,0,0,0,12.37,7.48Zm0-5.9a54.11,54.11,0,0,1-12.37-7.91V196.07a53,53,0,0,1,12.37-7.93Zm0-129.88a55.94,55.94,0,0,0-12.37,7.51v-3.8a58.4,58.4,0,0,1,12.37-7Zm26.85,139.55a45.57,45.57,0,0,1-6.2.35,56.93,56.93,0,0,1-6.16-.35v-3a48.19,48.19,0,0,0,6.16.35,60.53,60.53,0,0,0,6.2-.35Zm0-5.48a47.24,47.24,0,0,1-6.2.42,56.9,56.9,0,0,1-6.16-.39V183.91a48.18,48.18,0,0,1,6.16-.37,55.33,55.33,0,0,1,6.2.37Zm0-138.07a50.68,50.68,0,0,0-6.19-.38,57.07,57.07,0,0,0-6.16.36v-3a50.09,50.09,0,0,1,6.16-.35,60.37,60.37,0,0,1,6.2.35v3.07Zm26.86,132.78a58.16,58.16,0,0,1-12.37,7V318a56.78,56.78,0,0,0,12.37-7.49Zm0-6.84a53.68,53.68,0,0,1-12.37,7.91V188.13a55.24,55.24,0,0,1,12.37,8Zm0-114.42a56.2,56.2,0,0,0-12.37-7.5v-3.31a58.89,58.89,0,0,1,12.37,7Zm32.07,121.8c2.69-4.05,3.64-6.08,4.07-10.93l-.35-25.17h-.34c-2.21,7.61-5.16,15.95-9.35,22.09-1.22,1.78-1.42,2.22-2.12,3.27a13.67,13.67,0,0,0-2.54,8.34c-1.51.31-3.32-.08-5.11-.24a13.25,13.25,0,0,1,0,5.41c-7.27.27-8.68,4.67-16.54,8.78a66.14,66.14,0,0,1-9.85,4.37v.41c14.75-.49,21.25,1.9,29.47-3.55a20.16,20.16,0,0,1,2.08,4.51,18.44,18.44,0,0,1,5.57-3,11.31,11.31,0,0,0,9.11,3c.55-3-.52-7-2.87-9,.45-2,2.11-3.86,3.2-5.47A25.59,25.59,0,0,1,1605.84,314.85Zm-1-19.64c3.89-10.07,3.23-10.41,4.32-14.56-1.12,14-5.34,25.6-9.38,36.2a4.29,4.29,0,0,0-1.42-.19,5.28,5.28,0,0,1-1-2.37C1595.21,307.49,1601.77,303.09,1604.83,295.21Zm-13.21,18.53,4.48,3.71v.05a2.08,2.08,0,0,0-.36.29,2.47,2.47,0,0,0-.55.71l0,.09a8.61,8.61,0,0,0-3.58-1A7.11,7.11,0,0,0,1591.62,313.74Zm-25.73,16.81,5.71-1.79c9.05-3.25,12.3-10,19.1-9.58a9.88,9.88,0,0,1,3.85,1.11,4.11,4.11,0,0,0,.23,1.4h-.1C1589,325.13,1576.56,329,1565.89,330.55Zm29.95-.29c-.27-.74-.4-2.35-1.42-3.51a6.31,6.31,0,0,0,2.1-2.93h0a3.32,3.32,0,0,0,1.39.43h.06Zm1-8.17a2.24,2.24,0,0,1,0-3.14,2.3,2.3,0,0,1,3.16,0,2.27,2.27,0,0,1,0,3.17A2.24,2.24,0,0,1,1596.87,322.09Zm11.6,8.28a9.13,9.13,0,0,1-7.27-3.23c-1-1.16-.94-1.54-1.33-3.09a3.92,3.92,0,0,0,1.61-1.17Zm-6.13-10.26-.07.06a3,3,0,0,0-.3-1.17v-.09a6.73,6.73,0,0,0,2.67-2.68s.18-.18.19-.18v0a10.65,10.65,0,0,0,3.51,1.9C1607.38,318.44,1602.34,320.11,1602.34,320.11Zm-111-2.48a13.26,13.26,0,0,1,0-5.4c-1.75.14-3.55.54-5.11.23a13.41,13.41,0,0,0-2.54-8.34c-.67-1.06-.89-1.49-2.1-3.26-4.19-6.16-7.12-14.49-9.34-22.09h-.35l-.35,25.15c.43,4.89,1.38,6.9,4.07,11a23,23,0,0,1-4.38,2.67c1.08,1.63,2.71,3.51,3.17,5.5-2.35,2-3.4,6.05-2.86,9a11.36,11.36,0,0,0,9.1-3,19.09,19.09,0,0,1,5.57,3,21.54,21.54,0,0,1,2.1-4.51c8.2,5.49,14.7,3.08,29.45,3.57v-.43a69.16,69.16,0,0,1-9.86-4.38C1500,322.31,1498.63,317.89,1491.35,317.63Zm-6-.18,4.49-3.7a6.9,6.9,0,0,0,0,3.79,8.64,8.64,0,0,0-3.62,1l0-.09a2.74,2.74,0,0,0-.53-.71,1.07,1.07,0,0,0-.38-.29Zm-13-36.8c1.11,4.15.44,4.49,4.32,14.56,3.05,7.88,9.61,12.25,7.52,19.1a5.48,5.48,0,0,1-1,2.38,4.22,4.22,0,0,0-1.4.18C1477.6,306.25,1473.4,294.67,1472.28,280.65Zm.81,37.4a11.75,11.75,0,0,0,3.5-1.92v0l.19.18a6.34,6.34,0,0,0,2.68,2.68l0,.09a3.2,3.2,0,0,0-.29,1.19l-.06-.08C1479.08,320.11,1474,318.44,1473.09,318.05Zm7.12,9.09a9.09,9.09,0,0,1-7.27,3.23l7-7.49a3.76,3.76,0,0,0,1.6,1.17C1481.17,325.59,1481.23,326,1480.21,327.14Zm1.17-5a2.23,2.23,0,0,1,0-3.17,2.28,2.28,0,0,1,3.16,0,2.23,2.23,0,0,1-3.14,3.17Zm4.21,8.13-2.19-6h.06a4.15,4.15,0,0,0,1.4-.43l.05,0a6,6,0,0,0,2.09,2.93C1486,327.91,1485.85,329.55,1485.59,330.26Zm29.94.29c-10.67-1.53-23.11-5.42-28.8-8.86h-.09a4.45,4.45,0,0,0,.23-1.4,9.79,9.79,0,0,1,3.86-1.11c6.8-.38,10,6.33,19.09,9.58Zm74.55-144.3a13,13,0,0,1,0,5.39,20.94,20.94,0,0,1,5.12-.23,13.9,13.9,0,0,0,2.53,8.35c.69,1,.9,1.49,2.13,3.25,4.19,6.19,7.14,14.51,9.34,22.08h.34l.35-25.17c-.43-4.87-1.38-6.88-4.07-10.93a23,23,0,0,1,4.41-2.67c-1.08-1.62-2.73-3.54-3.2-5.51,2.35-2,3.41-6,2.88-9a11.13,11.13,0,0,0-9.11,3,19.06,19.06,0,0,1-5.6-3.05,21.18,21.18,0,0,1-2.08,4.53c-8.21-5.53-14.72-3.13-29.47-3.6v.42a67,67,0,0,1,9.85,4.4C1581.4,181.53,1582.8,186,1590.08,186.25Zm6,.16-4.47,3.72a7.06,7.06,0,0,0,0-3.8,8.78,8.78,0,0,0,3.58-1.06l0,.08a2.61,2.61,0,0,0,.55.72,1.21,1.21,0,0,0,.36.28Zm13.05,36.79c-1.1-4.15-.42-4.5-4.32-14.53-3-7.88-9.62-12.27-7.52-19.13a4.92,4.92,0,0,1,1-2.32,4.51,4.51,0,0,0,1.43-.23C1603.8,197.61,1608,209.18,1609.14,223.2Zm-.8-37.35a11,11,0,0,0-3.51,1.93v0s-.2-.18-.18-.19A6.49,6.49,0,0,0,1602,185v-.08a2.91,2.91,0,0,0,.3-1.19l.07.09S1607.38,185.44,1608.34,185.85Zm-7.14-9.17a9.32,9.32,0,0,1,7.27-3.21l-7,7.53a3.46,3.46,0,0,0-1.61-1.16C1600.26,178.26,1600.19,177.88,1601.2,176.68Zm-1.16,5.08a2.25,2.25,0,0,1,0,3.15,2.3,2.3,0,0,1-3.16,0,2.27,2.27,0,0,1,0-3.16A2.21,2.21,0,0,1,1600,181.76Zm-4.2-8.17,2.18,6,0,0a3.87,3.87,0,0,0-1.4.47h0a6,6,0,0,0-2.1-2.91C1595.42,176,1595.57,174.31,1595.84,173.59Zm-29.95-.29c10.67,1.53,23.11,5.43,28.79,8.89h.09a4.53,4.53,0,0,0-.24,1.4,9.72,9.72,0,0,1-3.83,1.09c-6.82.37-10.07-6.36-19.11-9.6ZM1475.58,189c-2.69,4-3.64,6-4.07,10.92l.35,25.18h.35c2.22-7.58,5.16-15.94,9.34-22.08,1.21-1.75,1.43-2.21,2.1-3.25a13.53,13.53,0,0,0,2.54-8.36,20.42,20.42,0,0,1,5.11.24,13.33,13.33,0,0,1,0-5.41c7.28-.27,8.66-4.71,16.51-8.78a71.14,71.14,0,0,1,9.85-4.39v-.41c-14.75.48-21.23-1.91-29.44,3.6a21.21,21.21,0,0,1-2.1-4.53,18.94,18.94,0,0,1-5.58,3.05,11.13,11.13,0,0,0-9.09-3c-.54,3,.52,7,2.85,9-.45,2-2.08,3.91-3.17,5.5A21.72,21.72,0,0,1,1475.58,189Zm1,19.65c-3.88,10-3.2,10.38-4.32,14.53,1.12-14,5.32-25.59,9.38-36.21a5.14,5.14,0,0,0,1.4.23,5,5,0,0,1,1,2.32C1486.19,196.39,1479.65,200.79,1476.59,208.67Zm13.22-18.56-4.49-3.72,0,0a3.14,3.14,0,0,0,.38-.29,3,3,0,0,0,.53-.73l0-.08a9,9,0,0,0,3.62,1.06A6.87,6.87,0,0,0,1489.81,190.11Zm25.72-16.81-5.7,1.78c-9.06,3.25-12.28,10-19.1,9.6a9.94,9.94,0,0,1-3.86-1.09,4.17,4.17,0,0,0-.23-1.41h.09C1492.42,178.73,1504.86,174.83,1515.53,173.3Zm-29.94.29c.26.73.41,2.38,1.41,3.51a6,6,0,0,0-2.09,2.92h-.05a3.46,3.46,0,0,0-1.4-.46h-.06Zm-1.07,8.17a2.26,2.26,0,0,1,0,3.16,2.29,2.29,0,0,1-3.16,0,2.22,2.22,0,0,1,0-3.14A2.19,2.19,0,0,1,1484.52,181.76ZM1473,173.49a9.27,9.27,0,0,1,7.27,3.19c1,1.2.94,1.57,1.32,3.15a3.69,3.69,0,0,0-1.61,1.17Zm6.12,10.29.06-.07a3.46,3.46,0,0,0,.29,1.17V185a6.39,6.39,0,0,0-2.67,2.66l-.18.2v0a10.29,10.29,0,0,0-3.5-1.93C1474,185.44,1479.08,183.78,1479.08,183.78Zm230.32,33.9V248h-4.1l-.77-10.86h-.14a20.11,20.11,0,0,1-8.57,9.25,25.43,25.43,0,0,1-12.09,2.85c-6.25-.08-11.47-1.58-15.64-4.43a26.74,26.74,0,0,1-9.39-11.34,39.26,39.26,0,0,1,0-30.58,26.58,26.58,0,0,1,9.39-11.36q6.26-4.28,15.64-4.41a26.92,26.92,0,0,1,16.35,5c4.51,3.33,7.35,8.24,8.57,14.77H1703a15.16,15.16,0,0,0-2.79-6.91,19.11,19.11,0,0,0-6.54-5.66,21,21,0,0,0-9.91-2.37c-5.23.11-9.53,1.39-12.84,3.92a22.3,22.3,0,0,0-7.32,9.74,35.29,35.29,0,0,0,0,25.17,22.36,22.36,0,0,0,7.32,9.73c3.33,2.54,7.61,3.83,12.84,3.91,6.67-.13,11.81-2.19,15.37-6.22s5.38-9.26,5.3-15.68h-20.32v-4.84h25.32Zm46.28,10.18a32,32,0,0,0-1.64-11.67,19.23,19.23,0,0,0-6.15-9c-2.82-2.33-6.55-3.54-11.16-3.57s-8.26,1.17-11.14,3.39a19.17,19.17,0,0,0-6.32,8.43,29.36,29.36,0,0,0-2,10.95,30.37,30.37,0,0,0,2,11.36,17.85,17.85,0,0,0,6.32,8.24c2.88,2.08,6.56,3.14,11.14,3.2,5.39,0,9.58-1.38,12.61-4s5.09-6.5,6.17-11.41h-5.23a15.21,15.21,0,0,1-4.54,7.92c-2.18,2-5.2,3-9,3.08a12.55,12.55,0,0,1-8.16-2.7,15.12,15.12,0,0,1-4.6-6.46,22.46,22.46,0,0,1-1.44-7.81l33.13.07Zm-33.15-4.43a21.27,21.27,0,0,1,2.14-7.49,15.27,15.27,0,0,1,4.74-5.65,13.11,13.11,0,0,1,14.63,0,14.32,14.32,0,0,1,4.64,5.63,19.64,19.64,0,0,1,1.8,7.52ZM1762.68,248V204.86H1768v7.44h.13a12.61,12.61,0,0,1,5.33-6.25,15.56,15.56,0,0,1,8.44-2.41c6,0,10.14,1.51,12.47,4.43s3.44,7,3.35,12.18V248h-5.25v-26.9a15.61,15.61,0,0,0-2.28-9.32c-1.6-2.39-4.48-3.63-8.68-3.71-4.19.09-7.48,1.49-9.83,4.22a16.18,16.18,0,0,0-3.69,10.54V248Zm81.22-20.13a32.68,32.68,0,0,0-1.64-11.67,19.75,19.75,0,0,0-6.15-9c-2.82-2.33-6.55-3.54-11.19-3.57s-8.26,1.17-11.14,3.39a19.25,19.25,0,0,0-6.32,8.43,29.72,29.72,0,0,0-2,10.95,30.78,30.78,0,0,0,2,11.36,17.91,17.91,0,0,0,6.32,8.24c2.88,2.08,6.56,3.14,11.14,3.2,5.42,0,9.61-1.38,12.64-4s5.09-6.5,6.17-11.41h-5.23a15.33,15.33,0,0,1-4.53,7.92c-2.18,2-5.18,3-9,3.08a12.59,12.59,0,0,1-8.16-2.7,14.75,14.75,0,0,1-4.58-6.46,23,23,0,0,1-1.49-7.81l33.19.07Zm-33.19-4.43a21.7,21.7,0,0,1,2.14-7.49,15.41,15.41,0,0,1,4.76-5.65,13.1,13.1,0,0,1,14.62,0,14.26,14.26,0,0,1,4.65,5.63,19.07,19.07,0,0,1,1.76,7.52ZM1851,248l0-43.09h4.83V215h.17a16.85,16.85,0,0,1,6.25-8.06,16.57,16.57,0,0,1,10.06-2.63v5.28c-4.83-.13-8.7,1.22-11.6,4.17a15.7,15.7,0,0,0-4.44,11.24v23Zm53.93-16.68c-.09,4.24-1.56,7.53-4.47,9.9a16.45,16.45,0,0,1-10.57,3.6,10.6,10.6,0,0,1-6.66-2.29,7.85,7.85,0,0,1-3-6.26,6.77,6.77,0,0,1,3.23-6,20.81,20.81,0,0,1,7.66-2.55c3-.49,6.12-.95,9.19-1.42a14.6,14.6,0,0,0,2.5-.59,3.36,3.36,0,0,0,1.92-1.33h.16l0,6.9Zm-22.81-13.21c.14-3.51,1.28-6.06,3.38-7.65a13,13,0,0,1,8.16-2.39,14.7,14.7,0,0,1,8,1.77c2.14,1.24,3.22,3.59,3.31,7.08,0,2.3-.58,3.81-1.76,4.53a11.09,11.09,0,0,1-5,1.32c-3.84.39-7.56.86-11,1.51a18.79,18.79,0,0,0-8.63,3.68c-2.26,1.8-3.42,4.71-3.48,8.68.09,4.32,1.51,7.5,4.23,9.53a16.45,16.45,0,0,0,10.2,3c4.06,0,7.25-.81,9.58-2.27a20.33,20.33,0,0,0,6.14-6.49h.18a9.8,9.8,0,0,0,1.08,5.44c.79,1.36,2.49,2,5.09,2.07a13.35,13.35,0,0,0,1.8-.11,9.51,9.51,0,0,0,1.63-.26v-4.36a5.94,5.94,0,0,1-.77.24,4.14,4.14,0,0,1-.87.11,3.1,3.1,0,0,1-2.35-.82,3.52,3.52,0,0,1-.74-2.39V217.52c-.08-3.81-.88-6.72-2.46-8.7a11.64,11.64,0,0,0-6-4.1,23.65,23.65,0,0,0-7.48-1c-5,0-9.1,1.08-12.24,3.44s-4.9,6-5.22,11h5.27Zm38.63-29.72H1926V248h-5.28ZM1936.14,248h5.28v-43.1h-5.28V248Zm0-51.18h5.28v-8.42h-5.28v8.42ZM1959.8,192v12.94h8.78v4.41h-8.78v29.07a7.89,7.89,0,0,0,.74,4c.54,1,1.7,1.54,3.54,1.68,1.49,0,3-.11,4.5-.26v4.49c-.8,0-1.58,0-2.34.08s-1.54.09-2.35.09c-3.45.07-5.91-.65-7.33-2.09s-2.1-4-2-7.58V209.3H1947v-4.42h7.54V192Zm43.88,39.36a12.43,12.43,0,0,1-4.48,9.9,16.38,16.38,0,0,1-10.58,3.6,10.61,10.61,0,0,1-6.65-2.29,7.84,7.84,0,0,1-3-6.26,6.71,6.71,0,0,1,3.24-6,20.71,20.71,0,0,1,7.64-2.55c3.06-.49,6.1-.95,9.19-1.42a13.78,13.78,0,0,0,2.5-.59,3.27,3.27,0,0,0,1.91-1.33h.17l0,6.9Zm-22.81-13.21q.21-5.26,3.39-7.65a13,13,0,0,1,8.16-2.39,14.54,14.54,0,0,1,7.94,1.77c2.16,1.24,3.27,3.59,3.33,7.08q0,3.45-1.75,4.53a11,11,0,0,1-5,1.32c-3.85.39-7.55.86-11.06,1.51a18.94,18.94,0,0,0-8.62,3.68c-2.24,1.81-3.38,4.73-3.45,8.69.09,4.32,1.5,7.51,4.24,9.53a16.5,16.5,0,0,0,10.21,3c4.06,0,7.23-.79,9.57-2.27a20.55,20.55,0,0,0,6.14-6.49h.19a9.82,9.82,0,0,0,1.08,5.45c.81,1.35,2.49,2,5.09,2.06.69,0,1.29,0,1.81-.09a10.4,10.4,0,0,0,1.62-.28v-4.37a7.34,7.34,0,0,1-.78.24,4.73,4.73,0,0,1-.93.11,3.05,3.05,0,0,1-2.31-.82,3.43,3.43,0,0,1-.75-2.39V217.52c-.06-3.81-.85-6.72-2.43-8.7a11.67,11.67,0,0,0-6-4.1,23.72,23.72,0,0,0-7.49-1c-5,0-9.1,1.08-12.24,3.44s-4.9,6-5.22,11h5.25ZM2027.8,192v12.94h8.77v4.41h-8.77v29.07a7.61,7.61,0,0,0,.71,4c.53,1,1.73,1.54,3.54,1.68a44.91,44.91,0,0,0,4.5-.26v4.49c-.78,0-1.56,0-2.33.08s-1.54.09-2.33.09c-3.48.07-5.93-.65-7.34-2.09s-2.11-4-2-7.58V209.3H2015v-4.42h7.51V192Zm43,34.49a25.93,25.93,0,0,1,1.45-8.73,15.42,15.42,0,0,1,4.58-6.86,12.29,12.29,0,0,1,8.14-2.75,14.29,14.29,0,0,1,8.9,2.75,14.82,14.82,0,0,1,4.77,6.86,27.21,27.21,0,0,1,0,17.47,14.86,14.86,0,0,1-4.77,6.84,14.11,14.11,0,0,1-8.9,2.78,12.4,12.4,0,0,1-8.14-2.78,15.86,15.86,0,0,1-4.58-6.84,25.74,25.74,0,0,1-1.45-8.74Zm34.53-38.06h-5.28v24.7h-.15a13.56,13.56,0,0,0-5.94-7,17.38,17.38,0,0,0-9-2.41,18,18,0,0,0-10.87,3.2,18.85,18.85,0,0,0-6.42,8.24,31.84,31.84,0,0,0,0,22.69,17.79,17.79,0,0,0,17.29,11.46,18.39,18.39,0,0,0,9.19-2.61,14.87,14.87,0,0,0,6.2-6.8h.14V248h4.87V188.38Zm46.24,39.48a31.19,31.19,0,0,0-1.63-11.67,19.23,19.23,0,0,0-6.15-9c-2.82-2.33-6.55-3.54-11.15-3.57s-8.27,1.17-11.14,3.39a19.27,19.27,0,0,0-6.33,8.43,29.35,29.35,0,0,0-2,10.95,30.37,30.37,0,0,0,2,11.36,17.87,17.87,0,0,0,6.33,8.24q4.32,3.12,11.14,3.2c5.39,0,9.6-1.38,12.61-4s5.07-6.5,6.17-11.41h-5.26a15.15,15.15,0,0,1-4.5,7.92c-2.2,2-5.21,3-9,3.08a12.66,12.66,0,0,1-8.17-2.7,15.08,15.08,0,0,1-4.58-6.46,22.5,22.5,0,0,1-1.47-7.81l33.15.07Zm-33.17-4.43a22.15,22.15,0,0,1,2.14-7.49,15.51,15.51,0,0,1,4.76-5.65,13.08,13.08,0,0,1,14.61,0,14.07,14.07,0,0,1,4.64,5.63,19.07,19.07,0,0,1,1.76,7.52Zm113.83-17h-5.64a18,18,0,0,0-6.63-10.66,19.15,19.15,0,0,0-11.68-3.79c-5.24.11-9.5,1.38-12.82,3.9a22.11,22.11,0,0,0-7.33,9.74,35.18,35.18,0,0,0,0,25.18,21.91,21.91,0,0,0,7.33,9.72c3.3,2.55,7.58,3.84,12.82,3.92,5.56-.13,10-2,13.31-5.59a23,23,0,0,0,5.85-13.56h5.68c-.88,7.43-3.46,13.22-7.76,17.49s-10.05,6.41-17.08,6.49c-6.24-.08-11.5-1.58-15.64-4.43a26.84,26.84,0,0,1-9.4-11.34,39.14,39.14,0,0,1,0-30.58,26.82,26.82,0,0,1,9.4-11.36c4.14-2.85,9.39-4.33,15.64-4.41a27.85,27.85,0,0,1,10.9,2.23,22.43,22.43,0,0,1,8.71,6.5,20.54,20.54,0,0,1,4.34,10.56Zm36.24,24.92c-.11,4.24-1.6,7.53-4.5,9.9a16.41,16.41,0,0,1-10.57,3.6,10.62,10.62,0,0,1-6.66-2.29,7.77,7.77,0,0,1-3-6.26,6.69,6.69,0,0,1,3.21-6,20.66,20.66,0,0,1,7.69-2.55c3-.49,6.08-.95,9.15-1.42a14,14,0,0,0,2.5-.59,3.23,3.23,0,0,0,1.92-1.33h.2v6.9Zm-22.84-13.21q.24-5.26,3.4-7.65a13,13,0,0,1,8.15-2.39,14.73,14.73,0,0,1,8,1.77c2.1,1.24,3.23,3.59,3.31,7.08,0,2.3-.58,3.81-1.77,4.53a11.12,11.12,0,0,1-5,1.32c-3.85.39-7.56.86-11.07,1.51A18.73,18.73,0,0,0,2242,228c-2.27,1.81-3.42,4.73-3.5,8.69.11,4.32,1.5,7.51,4.26,9.53a16.41,16.41,0,0,0,10.18,3c4.07,0,7.25-.79,9.56-2.27a20.49,20.49,0,0,0,6.16-6.49h.17a10.38,10.38,0,0,0,1.07,5.45c.84,1.35,2.52,2,5.13,2.06a17.64,17.64,0,0,0,1.8-.09,10.24,10.24,0,0,0,1.64-.28v-4.37a6.33,6.33,0,0,1-.79.24,4.51,4.51,0,0,1-.88.11,3.07,3.07,0,0,1-2.33-.82,3.34,3.34,0,0,1-.77-2.39V217.52c-.06-3.81-.89-6.72-2.43-8.7a11.76,11.76,0,0,0-6-4.1,24.2,24.2,0,0,0-7.46-1c-5,0-9.09,1.08-12.26,3.44s-4.87,6-5.18,11h5.21v-.05ZM2292.51,192v12.94h8.8v4.41h-8.8v29.07a7.57,7.57,0,0,0,.76,4c.55,1,1.71,1.54,3.54,1.68a45.36,45.36,0,0,0,4.54-.26v4.49c-.8,0-1.58,0-2.35.08s-1.55.09-2.35.09c-3.47.07-5.91-.65-7.33-2.09s-2.09-4-2-7.58V209.3h-7.52v-4.42h7.52V192h5.2Zm43.92,39.36a12.17,12.17,0,0,1-4.5,9.9,16.39,16.39,0,0,1-10.57,3.6,10.64,10.64,0,0,1-6.66-2.29,7.9,7.9,0,0,1-3-6.26,6.75,6.75,0,0,1,3.21-6,20.87,20.87,0,0,1,7.67-2.55c3-.49,6.14-.95,9.18-1.42a13.59,13.59,0,0,0,2.48-.59,3.21,3.21,0,0,0,1.91-1.33h.17v6.88h.08Zm-22.84-13.21c.18-3.51,1.31-6.06,3.42-7.65a12.92,12.92,0,0,1,8.13-2.39,14.73,14.73,0,0,1,8,1.77c2.13,1.24,3.23,3.59,3.31,7.08,0,2.3-.58,3.81-1.77,4.53a11.13,11.13,0,0,1-5,1.32c-3.87.39-7.55.86-11.05,1.51A18.94,18.94,0,0,0,2310,228c-2.27,1.81-3.42,4.73-3.47,8.69.08,4.32,1.49,7.51,4.24,9.53a16.47,16.47,0,0,0,10.2,3c4,0,7.23-.79,9.56-2.27a20.23,20.23,0,0,0,6.14-6.49h.19a10.19,10.19,0,0,0,1.07,5.45c.8,1.35,2.47,2,5.11,2.06.7,0,1.29,0,1.82-.09a10.09,10.09,0,0,0,1.61-.28v-4.37a6.13,6.13,0,0,1-.78.24,4.54,4.54,0,0,1-.92.11,3.06,3.06,0,0,1-2.32-.82,3.44,3.44,0,0,1-.78-2.39V217.52c-.05-3.81-.83-6.72-2.44-8.7a11.63,11.63,0,0,0-5.94-4.1,24.35,24.35,0,0,0-7.51-1c-5,0-9.07,1.08-12.24,3.44s-4.89,6-5.22,11h5.3v-.05Zm38.66-29.72h5.25V248h-5.25Zm50.32,16.51V248h-4.85v-7.78h-.19a15.5,15.5,0,0,1-6.05,6.69,17.29,17.29,0,0,1-8.82,2.34c-5.4-.07-9.28-1.53-11.65-4.41s-3.55-6.89-3.5-11.93v-28h5.22V233c.08,3.89,1,6.85,2.73,8.85s4.72,3,8.85,3a11.07,11.07,0,0,0,7.34-2.53,14.18,14.18,0,0,0,4.23-6.38,24.47,24.47,0,0,0,1.36-8.38V204.89h5.33Zm9.77,43.1V204.86h5.27v7.44h.16a12.71,12.71,0,0,1,5.33-6.25,15.67,15.67,0,0,1,8.48-2.41c5.94,0,10.08,1.51,12.4,4.43s3.48,7,3.38,12.18V248h-5.27v-26.9a15.76,15.76,0,0,0-2.27-9.32c-1.61-2.39-4.49-3.63-8.67-3.71-4.22.09-7.51,1.49-9.84,4.22a16.35,16.35,0,0,0-3.7,10.54V248h-5.27Zm57.34-.19-17.2-42.91h5.61l14.18,36.74,13.29-36.74h5.27l-18.74,49.71c-1.37,3.57-2.8,6-4.33,7.38s-3.86,2-7,1.94c-1,0-1.82-.08-2.46-.1a5.06,5.06,0,0,1-1.55-.3v-4.41a20.69,20.69,0,0,0,3.58.41c2.28,0,3.91-.66,4.86-1.89a19,19,0,0,0,2.67-4.89l1.84-4.94Zm53.88-16.49a12.42,12.42,0,0,1-4.47,9.9,16.55,16.55,0,0,1-10.57,3.6,10.71,10.71,0,0,1-6.7-2.29,7.77,7.77,0,0,1-3-6.26,6.77,6.77,0,0,1,3.2-6,20.79,20.79,0,0,1,7.68-2.55c3.08-.49,6.12-.95,9.18-1.42a14.48,14.48,0,0,0,2.51-.59,3.51,3.51,0,0,0,1.91-1.33h.18v6.9Zm-22.82-13.21c.16-3.51,1.28-6.06,3.39-7.65a13,13,0,0,1,8.16-2.39,14.68,14.68,0,0,1,7.95,1.77c2.14,1.24,3.24,3.59,3.32,7.08,0,2.3-.59,3.81-1.74,4.53a11.38,11.38,0,0,1-5.05,1.32c-3.87.39-7.53.86-11.07,1.51a18.82,18.82,0,0,0-8.59,3.68c-2.24,1.81-3.42,4.73-3.47,8.69.08,4.32,1.5,7.51,4.23,9.53a16.46,16.46,0,0,0,10.19,3c4.06,0,7.25-.79,9.58-2.27a20.23,20.23,0,0,0,6.14-6.49h.19a10,10,0,0,0,1.07,5.45c.81,1.35,2.48,2,5.13,2.06.68,0,1.29,0,1.8-.09a9.9,9.9,0,0,0,1.61-.28v-4.37a7.34,7.34,0,0,1-.78.24,4.41,4.41,0,0,1-.88.11,3.09,3.09,0,0,1-2.34-.82,3.48,3.48,0,0,1-.78-2.39V217.52c-.08-3.81-.85-6.72-2.43-8.7a11.68,11.68,0,0,0-6-4.1,23.85,23.85,0,0,0-7.48-1c-5,0-9.1,1.08-12.25,3.44s-4.87,6-5.17,11h5.22v-.05Zm-844.89,52.32h22.41a43.88,43.88,0,0,1,11.56,1.16,20.29,20.29,0,0,1,9.15,5.59,26.35,26.35,0,0,1,5.8,9.84,44.7,44.7,0,0,1,2,14.35,40,40,0,0,1-1.86,12.93,26.89,26.89,0,0,1-6.5,10.73,21.59,21.59,0,0,1-8.62,4.84,37,37,0,0,1-10.85,1.29h-23.08Zm12.26,10.27v40.23h9.16a33.81,33.81,0,0,0,7.41-.58,11.31,11.31,0,0,0,5-2.53,12.71,12.71,0,0,0,3.21-5.86,39.52,39.52,0,0,0,1.25-11.12,36.26,36.26,0,0,0-1.25-10.82,13.74,13.74,0,0,0-3.48-5.88,11.67,11.67,0,0,0-5.67-2.86,56.26,56.26,0,0,0-10.07-.58Zm74.44,36.46,11.6,1.94a19,19,0,0,1-7.06,9.72,20.78,20.78,0,0,1-12.08,3.33q-11.48,0-17-7.5-4.35-6-4.35-15.16,0-10.94,5.72-17.13a18.85,18.85,0,0,1,14.45-6.19q9.83,0,15.5,6.48t5.42,19.87h-29.16c.08,3.45,1,6.14,2.82,8.05a8.8,8.8,0,0,0,6.71,2.88,7.12,7.12,0,0,0,4.6-1.49A9.15,9.15,0,0,0,1742.55,317.15Zm.67-11.77q-.13-5.06-2.61-7.68a8,8,0,0,0-6-2.63,8.09,8.09,0,0,0-6.3,2.77,10.72,10.72,0,0,0-2.44,7.54Zm20.71-18.22h10.85v6.46a16.2,16.2,0,0,1,5.72-5.39,15.73,15.73,0,0,1,8-2.07,16.76,16.76,0,0,1,13,6q5.34,6,5.34,16.73,0,11-5.38,17.13a16.76,16.76,0,0,1-13,6.11,14.81,14.81,0,0,1-6.61-1.45,22.13,22.13,0,0,1-6.23-5v22.16h-11.64Zm11.51,21.25q0,7.41,2.94,10.95a9,9,0,0,0,7.17,3.54,8.39,8.39,0,0,0,6.75-3.25q2.7-3.24,2.7-10.66,0-6.93-2.78-10.28a8.6,8.6,0,0,0-6.88-3.35,9,9,0,0,0-7.08,3.29Q1775.44,302,1775.44,308.41Zm49.34-7.83-10.56-1.91q1.77-6.37,6.13-9.44t12.92-3.07q7.79,0,11.6,1.84a11.51,11.51,0,0,1,5.36,4.69q1.56,2.83,1.56,10.41l-.13,13.59a47.49,47.49,0,0,0,.56,8.56,25.47,25.47,0,0,0,2.09,5.9H1842.8c-.31-.78-.68-1.92-1.12-3.44-.19-.69-.33-1.15-.41-1.37a20.82,20.82,0,0,1-6.38,4.35,18.23,18.23,0,0,1-7.25,1.45q-6.8,0-10.71-3.68a12.27,12.27,0,0,1-3.92-9.32,12.47,12.47,0,0,1,1.79-6.65,11.61,11.61,0,0,1,5-4.48,39,39,0,0,1,9.26-2.71,62.32,62.32,0,0,0,11.3-2.86v-1.16q0-3.36-1.65-4.78c-1.11-1-3.19-1.43-6.26-1.43a8.35,8.35,0,0,0-4.84,1.22A8.47,8.47,0,0,0,1824.78,300.58Zm15.57,9.44a71.72,71.72,0,0,1-7.08,1.78q-4.85,1-6.34,2a4.86,4.86,0,0,0-2.28,4.1,5.71,5.71,0,0,0,1.83,4.23,6.34,6.34,0,0,0,4.64,1.78,10.05,10.05,0,0,0,6-2.07,7.27,7.27,0,0,0,2.78-3.85,23.34,23.34,0,0,0,.45-5.68Zm34.05,21.13h-11.64v-44h10.82v6.25q2.78-4.43,5-5.84a9.17,9.17,0,0,1,5-1.41,14.69,14.69,0,0,1,7.66,2.2l-3.6,10.15a10.22,10.22,0,0,0-5.47-1.91,6.44,6.44,0,0,0-4.14,1.35,9.2,9.2,0,0,0-2.67,4.86q-1,3.53-1,14.75Zm42-44v9.27h-8v17.73a45.1,45.1,0,0,0,.22,6.28,2.62,2.62,0,0,0,1,1.47,3.26,3.26,0,0,0,2,.58,15,15,0,0,0,4.68-1.12l1,9a23.1,23.1,0,0,1-9.19,1.74,14.7,14.7,0,0,1-5.68-1.05,8.37,8.37,0,0,1-3.71-2.74,10.85,10.85,0,0,1-1.63-4.53,56.5,56.5,0,0,1-.37-8.21V296.43h-5.35v-9.27h5.35v-8.74l11.68-6.8v15.54Zm16.78,13.42-10.57-1.91q1.78-6.37,6.13-9.44t12.93-3.07q7.79,0,11.6,1.84a11.51,11.51,0,0,1,5.36,4.69q1.56,2.83,1.56,10.41l-.13,13.59a47.49,47.49,0,0,0,.56,8.56,25,25,0,0,0,2.09,5.9h-11.51c-.31-.78-.68-1.92-1.12-3.44-.2-.69-.33-1.15-.42-1.37a20.71,20.71,0,0,1-6.38,4.35,18.19,18.19,0,0,1-7.25,1.45q-6.78,0-10.7-3.68a12.27,12.27,0,0,1-3.92-9.32,12.55,12.55,0,0,1,1.78-6.65,11.64,11.64,0,0,1,5-4.48,38.94,38.94,0,0,1,9.25-2.71,62.73,62.73,0,0,0,11.31-2.86v-1.16q0-3.36-1.65-4.78c-1.11-1-3.19-1.43-6.26-1.43a7,7,0,0,0-7.66,5.51ZM1948.8,310a71.72,71.72,0,0,1-7.08,1.78q-4.85,1-6.34,2a4.86,4.86,0,0,0-2.28,4.1,5.71,5.71,0,0,0,1.83,4.23,6.33,6.33,0,0,0,4.63,1.78,10.08,10.08,0,0,0,6-2.07,7.33,7.33,0,0,0,2.78-3.85,23.34,23.34,0,0,0,.45-5.68Zm22-22.86h10.73v6q5.76-7,13.71-7a14.75,14.75,0,0,1,7.33,1.74,13.47,13.47,0,0,1,5.1,5.26,20.45,20.45,0,0,1,6.25-5.26,15.37,15.37,0,0,1,7.17-1.74,16,16,0,0,1,8.2,2,12,12,0,0,1,5,5.78c.8,1.88,1.2,4.91,1.2,9.11v28.13H2023.9V306q0-6.54-1.2-8.45a5.51,5.51,0,0,0-5-2.48,7.9,7.9,0,0,0-4.6,1.49,8.25,8.25,0,0,0-3.1,4.37,31.21,31.21,0,0,0-1,9.09v21.13h-11.64V307c0-4.28-.2-7-.62-8.29a5.26,5.26,0,0,0-1.92-2.77,6.08,6.08,0,0,0-3.55-.91,8.43,8.43,0,0,0-4.84,1.45,7.91,7.91,0,0,0-3.09,4.18c-.62,1.82-.93,4.85-.93,9.07v21.38h-11.64Zm101.78,30,11.6,1.94a19,19,0,0,1-7.07,9.72,20.74,20.74,0,0,1-12.07,3.33q-11.48,0-17-7.5-4.35-6-4.35-15.16,0-10.94,5.71-17.13a18.85,18.85,0,0,1,14.46-6.19q9.81,0,15.49,6.48t5.43,19.87h-29.16c.08,3.45,1,6.14,2.81,8.05a8.81,8.81,0,0,0,6.71,2.88,7.08,7.08,0,0,0,4.6-1.49A9.22,9.22,0,0,0,2072.62,317.15Zm.66-11.77q-.12-5.06-2.61-7.68a8.4,8.4,0,0,0-12.34.14,10.77,10.77,0,0,0-2.45,7.54Zm61.06,25.77H2122.7V308.7c0-4.75-.25-7.83-.75-9.22a6.41,6.41,0,0,0-2.42-3.25,6.87,6.87,0,0,0-4-1.16,9.35,9.35,0,0,0-5.42,1.65,8.36,8.36,0,0,0-3.3,4.4q-.89,2.73-.89,10.1v19.93h-11.64v-44h10.81v6.46q5.76-7.46,14.5-7.46a17.35,17.35,0,0,1,7,1.39,11.88,11.88,0,0,1,4.83,3.54,12.93,12.93,0,0,1,2.28,4.89,36.23,36.23,0,0,1,.64,7.83Zm32-44v9.27h-8v17.73a45.1,45.1,0,0,0,.22,6.28,2.57,2.57,0,0,0,1,1.47,3.26,3.26,0,0,0,2,.58,15,15,0,0,0,4.68-1.12l1,9a23.13,23.13,0,0,1-9.19,1.74,14.67,14.67,0,0,1-5.68-1.05,8.37,8.37,0,0,1-3.71-2.74,10.85,10.85,0,0,1-1.63-4.53,56,56,0,0,1-.38-8.21V296.43h-5.34v-9.27h5.34v-8.74l11.69-6.8v15.54Zm72,44H2227.5v-6.46a17.41,17.41,0,0,1-6.36,5.61,16.28,16.28,0,0,1-7.39,1.84,16.76,16.76,0,0,1-13-6.11q-5.4-6.11-5.4-17,0-11.19,5.26-17a17.14,17.14,0,0,1,13.3-5.82q7.36,0,12.75,6.13V270.42h11.64Zm-31.06-22.95q0,7,1.94,10.19a8.8,8.8,0,0,0,7.87,4.56,8.58,8.58,0,0,0,6.84-3.42q2.82-3.42,2.81-10.21c0-5.06-.91-8.69-2.73-10.92a8.66,8.66,0,0,0-7-3.33,8.77,8.77,0,0,0-6.94,3.29Q2207.25,301.66,2207.25,308.2Zm42.25-37.61h11.64v8.32a29.08,29.08,0,0,1-.87,8,12,12,0,0,1-3.29,5.24,17,17,0,0,1-6.16,3.64l-2.27-4.8a9.92,9.92,0,0,0,5-3.19,9.62,9.62,0,0,0,1.57-5.55h-5.63Zm23.94,60.56V270.42h45v10.27H2285.7v13.47h30.49v10.23H2285.7v16.53h33.93v10.23Zm96.85,0h-10.81v-6.46a17.57,17.57,0,0,1-6.36,5.61,16.28,16.28,0,0,1-7.39,1.84,16.73,16.73,0,0,1-13-6.11q-5.4-6.11-5.41-17,0-11.19,5.26-17a17.16,17.16,0,0,1,13.3-5.82q7.38,0,12.76,6.13V270.42h11.64Zm-31.07-22.95q0,7,2,10.19A8.8,8.8,0,0,0,2349,323a8.54,8.54,0,0,0,6.83-3.42q2.82-3.42,2.82-10.21c0-5.06-.91-8.69-2.73-10.92a8.67,8.67,0,0,0-7-3.33,8.76,8.76,0,0,0-6.94,3.29Q2339.22,301.66,2339.22,308.2Zm71.5,22.95v-6.59a16.9,16.9,0,0,1-6.32,5.55,17.73,17.73,0,0,1-8.26,2,16.19,16.19,0,0,1-7.95-1.94,11.54,11.54,0,0,1-5.1-5.47c-1.05-2.35-1.57-5.59-1.57-9.74V287.16h11.64v20.21q0,9.28.64,11.37a6.24,6.24,0,0,0,2.34,3.32,7.23,7.23,0,0,0,4.31,1.22,9.14,9.14,0,0,0,5.34-1.64,8.32,8.32,0,0,0,3.23-4.06q.87-2.41.87-11.87V287.16h11.64v44Zm61.22-31-11.47,2.07a8.31,8.31,0,0,0-2.63-5.17,7.94,7.94,0,0,0-5.32-1.74,8.7,8.7,0,0,0-6.94,3q-2.6,3-2.59,10,0,7.83,2.63,11.06a8.62,8.62,0,0,0,7.06,3.24,7.84,7.84,0,0,0,5.43-1.89q2.11-1.89,3-6.48l11.43,1.95q-1.77,7.86-6.83,11.88t-13.55,4q-9.64,0-15.39-6.09T2431,309.19q0-10.89,5.76-17t15.57-6.07q8,0,12.78,3.46T2471.94,300.16Zm17.53.42-10.57-1.91q1.79-6.37,6.13-9.44t12.93-3.07q7.78,0,11.6,1.84a11.51,11.51,0,0,1,5.36,4.69c1,1.89,1.55,5.36,1.55,10.41l-.12,13.59a47.49,47.49,0,0,0,.56,8.56,25,25,0,0,0,2.09,5.9h-11.51c-.31-.78-.68-1.92-1.12-3.44-.2-.69-.33-1.15-.42-1.37a20.71,20.71,0,0,1-6.38,4.35,18.19,18.19,0,0,1-7.25,1.45q-6.78,0-10.7-3.68a12.27,12.27,0,0,1-3.92-9.32,12.55,12.55,0,0,1,1.78-6.65,11.67,11.67,0,0,1,5-4.48,39.19,39.19,0,0,1,9.26-2.71,62.73,62.73,0,0,0,11.31-2.86v-1.16q0-3.36-1.66-4.78c-1.1-1-3.18-1.43-6.25-1.43a7,7,0,0,0-7.66,5.51ZM2505,310a71.72,71.72,0,0,1-7.08,1.78c-3.23.69-5.35,1.37-6.34,2a4.86,4.86,0,0,0-2.28,4.1,5.74,5.74,0,0,0,1.82,4.23,6.37,6.37,0,0,0,4.64,1.78,10.08,10.08,0,0,0,6-2.07,7.33,7.33,0,0,0,2.78-3.85,23.34,23.34,0,0,0,.45-5.68Zm61.27-9.86-11.48,2.07a8.26,8.26,0,0,0-2.63-5.17,7.93,7.93,0,0,0-5.32-1.74,8.71,8.71,0,0,0-6.94,3q-2.58,3-2.59,10,0,7.83,2.63,11.06a8.64,8.64,0,0,0,7.07,3.24,7.82,7.82,0,0,0,5.42-1.89c1.41-1.26,2.41-3.42,3-6.48l11.44,1.95q-1.79,7.86-6.84,11.88t-13.54,4q-9.66,0-15.39-6.09t-5.74-16.86q0-10.89,5.76-17t15.57-6.07q8,0,12.78,3.46T2566.31,300.16Zm8.82-19V270.42h11.64v10.77Zm0,50v-44h11.64v44ZM2596,308.53a23.76,23.76,0,0,1,2.86-11.23A19.61,19.61,0,0,1,2607,289a24,24,0,0,1,11.7-2.86q10,0,16.36,6.48a22.44,22.44,0,0,1,6.38,16.39,22.7,22.7,0,0,1-6.44,16.55,21.8,21.8,0,0,1-16.22,6.56,25.6,25.6,0,0,1-11.54-2.73,18.71,18.71,0,0,1-8.34-8A26.65,26.65,0,0,1,2596,308.53Zm11.93.62q0,6.56,3.11,10a10.15,10.15,0,0,0,15.3,0q3.09-3.48,3.09-10.11,0-6.46-3.09-9.94a10.15,10.15,0,0,0-15.3,0Q2607.93,302.61,2607.94,309.15Zm4.89-27.38,5.71-12.38h13.05l-11.39,12.38ZM2942.1,306a7.39,7.39,0,0,0-6.69,4A56.28,56.28,0,0,1,2885,341.77c-29.45,0-56.21-24.24-56.44-55.73a4.6,4.6,0,0,1,4.55-4.71h160.19a13.53,13.53,0,0,0,13.45-12.65c.17-2.45.27-4.95.27-7.62,0-71.85-54-130.09-122.86-130.09s-124.65,58.24-124.65,130.09,55.81,130.09,124.65,130.09c50.47,0,93.79-31.37,113.38-76.39a6.28,6.28,0,0,0-5.76-8.77ZM2885,179.33c30.54,0,55.84,23,57.83,56.85a4.16,4.16,0,0,1-4.19,4.32H2830.8a3.8,3.8,0,0,1-3.83-3.8c.76-32.23,27.36-57.37,58-57.37m198.33-22.69a9.94,9.94,0,0,0-2.2-2.47,10.26,10.26,0,0,0-6.47-2.27,11.48,11.48,0,0,0-5.65,1.29,10.69,10.69,0,0,0-3.77,3.45,15,15,0,0,0-2.11,4.94,24.45,24.45,0,0,0-.66,5.71,22.81,22.81,0,0,0,.66,5.5,14.66,14.66,0,0,0,2.11,4.8A10.73,10.73,0,0,0,3069,181a11.48,11.48,0,0,0,5.65,1.29,9.11,9.11,0,0,0,7.07-2.77,12.83,12.83,0,0,0,3.11-7.29h9.55a23.27,23.27,0,0,1-2,7.61,18.22,18.22,0,0,1-4.15,5.78,17.73,17.73,0,0,1-6,3.64,22,22,0,0,1-7.6,1.26,23,23,0,0,1-9.26-1.79,19.77,19.77,0,0,1-6.94-4.94,21.6,21.6,0,0,1-4.34-7.38,26.93,26.93,0,0,1-1.51-9.14,27.92,27.92,0,0,1,1.51-9.33,22.24,22.24,0,0,1,4.34-7.5,19.74,19.74,0,0,1,6.94-5,24,24,0,0,1,16.27-.75,19,19,0,0,1,5.9,3.11,16.84,16.84,0,0,1,4.3,5.05,18.25,18.25,0,0,1,2.14,6.91h-9.55a8.25,8.25,0,0,0-1.13-3.11Zm24.31,20.48a10,10,0,0,0,1.29,3.33,6.89,6.89,0,0,0,2.41,2.36,7.39,7.39,0,0,0,3.78.88,7.55,7.55,0,0,0,3.8-.88,6.74,6.74,0,0,0,2.44-2.36,10,10,0,0,0,1.29-3.33,18.35,18.35,0,0,0,.38-3.8,18.92,18.92,0,0,0-.38-3.83,9.81,9.81,0,0,0-1.29-3.33,7,7,0,0,0-2.44-2.35,7.35,7.35,0,0,0-3.8-.92,6.88,6.88,0,0,0-6.19,3.27,9.81,9.81,0,0,0-1.29,3.33,19.65,19.65,0,0,0-.37,3.83,19.06,19.06,0,0,0,.37,3.8Zm-8.1-10.86a14.81,14.81,0,0,1,8.66-8.86,20.14,20.14,0,0,1,13.86,0,15.07,15.07,0,0,1,5.3,3.45,15.24,15.24,0,0,1,3.4,5.41,21.48,21.48,0,0,1,0,14.1,15.34,15.34,0,0,1-3.4,5.37,14.75,14.75,0,0,1-5.3,3.43,20.77,20.77,0,0,1-13.86,0,14.9,14.9,0,0,1-5.27-3.43,15.18,15.18,0,0,1-3.39-5.37,21.31,21.31,0,0,1,0-14.1Zm45.79-9.21v4.53h.19a10.23,10.23,0,0,1,4.4-4.12,12.69,12.69,0,0,1,5.53-1.29,15.13,15.13,0,0,1,5.87,1,8.71,8.71,0,0,1,3.61,2.7,10.32,10.32,0,0,1,1.85,4.21,25.8,25.8,0,0,1,.54,5.49v20h-8.92V171.19a11.36,11.36,0,0,0-1.26-6c-.83-1.32-2.33-2-4.46-2-2.43,0-4.18.72-5.28,2.17s-1.63,3.82-1.63,7.13v17h-8.92V157.05Zm35.46,24.41a5.11,5.11,0,0,0,1.54,1.69,6.62,6.62,0,0,0,2.17,1,10.16,10.16,0,0,0,2.54.31,9.31,9.31,0,0,0,2-.22,6.29,6.29,0,0,0,1.88-.69,4.27,4.27,0,0,0,1.42-1.25,3.38,3.38,0,0,0,.57-2c0-1.34-.9-2.35-2.67-3a53.56,53.56,0,0,0-7.45-2c-1.3-.29-2.56-.64-3.8-1a12.75,12.75,0,0,1-3.3-1.57,7.65,7.65,0,0,1-2.32-2.45,6.87,6.87,0,0,1-.88-3.61,9.84,9.84,0,0,1,1.22-5.15,9,9,0,0,1,3.24-3.17,14.24,14.24,0,0,1,4.52-1.64,28.27,28.27,0,0,1,5.15-.47,25.33,25.33,0,0,1,5.12.51,13.52,13.52,0,0,1,4.43,1.69,10.31,10.31,0,0,1,3.24,3.17,10.7,10.7,0,0,1,1.54,5h-8.48a3.92,3.92,0,0,0-2-3.49,9,9,0,0,0-4.15-.91,13.8,13.8,0,0,0-1.63.1,5.43,5.43,0,0,0-1.61.4,3.46,3.46,0,0,0-1.22.92,2.67,2.67,0,0,0,.38,3.54,6.54,6.54,0,0,0,2.29,1.23,28.9,28.9,0,0,0,3.24.85c1.21.25,2.45.52,3.7.82a36,36,0,0,1,3.8,1.06,12.47,12.47,0,0,1,3.3,1.67,8.18,8.18,0,0,1,2.33,2.57,7.63,7.63,0,0,1,.88,3.8,9.89,9.89,0,0,1-4.65,8.86,13.74,13.74,0,0,1-4.75,1.85,27.32,27.32,0,0,1-5.43.54,26.75,26.75,0,0,1-5.53-.57,14.38,14.38,0,0,1-4.8-1.88,10.69,10.69,0,0,1-3.46-3.49,10.88,10.88,0,0,1-1.47-5.43h8.48a4.87,4.87,0,0,0,.59,2.48Zm33.7-4.34a10.41,10.41,0,0,0,1.29,3.33,6.84,6.84,0,0,0,2.42,2.36,7.33,7.33,0,0,0,3.77.88,7.52,7.52,0,0,0,3.8-.88,6.77,6.77,0,0,0,2.45-2.36,10,10,0,0,0,1.29-3.33,19.06,19.06,0,0,0,.38-3.8,19.66,19.66,0,0,0-.38-3.83,9.81,9.81,0,0,0-1.29-3.33,7.08,7.08,0,0,0-2.45-2.35,7.32,7.32,0,0,0-3.8-.92,6.91,6.91,0,0,0-6.19,3.27,10.24,10.24,0,0,0-1.29,3.33,19.65,19.65,0,0,0-.37,3.83,19.06,19.06,0,0,0,.37,3.8Zm-8.1-10.86a14.8,14.8,0,0,1,8.67-8.86,18.45,18.45,0,0,1,6.91-1.23,18.69,18.69,0,0,1,6.94,1.23,14.74,14.74,0,0,1,8.7,8.86,21.48,21.48,0,0,1,0,14.1,15.18,15.18,0,0,1-3.39,5.37,14.8,14.8,0,0,1-5.31,3.43,19.32,19.32,0,0,1-6.94,1.19,19.08,19.08,0,0,1-6.91-1.19,14.94,14.94,0,0,1-5.28-3.43,15.32,15.32,0,0,1-3.39-5.37,21.48,21.48,0,0,1,0-14.1Zm45.86-9.21v6h.12a11.16,11.16,0,0,1,1.7-2.79,11.37,11.37,0,0,1,2.45-2.2,11.76,11.76,0,0,1,3-1.41,10.55,10.55,0,0,1,3.27-.51,6.94,6.94,0,0,1,1.95.32v8.29c-.42-.08-.92-.16-1.51-.22a16.72,16.72,0,0,0-1.7-.09,9.55,9.55,0,0,0-4.14.81,7.35,7.35,0,0,0-2.74,2.23,8.94,8.94,0,0,0-1.47,3.3,18.19,18.19,0,0,0-.44,4.09v14.63h-8.92V157.05Zm29.52,5.84a6.26,6.26,0,0,0-3.58,1,7.74,7.74,0,0,0-2.35,2.51,10.83,10.83,0,0,0-1.29,3.39,17.83,17.83,0,0,0-.38,3.68,17,17,0,0,0,.38,3.58,11.2,11.2,0,0,0,1.22,3.3,7.1,7.1,0,0,0,2.3,2.42,6.34,6.34,0,0,0,3.51.94,6.54,6.54,0,0,0,4.93-1.79,8.5,8.5,0,0,0,2.17-4.81h8.61c-.59,4.32-2.26,7.6-5,9.87a16.22,16.22,0,0,1-10.62,3.39,17.65,17.65,0,0,1-6.68-1.23,14.69,14.69,0,0,1-5.18-3.42,15.66,15.66,0,0,1-3.34-5.25,18.3,18.3,0,0,1-1.19-6.69,21.71,21.71,0,0,1,1.1-7,15.73,15.73,0,0,1,3.23-5.59,14.93,14.93,0,0,1,5.22-3.68,17.71,17.71,0,0,1,7-1.32,20,20,0,0,1,5.55.76,14.9,14.9,0,0,1,4.78,2.29,11.87,11.87,0,0,1,4.93,9.27h-8.73q-.89-5.6-6.6-5.6Zm28.9-5.84v32.48h-8.92V157.05Zm-8.92-5v-7.35h8.92V152Zm52.64,17.3a9.36,9.36,0,0,0-1.29-3.26,7.24,7.24,0,0,0-2.35-2.29,6.9,6.9,0,0,0-3.65-.89,7.25,7.25,0,0,0-3.71.89,7,7,0,0,0-2.41,2.32,10.1,10.1,0,0,0-1.32,3.3,17.37,17.37,0,0,0-.41,3.86,16.72,16.72,0,0,0,.44,3.77,10.13,10.13,0,0,0,1.41,3.36,8,8,0,0,0,2.45,2.39,6.63,6.63,0,0,0,3.55.91,7.06,7.06,0,0,0,3.68-.88,6.64,6.64,0,0,0,2.35-2.36,10.37,10.37,0,0,0,1.26-3.36,19.82,19.82,0,0,0,.38-3.89,19.54,19.54,0,0,0-.38-3.87Zm.38,16a9.25,9.25,0,0,1-4.12,3.81,13.73,13.73,0,0,1-5.75,1.16,13.87,13.87,0,0,1-6.4-1.41,13.09,13.09,0,0,1-4.56-3.84,17.44,17.44,0,0,1-2.7-5.56,23.2,23.2,0,0,1-.91-6.53,21.79,21.79,0,0,1,.91-6.31,16.59,16.59,0,0,1,2.7-5.38,13.6,13.6,0,0,1,4.49-3.73,13.29,13.29,0,0,1,6.29-1.42,12.73,12.73,0,0,1,5.49,1.23,9.49,9.49,0,0,1,4.11,3.61h.13V144.68h8.92v44.85h-8.47v-4.15Zm24.31-40.7v9.61a10.41,10.41,0,0,1-.6,3.89,9.94,9.94,0,0,1-4.71,5.5,9.94,9.94,0,0,1-3.61,1.16V160.7a5.57,5.57,0,0,0,3.26-2.42,8,8,0,0,0,.88-3.93h-4.14v-9.67Zm41.27,0V153h-23.68v9.61h21.73v7.67h-21.73v11h24.18v8.29h-34.05V144.68Zm28.08,24.65a9.36,9.36,0,0,0-1.29-3.26,7.24,7.24,0,0,0-2.35-2.29,6.9,6.9,0,0,0-3.65-.89,7.16,7.16,0,0,0-3.7.89,6.82,6.82,0,0,0-2.42,2.32,10.1,10.1,0,0,0-1.32,3.3,18,18,0,0,0-.41,3.86,16.72,16.72,0,0,0,.44,3.77,10.34,10.34,0,0,0,1.41,3.36,7.9,7.9,0,0,0,2.46,2.39,6.57,6.57,0,0,0,3.54.91,7.06,7.06,0,0,0,3.68-.88,6.75,6.75,0,0,0,2.36-2.36,10.59,10.59,0,0,0,1.25-3.36,19.82,19.82,0,0,0,.38-3.89,19.54,19.54,0,0,0-.38-3.87Zm.38,16a9.25,9.25,0,0,1-4.12,3.81,13.72,13.72,0,0,1-5.74,1.16,14,14,0,0,1-6.42-1.41,13,13,0,0,1-4.55-3.84,17.44,17.44,0,0,1-2.7-5.56,23.2,23.2,0,0,1-.91-6.53,21.79,21.79,0,0,1,.91-6.31,16.59,16.59,0,0,1,2.7-5.38,13.5,13.5,0,0,1,4.49-3.73,13.31,13.31,0,0,1,6.28-1.42,12.7,12.7,0,0,1,5.5,1.23,9.57,9.57,0,0,1,4.12,3.61h.12V144.68h8.92v44.85h-8.48v-4.15Zm36.43,4.15V185H3485a10,10,0,0,1-4.4,4.08,12.93,12.93,0,0,1-5.52,1.26,15.8,15.8,0,0,1-5.88-.94,8.49,8.49,0,0,1-3.61-2.68,10.28,10.28,0,0,1-1.85-4.2,26,26,0,0,1-.54-5.5v-20h8.92V175.4a11.46,11.46,0,0,0,1.26,6c.84,1.32,2.32,2,4.46,2q3.64,0,5.28-2.16c1.08-1.45,1.63-3.82,1.63-7.13v-17h8.92v32.48Zm30-26.64a6.28,6.28,0,0,0-3.58,1,7.85,7.85,0,0,0-2.35,2.51,10.83,10.83,0,0,0-1.29,3.39,18.52,18.52,0,0,0-.37,3.68,17.7,17.7,0,0,0,.37,3.58,11.2,11.2,0,0,0,1.22,3.3,7.1,7.1,0,0,0,2.3,2.42,6.35,6.35,0,0,0,3.52.94,6.55,6.55,0,0,0,4.93-1.79,8.56,8.56,0,0,0,2.17-4.81h8.6c-.59,4.32-2.26,7.6-5,9.87a16.21,16.21,0,0,1-10.61,3.39,17.7,17.7,0,0,1-6.69-1.23,14.78,14.78,0,0,1-5.18-3.42,15.48,15.48,0,0,1-3.33-5.25,18.09,18.09,0,0,1-1.2-6.69,21.71,21.71,0,0,1,1.1-7,15.75,15.75,0,0,1,3.24-5.59,14.8,14.8,0,0,1,5.21-3.68,17.71,17.71,0,0,1,7-1.32,20.17,20.17,0,0,1,5.56.76,14.85,14.85,0,0,1,4.77,2.29,12.33,12.33,0,0,1,3.42,3.83,12,12,0,0,1,1.51,5.44h-8.73c-.59-3.73-2.78-5.6-6.6-5.6Zm39.95,10.75a4,4,0,0,1-1.41.78,14.59,14.59,0,0,1-1.82.48c-.65.12-1.33.22-2,.31s-1.42.19-2.14.31a16.76,16.76,0,0,0-2,.51,5.75,5.75,0,0,0-1.7.84,4.09,4.09,0,0,0-1.16,1.35,4.42,4.42,0,0,0-.44,2.08,4.26,4.26,0,0,0,.44,2,3.34,3.34,0,0,0,1.19,1.28,5,5,0,0,0,1.76.67,11.72,11.72,0,0,0,2.07.18,7.8,7.8,0,0,0,4.08-.88,5.76,5.76,0,0,0,2.14-2.1A6.66,6.66,0,0,0,3555,179a17.91,17.91,0,0,0,.15-2v-3.33Zm-20.6-6.6a10.31,10.31,0,0,1,1.58-5.21,10.74,10.74,0,0,1,3.51-3.33,15.36,15.36,0,0,1,4.81-1.79,27,27,0,0,1,5.37-.54,36.41,36.41,0,0,1,5,.35,15.08,15.08,0,0,1,4.58,1.35,9,9,0,0,1,3.4,2.8,7.79,7.79,0,0,1,1.32,4.74v16.9a33.28,33.28,0,0,0,.25,4.2,7.6,7.6,0,0,0,.88,3h-9a15.12,15.12,0,0,1-.41-1.54,13.7,13.7,0,0,1-.22-1.6,11.62,11.62,0,0,1-5,3.08,20.44,20.44,0,0,1-5.91.88,15.85,15.85,0,0,1-4.33-.57,9.8,9.8,0,0,1-3.52-1.76,8.14,8.14,0,0,1-2.35-3,10.15,10.15,0,0,1-.85-4.34,9.44,9.44,0,0,1,1-4.55,8.15,8.15,0,0,1,2.52-2.86,11.05,11.05,0,0,1,3.51-1.6,36.8,36.8,0,0,1,4-.85c1.34-.21,2.66-.38,4-.5a23,23,0,0,0,3.45-.57,5.84,5.84,0,0,0,2.39-1.1,2.4,2.4,0,0,0,.81-2.1,4.74,4.74,0,0,0-.46-2.29,3.48,3.48,0,0,0-1.26-1.32,4.74,4.74,0,0,0-1.82-.63,14.26,14.26,0,0,0-2.23-.16,6.82,6.82,0,0,0-4.15,1.13,5.09,5.09,0,0,0-1.76,3.77Zm51.14-4.15a6.24,6.24,0,0,0-3.58,1,7.77,7.77,0,0,0-2.36,2.51,11.35,11.35,0,0,0-1.29,3.39,18.52,18.52,0,0,0-.37,3.68,17.7,17.7,0,0,0,.37,3.58,11.21,11.21,0,0,0,1.23,3.3,7,7,0,0,0,2.29,2.42,6.4,6.4,0,0,0,3.52.94,6.54,6.54,0,0,0,4.93-1.79,8.5,8.5,0,0,0,2.17-4.81h8.6c-.58,4.32-2.26,7.6-5,9.87a16.24,16.24,0,0,1-10.62,3.39,17.7,17.7,0,0,1-6.69-1.23,14.78,14.78,0,0,1-5.18-3.42,15.64,15.64,0,0,1-3.33-5.25,18.3,18.3,0,0,1-1.2-6.69,21.45,21.45,0,0,1,1.11-7,15.73,15.73,0,0,1,3.23-5.59,14.75,14.75,0,0,1,5.22-3.68,17.66,17.66,0,0,1,7-1.32,20.12,20.12,0,0,1,5.56.76,15,15,0,0,1,4.78,2.29,11.87,11.87,0,0,1,4.93,9.27h-8.74q-.87-5.6-6.59-5.6Zm28.89-5.84v32.48h-8.91V157.05Zm-8.91-5v-7.35h8.91V152Zm32.79-11.81-6.66,11.12H3638l10.24-11.12Zm-9.43,36.9a10,10,0,0,0,1.29,3.33,6.84,6.84,0,0,0,2.42,2.36,7.33,7.33,0,0,0,3.77.88,7.52,7.52,0,0,0,3.8-.88,6.77,6.77,0,0,0,2.45-2.36,10.41,10.41,0,0,0,1.29-3.33,19.06,19.06,0,0,0,.37-3.8,19.65,19.65,0,0,0-.37-3.83,10.24,10.24,0,0,0-1.29-3.33,7.08,7.08,0,0,0-2.45-2.35,7.32,7.32,0,0,0-3.8-.92,6.91,6.91,0,0,0-6.19,3.27,9.81,9.81,0,0,0-1.29,3.33,19.65,19.65,0,0,0-.37,3.83,19.06,19.06,0,0,0,.37,3.8Zm-8.1-10.86a15.08,15.08,0,0,1,3.39-5.41,15.26,15.26,0,0,1,5.28-3.45,18.45,18.45,0,0,1,6.91-1.23,18.73,18.73,0,0,1,6.94,1.23,15.2,15.2,0,0,1,5.31,3.45,15.36,15.36,0,0,1,3.39,5.41,21.31,21.31,0,0,1,0,14.1,15.46,15.46,0,0,1-3.39,5.37,14.88,14.88,0,0,1-5.31,3.43,19.36,19.36,0,0,1-6.94,1.19,19.08,19.08,0,0,1-6.91-1.19,14.94,14.94,0,0,1-5.28-3.43,15.18,15.18,0,0,1-3.39-5.37,21.48,21.48,0,0,1,0-14.1Zm-544.64,65.89a9.47,9.47,0,0,0-1.28-3.27,7.38,7.38,0,0,0-2.36-2.29,6.89,6.89,0,0,0-3.64-.88,7.23,7.23,0,0,0-3.71.88,7,7,0,0,0-2.42,2.33,10.14,10.14,0,0,0-1.32,3.29,18.14,18.14,0,0,0-.4,3.87,16.23,16.23,0,0,0,.44,3.77,10.1,10.1,0,0,0,1.41,3.36,7.73,7.73,0,0,0,2.45,2.38,6.58,6.58,0,0,0,3.55.91,7,7,0,0,0,3.67-.88,6.56,6.56,0,0,0,2.36-2.35,10.45,10.45,0,0,0,1.25-3.36,19.25,19.25,0,0,0,.38-3.9,18.72,18.72,0,0,0-.38-3.86Zm.38,16a9.2,9.2,0,0,1-4.11,3.8,13.64,13.64,0,0,1-5.75,1.16,13.94,13.94,0,0,1-6.41-1.41,12.84,12.84,0,0,1-4.55-3.83,17.23,17.23,0,0,1-2.7-5.56,23.27,23.27,0,0,1-.91-6.54,21.84,21.84,0,0,1,.91-6.31,16.16,16.16,0,0,1,2.7-5.37,13.09,13.09,0,0,1,10.77-5.15,12.83,12.83,0,0,1,5.49,1.22,9.6,9.6,0,0,1,4.12,3.62h.13V207.49h8.92v44.86h-8.48V248.2Zm34.14-20.73a6.28,6.28,0,0,0-4.87-1.76,7.75,7.75,0,0,0-3.54.72,6.75,6.75,0,0,0-2.26,1.79,6.56,6.56,0,0,0-1.2,2.27,10,10,0,0,0-.41,2.13H3113a10.21,10.21,0,0,0-2.23-5.15Zm-10.08,17.09a9.17,9.17,0,0,0,10.43.59,5.58,5.58,0,0,0,2.39-2.86h7.85q-1.89,5.85-5.78,8.36a17,17,0,0,1-9.42,2.51,18.54,18.54,0,0,1-6.92-1.22,14.36,14.36,0,0,1-5.21-3.49,15.71,15.71,0,0,1-3.29-5.4,19.65,19.65,0,0,1-1.17-6.91,19.12,19.12,0,0,1,1.19-6.79,15.75,15.75,0,0,1,8.64-9,16.84,16.84,0,0,1,6.76-1.32,15.41,15.41,0,0,1,7.22,1.6,14.48,14.48,0,0,1,5.06,4.3,18,18,0,0,1,2.86,6.16,23.08,23.08,0,0,1,.62,7.23h-23.43c.13,2.88.86,5,2.2,6.28Zm61.94.12a13,13,0,0,0,2.76-.28,6.75,6.75,0,0,0,2.33-.94,4.79,4.79,0,0,0,1.6-1.79,6.16,6.16,0,0,0,.6-2.89q0-3.47-1.95-4.93a8.29,8.29,0,0,0-5.15-1.48h-10.74v12.31Zm-.57-19a7.09,7.09,0,0,0,4.34-1.26,4.73,4.73,0,0,0,1.69-4.08,5.19,5.19,0,0,0-.56-2.58,4.22,4.22,0,0,0-1.51-1.57,6.58,6.58,0,0,0-2.17-.78,14,14,0,0,0-2.54-.22h-9.23v10.49Zm1.26-18.16a27.61,27.61,0,0,1,5.84.57,12.88,12.88,0,0,1,4.53,1.85,8.65,8.65,0,0,1,2.92,3.43,12,12,0,0,1,1,5.27,9.8,9.8,0,0,1-1.54,5.66,11.15,11.15,0,0,1-4.55,3.7,10.82,10.82,0,0,1,6.19,4.18,13.72,13.72,0,0,1,.72,13.07,11.48,11.48,0,0,1-3.55,4.05,15.58,15.58,0,0,1-5.09,2.32,23.05,23.05,0,0,1-5.87.76H3142.2V207.49Zm41.59,29a4,4,0,0,1-1.42.79,15.09,15.09,0,0,1-1.82.47c-.65.13-1.33.23-2,.31s-1.43.19-2.13.32a14.85,14.85,0,0,0-2,.5,5.7,5.7,0,0,0-1.69.85,4.13,4.13,0,0,0-1.17,1.35,4.35,4.35,0,0,0-.44,2.07,4.21,4.21,0,0,0,.44,2,3.4,3.4,0,0,0,1.2,1.29,5.2,5.2,0,0,0,1.76.66,10.84,10.84,0,0,0,2.07.19,7.89,7.89,0,0,0,4.09-.88,5.9,5.9,0,0,0,2.13-2.11,6.78,6.78,0,0,0,.85-2.48,18.16,18.16,0,0,0,.16-2v-3.33Zm-20.61-6.59a10.42,10.42,0,0,1,1.57-5.22,10.77,10.77,0,0,1,3.52-3.33,15.51,15.51,0,0,1,4.81-1.79,27.78,27.78,0,0,1,5.37-.53,35,35,0,0,1,5,.35,15,15,0,0,1,4.59,1.35,9,9,0,0,1,3.38,2.79,7.74,7.74,0,0,1,1.33,4.74v16.9a33.44,33.44,0,0,0,.25,4.21,7.49,7.49,0,0,0,.88,3h-9a14,14,0,0,1-.41-1.54,14.31,14.31,0,0,1-.22-1.6,11.6,11.6,0,0,1-5,3.07,20.1,20.1,0,0,1-5.91.88,16.19,16.19,0,0,1-4.33-.56,10,10,0,0,1-3.52-1.76,8.2,8.2,0,0,1-2.36-3,10.26,10.26,0,0,1-.84-4.33,9.51,9.51,0,0,1,1-4.56,8.19,8.19,0,0,1,2.51-2.85,11.23,11.23,0,0,1,3.52-1.61,39.3,39.3,0,0,1,4-.84q2-.31,4-.51a23,23,0,0,0,3.45-.56,6,6,0,0,0,2.39-1.1,2.41,2.41,0,0,0,.82-2.11,4.67,4.67,0,0,0-.48-2.29,3.53,3.53,0,0,0-1.25-1.32,5.15,5.15,0,0,0-1.83-.63,15.5,15.5,0,0,0-2.22-.15,6.75,6.75,0,0,0-4.15,1.13,5.07,5.07,0,0,0-1.76,3.77Zm44.1-10v6h.12a11.14,11.14,0,0,1,4.15-5,12.15,12.15,0,0,1,3-1.42,10.85,10.85,0,0,1,3.27-.5,7.28,7.28,0,0,1,1.95.31v8.3a18.8,18.8,0,0,0-3.21-.32,9.4,9.4,0,0,0-4.14.82,7.17,7.17,0,0,0-2.74,2.23,9,9,0,0,0-1.47,3.3,18,18,0,0,0-.44,4.08v14.64h-8.92V219.87Zm29.52,5.84a6.26,6.26,0,0,0-3.58,1,7.67,7.67,0,0,0-2.35,2.52,10.74,10.74,0,0,0-1.29,3.39,18.45,18.45,0,0,0-.38,3.67,17.82,17.82,0,0,0,.38,3.59,10.88,10.88,0,0,0,1.23,3.29,6.89,6.89,0,0,0,2.29,2.42,6.26,6.26,0,0,0,3.51.94,6.53,6.53,0,0,0,4.93-1.78,8.43,8.43,0,0,0,2.17-4.81h8.61q-.88,6.47-5,9.86a16.21,16.21,0,0,1-10.61,3.39,17.7,17.7,0,0,1-6.69-1.22,14.71,14.71,0,0,1-5.18-3.43,15.52,15.52,0,0,1-3.34-5.24,18.3,18.3,0,0,1-1.19-6.69,21.73,21.73,0,0,1,1.1-7,15.77,15.77,0,0,1,3.24-5.59,14.78,14.78,0,0,1,5.21-3.67,17.71,17.71,0,0,1,7-1.32,20.37,20.37,0,0,1,5.55.75,14.92,14.92,0,0,1,4.78,2.3,12,12,0,0,1,3.42,3.83,12.27,12.27,0,0,1,1.51,5.43h-8.73c-.58-3.73-2.79-5.59-6.6-5.59Zm39.36,1.76a6.28,6.28,0,0,0-4.87-1.76,7.79,7.79,0,0,0-3.55.72,7,7,0,0,0-2.26,1.79,6.53,6.53,0,0,0-1.19,2.27,9.43,9.43,0,0,0-.41,2.13h14.51a10.29,10.29,0,0,0-2.23-5.15Zm-10.08,17.09a9.15,9.15,0,0,0,10.42.59,5.53,5.53,0,0,0,2.39-2.86h7.85q-1.87,5.85-5.77,8.36a17,17,0,0,1-9.43,2.51,18.53,18.53,0,0,1-6.91-1.22,14.36,14.36,0,0,1-5.21-3.49,15.73,15.73,0,0,1-3.3-5.4,19.65,19.65,0,0,1-1.16-6.91,18.9,18.9,0,0,1,1.19-6.79,15.75,15.75,0,0,1,8.64-9,16.8,16.8,0,0,1,6.75-1.32,15.45,15.45,0,0,1,7.23,1.6,14.44,14.44,0,0,1,5,4.3,17.86,17.86,0,0,1,2.86,6.16,22.78,22.78,0,0,1,.63,7.23H3285c.12,2.88.86,5,2.2,6.28Zm34.86-37.07v44.86h-8.92V207.49Zm14.51,32.45a10,10,0,0,0,1.29,3.33,6.73,6.73,0,0,0,2.42,2.35,7.33,7.33,0,0,0,3.77.88,7.52,7.52,0,0,0,3.8-.88,6.74,6.74,0,0,0,2.45-2.35,9.75,9.75,0,0,0,1.28-3.33,18.35,18.35,0,0,0,.38-3.8,18.78,18.78,0,0,0-.38-3.83,9.44,9.44,0,0,0-1.28-3.33,7.2,7.2,0,0,0-2.45-2.36,7.42,7.42,0,0,0-3.8-.91,6.85,6.85,0,0,0-6.19,3.27,9.65,9.65,0,0,0-1.29,3.33,19.5,19.5,0,0,0-.37,3.83,19.06,19.06,0,0,0,.37,3.8Zm-8.1-10.87a14.86,14.86,0,0,1,8.67-8.86A18.66,18.66,0,0,1,3344,219a18.93,18.93,0,0,1,6.94,1.22,15.23,15.23,0,0,1,5.31,3.46,15.41,15.41,0,0,1,3.39,5.4,19.86,19.86,0,0,1,1.19,7.07,19.62,19.62,0,0,1-1.19,7,15.46,15.46,0,0,1-3.39,5.37A15,15,0,0,1,3351,252a19.36,19.36,0,0,1-6.94,1.19,19.08,19.08,0,0,1-6.91-1.19,15.05,15.05,0,0,1-5.28-3.42,15.32,15.32,0,0,1-3.39-5.37,19.62,19.62,0,0,1-1.2-7,19.86,19.86,0,0,1,1.2-7.07Zm45.85-9.2v4.52h.2a10.24,10.24,0,0,1,4.39-4.11,12.72,12.72,0,0,1,5.53-1.29,15.08,15.08,0,0,1,5.87,1,8.75,8.75,0,0,1,3.62,2.7,10.58,10.58,0,0,1,1.85,4.21,26.64,26.64,0,0,1,.54,5.5v20h-8.93V234a11.47,11.47,0,0,0-1.25-6q-1.26-2-4.47-2c-2.42,0-4.18.73-5.27,2.17s-1.63,3.82-1.63,7.13v17h-8.92V219.87Zm48.19,16.58a4,4,0,0,1-1.41.79,15.26,15.26,0,0,1-1.83.47c-.65.13-1.33.23-2,.31s-1.43.19-2.13.32a14.34,14.34,0,0,0-2,.5,5.76,5.76,0,0,0-1.7.85,4,4,0,0,0-1.16,1.35,4.23,4.23,0,0,0-.44,2.07,4.09,4.09,0,0,0,.44,2,3.3,3.3,0,0,0,1.19,1.29,5.2,5.2,0,0,0,1.76.66,10.84,10.84,0,0,0,2.07.19,7.89,7.89,0,0,0,4.09-.88,5.9,5.9,0,0,0,2.13-2.11,6.78,6.78,0,0,0,.85-2.48,18.16,18.16,0,0,0,.16-2v-3.33Zm-20.61-6.59a10.42,10.42,0,0,1,1.57-5.22,10.77,10.77,0,0,1,3.52-3.33,15.61,15.61,0,0,1,4.81-1.79,27.78,27.78,0,0,1,5.37-.53,35,35,0,0,1,5,.35,15,15,0,0,1,4.59,1.35,9.07,9.07,0,0,1,3.39,2.79,7.81,7.81,0,0,1,1.32,4.74v16.9a33.44,33.44,0,0,0,.25,4.21,7.66,7.66,0,0,0,.88,3h-9.05a14,14,0,0,1-.41-1.54,14.29,14.29,0,0,1-.21-1.6,11.63,11.63,0,0,1-5,3.07,20.1,20.1,0,0,1-5.91.88,16.19,16.19,0,0,1-4.33-.56,10,10,0,0,1-3.52-1.76,8.2,8.2,0,0,1-2.36-3,10.26,10.26,0,0,1-.84-4.33,9.51,9.51,0,0,1,1-4.56,8.19,8.19,0,0,1,2.51-2.85,11.23,11.23,0,0,1,3.52-1.61,39.3,39.3,0,0,1,4-.84q2-.31,4-.51a23,23,0,0,0,3.45-.56,6,6,0,0,0,2.39-1.1,2.41,2.41,0,0,0,.82-2.11,4.67,4.67,0,0,0-.48-2.29,3.53,3.53,0,0,0-1.25-1.32,5.09,5.09,0,0,0-1.82-.63,15.64,15.64,0,0,0-2.23-.15,6.75,6.75,0,0,0-4.15,1.13,5.07,5.07,0,0,0-1.76,3.77Zm-315.43,85.6L3086,308h-.12a13.86,13.86,0,0,1-2.55,3.75,13.66,13.66,0,0,1-3.35,2.58,14.87,14.87,0,0,1-3.93,1.47,20.59,20.59,0,0,1-4.33.45,19.35,19.35,0,0,1-8.45-1.74,17.54,17.54,0,0,1-6-4.68,19.72,19.72,0,0,1-3.61-6.76,27.62,27.62,0,0,1,0-16.17,20,20,0,0,1,3.61-6.79,17.24,17.24,0,0,1,6-4.7,19.21,19.21,0,0,1,8.45-1.75,21.17,21.17,0,0,1,6.08.86,15.53,15.53,0,0,1,5.1,2.58,15.78,15.78,0,0,1,3.79,4.24,16.41,16.41,0,0,1,2.11,5.9h-3.89a9.15,9.15,0,0,0-1.18-3.58,12.59,12.59,0,0,0-2.69-3.29,13.79,13.79,0,0,0-4-2.44,14,14,0,0,0-5.27-.95,14.85,14.85,0,0,0-7,1.55,13.89,13.89,0,0,0-4.78,4.1,17.64,17.64,0,0,0-2.75,5.76,24.77,24.77,0,0,0,0,13.16,17.6,17.6,0,0,0,2.75,5.79,13.89,13.89,0,0,0,4.78,4.1,14.85,14.85,0,0,0,7,1.55,15.61,15.61,0,0,0,6-1.12,12.69,12.69,0,0,0,4.5-3.13A13,13,0,0,0,3085,304a17.88,17.88,0,0,0,.86-6H3071.9v-3.33h17.37v20.81Zm30.19-20.81a10.65,10.65,0,0,0-1.87-3.35,9.15,9.15,0,0,0-2.92-2.35,9.1,9.1,0,0,0-7.85,0,9.09,9.09,0,0,0-2.93,2.35,11.75,11.75,0,0,0-1.92,3.38,16.31,16.31,0,0,0-.94,3.93h19.14a13.08,13.08,0,0,0-.71-4Zm-17.89,11a11.13,11.13,0,0,0,1.75,3.75,9.8,9.8,0,0,0,3,2.75,8.44,8.44,0,0,0,4.41,1.09,8.8,8.8,0,0,0,6.19-2.06,10.85,10.85,0,0,0,3.1-5.51h3.61a14.45,14.45,0,0,1-4.21,7.8c-2.05,1.84-4.94,2.75-8.69,2.75a13.81,13.81,0,0,1-6.05-1.23,11.13,11.13,0,0,1-4.15-3.38,14.79,14.79,0,0,1-2.38-5,22.5,22.5,0,0,1-.78-6,21.29,21.29,0,0,1,.78-5.73,15.51,15.51,0,0,1,2.38-5,12,12,0,0,1,4.15-3.55A12.77,12.77,0,0,1,3108,285a11.64,11.64,0,0,1,10.17,5.19,15.6,15.6,0,0,1,2.27,5.33,23.64,23.64,0,0,1,.58,6.11h-22.76a16.23,16.23,0,0,0,.54,4Zm30.64-19.81V291h.11a8.75,8.75,0,0,1,3.67-4.33A10.87,10.87,0,0,1,3139,285a14.67,14.67,0,0,1,5.19.8,8.2,8.2,0,0,1,3.36,2.27,8.49,8.49,0,0,1,1.77,3.58,19.83,19.83,0,0,1,.52,4.76v19h-3.61V297a16.94,16.94,0,0,0-.35-3.52,7.35,7.35,0,0,0-1.2-2.84,5.88,5.88,0,0,0-2.32-1.89,8.53,8.53,0,0,0-3.64-.69,9.25,9.25,0,0,0-3.87.77A8.48,8.48,0,0,0,3132,291a9.94,9.94,0,0,0-1.84,3.2,13.17,13.17,0,0,0-.71,4v17.25h-3.61V285.88Zm47.78,8.77a10.83,10.83,0,0,0-1.86-3.35,9.15,9.15,0,0,0-2.92-2.35,8.42,8.42,0,0,0-3.9-.89,8.56,8.56,0,0,0-4,.89,9.15,9.15,0,0,0-2.92,2.35,11.75,11.75,0,0,0-1.92,3.38,16.82,16.82,0,0,0-.95,3.93h19.15a13.09,13.09,0,0,0-.72-4Zm-17.88,11a11,11,0,0,0,1.75,3.75,9.8,9.8,0,0,0,3,2.75,8.44,8.44,0,0,0,4.41,1.09,8.8,8.8,0,0,0,6.19-2.06,10.84,10.84,0,0,0,3.09-5.51h3.62a14.46,14.46,0,0,1-4.22,7.8c-2,1.84-4.94,2.75-8.68,2.75a13.78,13.78,0,0,1-6.05-1.23,11,11,0,0,1-4.15-3.38,14.62,14.62,0,0,1-2.39-5,22.92,22.92,0,0,1-.77-6,21.68,21.68,0,0,1,.77-5.73,15.33,15.33,0,0,1,2.39-5,11.86,11.86,0,0,1,4.15-3.55,12.74,12.74,0,0,1,6.05-1.35,11.64,11.64,0,0,1,10.17,5.19,15.6,15.6,0,0,1,2.27,5.33,23.21,23.21,0,0,1,.57,6.11h-22.76a15.8,15.8,0,0,0,.55,4Zm30.41-19.81v6.94h.12a11.37,11.37,0,0,1,4.27-5.57,11.24,11.24,0,0,1,6.9-1.77v3.61a11,11,0,0,0-4.47.66,10.1,10.1,0,0,0-3.47,2.21,9.87,9.87,0,0,0-2.26,3.41,11.31,11.31,0,0,0-.8,4.33v15.76h-3.61V285.88Zm33.53,13.41a2,2,0,0,1-1.31.92,11.27,11.27,0,0,1-1.73.4c-1.53.27-3.1.51-4.72.72a27,27,0,0,0-4.45.94,8.82,8.82,0,0,0-3.29,1.81,4.3,4.3,0,0,0-1.3,3.35,5.16,5.16,0,0,0,.55,2.44,5.81,5.81,0,0,0,1.47,1.84,6.48,6.48,0,0,0,2.11,1.17,7.74,7.74,0,0,0,2.47.4,12.48,12.48,0,0,0,4-.63,9.68,9.68,0,0,0,3.29-1.83,8.73,8.73,0,0,0,3.07-6.83v-4.7Zm-18.06-8.82a8.39,8.39,0,0,1,2.5-3.1,10.7,10.7,0,0,1,3.7-1.78,18,18,0,0,1,4.69-.57,20.78,20.78,0,0,1,3.91.37,9.49,9.49,0,0,1,3.5,1.41,7.85,7.85,0,0,1,2.52,2.89,10.61,10.61,0,0,1,1,4.85v15.71a1.9,1.9,0,0,0,2.12,2.17,2.72,2.72,0,0,0,1.15-.23v3c-.42.08-.79.14-1.12.17a10.38,10.38,0,0,1-1.23.06,5.44,5.44,0,0,1-2.21-.37,3,3,0,0,1-1.29-1.06,4.18,4.18,0,0,1-.61-1.64,14.74,14.74,0,0,1-.14-2.09h-.11a23,23,0,0,1-2,2.55,9.86,9.86,0,0,1-2.23,1.87,10.74,10.74,0,0,1-2.81,1.14,15.31,15.31,0,0,1-3.76.4,15.09,15.09,0,0,1-3.87-.48,8.68,8.68,0,0,1-3.15-1.55,7.4,7.4,0,0,1-2.12-2.69,9,9,0,0,1-.77-3.88,7.63,7.63,0,0,1,1.37-4.84,8.8,8.8,0,0,1,3.64-2.67,20.47,20.47,0,0,1,5.1-1.28q2.84-.37,5.76-.72a20.08,20.08,0,0,0,2-.29,3.28,3.28,0,0,0,1.43-.6,2.84,2.84,0,0,0,.9-1.18,5.23,5.23,0,0,0,.31-1.95,6.56,6.56,0,0,0-.6-3,4.73,4.73,0,0,0-1.67-1.87,6.54,6.54,0,0,0-2.46-.94,16,16,0,0,0-3-.26,9.12,9.12,0,0,0-5.62,1.63c-1.45,1.09-2.22,2.84-2.29,5.25h-3.62a12.14,12.14,0,0,1,1.09-4.47Zm32.68-15.94v40.93h-3.61V274.53Zm10.61,11.35v29.58h-3.61V285.88Zm0-11.35v5.79h-3.61v-5.79Zm18.69,11.35v3h-6v19.95a6.41,6.41,0,0,0,.49,2.78c.32.67,1.13,1,2.43,1.12a26.85,26.85,0,0,0,3.1-.18v3c-.54,0-1.07,0-1.61.06s-1.07.06-1.6.06q-3.61,0-5-1.41c-1-.93-1.42-2.66-1.38-5.19V288.92h-5.15v-3h5.15V277h3.62v8.89Zm24,13.41a2,2,0,0,1-1.32.92,11.18,11.18,0,0,1-1.72.4c-1.53.27-3.11.51-4.73.72a27.07,27.07,0,0,0-4.44.94,8.86,8.86,0,0,0-3.3,1.81,4.3,4.3,0,0,0-1.29,3.35,5.28,5.28,0,0,0,.54,2.44,6.1,6.1,0,0,0,1.47,1.84,6.53,6.53,0,0,0,2.12,1.17,7.64,7.64,0,0,0,2.46.4,12.44,12.44,0,0,0,4-.63,9.82,9.82,0,0,0,3.3-1.83,8.88,8.88,0,0,0,2.23-2.93,8.73,8.73,0,0,0,.83-3.9v-4.7Zm-18.06-8.82a8.47,8.47,0,0,1,2.49-3.1,10.7,10.7,0,0,1,3.7-1.78,18.07,18.07,0,0,1,4.7-.57,20.6,20.6,0,0,1,3.9.37,9.49,9.49,0,0,1,3.5,1.41,7.68,7.68,0,0,1,2.52,2.89,10.48,10.48,0,0,1,1,4.85v15.71a1.9,1.9,0,0,0,2.12,2.17,2.69,2.69,0,0,0,1.15-.23v3c-.42.08-.79.14-1.12.17a10.38,10.38,0,0,1-1.23.06,5.47,5.47,0,0,1-2.21-.37,2.92,2.92,0,0,1-1.28-1.06,4,4,0,0,1-.61-1.64,14.74,14.74,0,0,1-.14-2.09h-.12a24.29,24.29,0,0,1-2,2.55,9.91,9.91,0,0,1-2.24,1.87,10.6,10.6,0,0,1-2.81,1.14,15.25,15.25,0,0,1-3.76.4,15,15,0,0,1-3.86-.48,8.73,8.73,0,0,1-3.16-1.55,7.62,7.62,0,0,1-2.12-2.69,9.1,9.1,0,0,1-.77-3.88,7.69,7.69,0,0,1,1.37-4.84,8.77,8.77,0,0,1,3.65-2.67,20.47,20.47,0,0,1,5.1-1.28q2.84-.37,5.76-.72c.76-.08,1.43-.17,2-.29a3.43,3.43,0,0,0,1.44-.6,2.82,2.82,0,0,0,.89-1.18,5,5,0,0,0,.31-1.95,6.56,6.56,0,0,0-.6-3,4.78,4.78,0,0,0-1.66-1.87,6.66,6.66,0,0,0-2.47-.94,15.92,15.92,0,0,0-3-.26,9.14,9.14,0,0,0-5.62,1.63q-2.17,1.63-2.29,5.25H3272a11.94,11.94,0,0,1,1.09-4.47Zm40.76-4.59v3h-6v19.95a6.41,6.41,0,0,0,.49,2.78c.32.67,1.14,1,2.44,1.12a26.81,26.81,0,0,0,3.09-.18v3c-.54,0-1.07,0-1.6.06s-1.08.06-1.61.06q-3.61,0-5.05-1.41t-1.37-5.19V288.92h-5.16v-3h5.16V277h3.61v8.89Zm22.5,19.35a12.34,12.34,0,0,0,1.72,4,9.48,9.48,0,0,0,3,2.9,8.35,8.35,0,0,0,4.41,1.11,9.19,9.19,0,0,0,8.05-4,11.64,11.64,0,0,0,1.78-4,19.18,19.18,0,0,0,0-9.12,11.72,11.72,0,0,0-1.78-4,9.19,9.19,0,0,0-8.05-4,8.35,8.35,0,0,0-4.41,1.11,9.48,9.48,0,0,0-3,2.9,12.43,12.43,0,0,0-1.72,4,19.18,19.18,0,0,0,0,9.12Zm19.8,10.23v-5.62h-.11a8.48,8.48,0,0,1-1.69,2.64,11.22,11.22,0,0,1-2.55,2,13.66,13.66,0,0,1-3.07,1.29,12.17,12.17,0,0,1-3.24.45,13.17,13.17,0,0,1-5.88-1.23,11.79,11.79,0,0,1-4.15-3.38,14.58,14.58,0,0,1-2.47-5,22.83,22.83,0,0,1,0-12,14.67,14.67,0,0,1,2.47-5,12.1,12.1,0,0,1,4.15-3.41,14,14,0,0,1,9.12-.86,11.16,11.16,0,0,1,3,1.23,10.8,10.8,0,0,1,2.43,2,8.43,8.43,0,0,1,1.63,2.81h.12v-17h3.61v40.93Zm30.76-20.81a10.83,10.83,0,0,0-1.86-3.35,9.26,9.26,0,0,0-2.92-2.35,8.42,8.42,0,0,0-3.9-.89,8.56,8.56,0,0,0-4,.89,9,9,0,0,0-2.92,2.35,11.52,11.52,0,0,0-1.92,3.38,16.34,16.34,0,0,0-.95,3.93h19.15a13.09,13.09,0,0,0-.72-4Zm-17.88,11a11.11,11.11,0,0,0,1.74,3.75,9.92,9.92,0,0,0,3,2.75,8.5,8.5,0,0,0,4.42,1.09,8.81,8.81,0,0,0,6.19-2.06,10.84,10.84,0,0,0,3.09-5.51h3.61a14.33,14.33,0,0,1-4.21,7.8c-2,1.84-4.94,2.75-8.68,2.75a13.81,13.81,0,0,1-6.05-1.23,11.16,11.16,0,0,1-4.16-3.38,14.79,14.79,0,0,1-2.38-5,22.5,22.5,0,0,1-.77-6,21.28,21.28,0,0,1,.77-5.73,15.51,15.51,0,0,1,2.38-5,12,12,0,0,1,4.16-3.55,12.77,12.77,0,0,1,6.05-1.35,11.68,11.68,0,0,1,10.17,5.19,15.6,15.6,0,0,1,2.27,5.33,23.64,23.64,0,0,1,.57,6.11h-22.76a15.8,15.8,0,0,0,.55,4Zm70.33-23a11.6,11.6,0,0,0-2.86-3.13,12.81,12.81,0,0,0-3.73-1.92,13.72,13.72,0,0,0-4.27-.66,14.78,14.78,0,0,0-7,1.55,13.83,13.83,0,0,0-4.79,4.1,17.64,17.64,0,0,0-2.75,5.76,24.77,24.77,0,0,0,0,13.16,17.6,17.6,0,0,0,2.75,5.79,13.83,13.83,0,0,0,4.79,4.1,14.78,14.78,0,0,0,7,1.55,12.42,12.42,0,0,0,5.16-1,12,12,0,0,0,4-2.81,14.41,14.41,0,0,0,2.69-4.15,17.29,17.29,0,0,0,1.32-5.13h3.9a22.12,22.12,0,0,1-1.78,6.82,16.73,16.73,0,0,1-3.55,5.16,15.25,15.25,0,0,1-5.14,3.27,18,18,0,0,1-6.56,1.14,19.43,19.43,0,0,1-8.46-1.74,17.69,17.69,0,0,1-6-4.68,19.72,19.72,0,0,1-3.61-6.76,27.62,27.62,0,0,1,0-16.17,20,20,0,0,1,3.61-6.79,17.39,17.39,0,0,1,6-4.7,20.51,20.51,0,0,1,14.17-.89,16.63,16.63,0,0,1,5,2.55,15,15,0,0,1,3.79,4.16,14,14,0,0,1,1.92,5.67h-3.9a13.11,13.11,0,0,0-1.7-4.21Zm30.25,16.59a2.07,2.07,0,0,1-1.32.92,11.45,11.45,0,0,1-1.72.4c-1.53.27-3.11.51-4.73.72a27,27,0,0,0-4.45.94,8.89,8.89,0,0,0-3.29,1.81,4.3,4.3,0,0,0-1.29,3.35,5.16,5.16,0,0,0,.55,2.44,5.78,5.78,0,0,0,1.46,1.84,6.43,6.43,0,0,0,2.12,1.17,7.64,7.64,0,0,0,2.46.4,12.44,12.44,0,0,0,4-.63,9.68,9.68,0,0,0,3.29-1.83,8.78,8.78,0,0,0,2.24-2.93,8.87,8.87,0,0,0,.83-3.9v-4.7Zm-18.06-8.82a8.47,8.47,0,0,1,2.49-3.1,10.78,10.78,0,0,1,3.7-1.78,18.07,18.07,0,0,1,4.7-.57,20.6,20.6,0,0,1,3.9.37,9.49,9.49,0,0,1,3.5,1.41,7.68,7.68,0,0,1,2.52,2.89,10.48,10.48,0,0,1,1,4.85v15.71a1.9,1.9,0,0,0,2.12,2.17,2.69,2.69,0,0,0,1.15-.23v3c-.42.08-.79.14-1.12.17a10.26,10.26,0,0,1-1.23.06,5.44,5.44,0,0,1-2.21-.37,3,3,0,0,1-1.29-1.06,4,4,0,0,1-.6-1.64,14.74,14.74,0,0,1-.14-2.09h-.12a24.29,24.29,0,0,1-2,2.55,9.91,9.91,0,0,1-2.24,1.87,10.6,10.6,0,0,1-2.81,1.14,15.23,15.23,0,0,1-3.75.4,15,15,0,0,1-3.87-.48,8.6,8.6,0,0,1-3.15-1.55,7.43,7.43,0,0,1-2.13-2.69,9.1,9.1,0,0,1-.77-3.88,7.63,7.63,0,0,1,1.38-4.84,8.77,8.77,0,0,1,3.63-2.67,20.47,20.47,0,0,1,5.1-1.28q2.85-.37,5.77-.72c.76-.08,1.43-.17,2-.29a3.38,3.38,0,0,0,1.43-.6,2.91,2.91,0,0,0,.89-1.18,5,5,0,0,0,.31-1.95,6.56,6.56,0,0,0-.6-3,4.66,4.66,0,0,0-1.67-1.87,6.54,6.54,0,0,0-2.46-.94,16,16,0,0,0-3-.26,9.09,9.09,0,0,0-5.61,1.63c-1.46,1.09-2.22,2.84-2.3,5.25h-3.61a12.14,12.14,0,0,1,1.09-4.47Zm40.76-4.59v3h-6v19.95a6.41,6.41,0,0,0,.49,2.78c.32.67,1.13,1,2.43,1.12a26.72,26.72,0,0,0,3.1-.18v3c-.54,0-1.07,0-1.61.06s-1.06.06-1.6.06q-3.62,0-5-1.41t-1.38-5.19V288.92h-5.16v-3h5.16V277h3.61v8.89Zm24,13.41a2,2,0,0,1-1.32.92,11.18,11.18,0,0,1-1.72.4c-1.53.27-3.1.51-4.73.72a27.07,27.07,0,0,0-4.44.94,8.86,8.86,0,0,0-3.3,1.81,4.3,4.3,0,0,0-1.29,3.35,5.28,5.28,0,0,0,.54,2.44,6.1,6.1,0,0,0,1.47,1.84,6.53,6.53,0,0,0,2.12,1.17,7.64,7.64,0,0,0,2.46.4,12.44,12.44,0,0,0,4-.63,9.82,9.82,0,0,0,3.3-1.83,8.88,8.88,0,0,0,2.23-2.93,8.73,8.73,0,0,0,.83-3.9v-4.7Zm-18.06-8.82a8.47,8.47,0,0,1,2.49-3.1,10.78,10.78,0,0,1,3.7-1.78,18.12,18.12,0,0,1,4.7-.57,20.6,20.6,0,0,1,3.9.37,9.49,9.49,0,0,1,3.5,1.41,7.68,7.68,0,0,1,2.52,2.89,10.48,10.48,0,0,1,1,4.85v15.71a1.9,1.9,0,0,0,2.13,2.17,2.64,2.64,0,0,0,1.14-.23v3c-.42.08-.79.14-1.11.17a10.5,10.5,0,0,1-1.23.06,5.4,5.4,0,0,1-2.21-.37,2.9,2.9,0,0,1-1.29-1.06,4,4,0,0,1-.61-1.64,14.74,14.74,0,0,1-.14-2.09h-.12a24.29,24.29,0,0,1-2,2.55,9.69,9.69,0,0,1-2.24,1.87,10.6,10.6,0,0,1-2.81,1.14,15.23,15.23,0,0,1-3.75.4,15,15,0,0,1-3.87-.48,8.73,8.73,0,0,1-3.16-1.55,7.49,7.49,0,0,1-2.11-2.69,9,9,0,0,1-.78-3.88,7.63,7.63,0,0,1,1.38-4.84,8.67,8.67,0,0,1,3.64-2.67,20.47,20.47,0,0,1,5.1-1.28q2.83-.37,5.76-.72c.76-.08,1.44-.17,2-.29a3.38,3.38,0,0,0,1.43-.6,2.82,2.82,0,0,0,.89-1.18,5,5,0,0,0,.31-1.95,6.56,6.56,0,0,0-.6-3,4.78,4.78,0,0,0-1.66-1.87,6.68,6.68,0,0,0-2.46-.94,16.07,16.07,0,0,0-3-.26,9.1,9.1,0,0,0-5.62,1.63c-1.46,1.09-2.22,2.84-2.3,5.25h-3.61a12.14,12.14,0,0,1,1.09-4.47ZM3531,274.53v40.93h-3.61V274.53Zm27.58,40.93v-5.33h-.11a10.3,10.3,0,0,1-4.16,4.56,11.87,11.87,0,0,1-6.05,1.57,13,13,0,0,1-4.78-.77,8,8,0,0,1-3.22-2.21,8.88,8.88,0,0,1-1.8-3.5,17.6,17.6,0,0,1-.58-4.69V285.88h3.61v19.26a9.63,9.63,0,0,0,1.87,6.08c1.17,1.37,3.18,2.06,6.05,2.06a7.63,7.63,0,0,0,4-1,8.58,8.58,0,0,0,2.76-2.67,12,12,0,0,0,1.6-3.81,18.87,18.87,0,0,0,.51-4.38V285.88h3.61v29.58Zm13.7-29.58V291h.12a8.73,8.73,0,0,1,3.66-4.33,10.87,10.87,0,0,1,5.79-1.63,14.76,14.76,0,0,1,5.2.8,8.23,8.23,0,0,1,3.35,2.27,8.38,8.38,0,0,1,1.77,3.58,19.83,19.83,0,0,1,.52,4.76v19h-3.61V297a16.28,16.28,0,0,0-.35-3.52,7.21,7.21,0,0,0-1.2-2.84,5.81,5.81,0,0,0-2.32-1.89,8.53,8.53,0,0,0-3.64-.69,9.28,9.28,0,0,0-3.87.77,8.48,8.48,0,0,0-2.87,2.13,9.74,9.74,0,0,0-1.83,3.2,13.17,13.17,0,0,0-.72,4v17.25h-3.61V285.88Zm27.75,0,9.74,25.22,9.12-25.22h3.61l-12.84,34.05c-.54,1.26-1,2.3-1.49,3.13a7.1,7.1,0,0,1-1.52,1.95,5.07,5.07,0,0,1-1.95,1,10.68,10.68,0,0,1-2.84.31l-1.69-.08a3.63,3.63,0,0,1-1.06-.2v-3l1.23.2a8.42,8.42,0,0,0,1.24.09,4.91,4.91,0,0,0,2-.35,4.2,4.2,0,0,0,1.34-1,5.51,5.51,0,0,0,1-1.45l.86-1.9,1.26-3.32-11.81-29.47Zm44.83,13.41a2,2,0,0,1-1.32.92,11.18,11.18,0,0,1-1.72.4c-1.53.27-3.11.51-4.73.72a26.85,26.85,0,0,0-4.44.94,8.86,8.86,0,0,0-3.3,1.81,4.3,4.3,0,0,0-1.29,3.35,5.16,5.16,0,0,0,.55,2.44,5.78,5.78,0,0,0,1.46,1.84,6.53,6.53,0,0,0,2.12,1.17,7.7,7.7,0,0,0,2.47.4,12.42,12.42,0,0,0,3.95-.63,9.68,9.68,0,0,0,3.29-1.83,8.78,8.78,0,0,0,2.24-2.93,8.87,8.87,0,0,0,.83-3.9v-4.7Zm-18.06-8.82a8.39,8.39,0,0,1,2.5-3.1,10.73,10.73,0,0,1,3.69-1.78,18.07,18.07,0,0,1,4.7-.57,20.6,20.6,0,0,1,3.9.37,9.42,9.42,0,0,1,3.5,1.41,7.68,7.68,0,0,1,2.52,2.89,10.48,10.48,0,0,1,1,4.85v15.71a1.89,1.89,0,0,0,2.11,2.17,2.66,2.66,0,0,0,1.15-.23v3c-.42.08-.79.14-1.12.17a10.26,10.26,0,0,1-1.23.06,5.5,5.5,0,0,1-2.21-.37A3,3,0,0,1,3646,314a4.17,4.17,0,0,1-.6-1.64,14.74,14.74,0,0,1-.14-2.09h-.11a23,23,0,0,1-2,2.55,9.91,9.91,0,0,1-2.24,1.87,10.47,10.47,0,0,1-2.81,1.14,15.23,15.23,0,0,1-3.75.4,15,15,0,0,1-3.87-.48,8.68,8.68,0,0,1-3.15-1.55,7.43,7.43,0,0,1-2.13-2.69,9.1,9.1,0,0,1-.77-3.88,7.63,7.63,0,0,1,1.38-4.84,8.74,8.74,0,0,1,3.64-2.67,20.25,20.25,0,0,1,5.1-1.28q2.84-.37,5.76-.72c.77-.08,1.43-.17,2-.29a3.38,3.38,0,0,0,1.43-.6,2.91,2.91,0,0,0,.89-1.18,5,5,0,0,0,.31-1.95,6.56,6.56,0,0,0-.6-3,4.71,4.71,0,0,0-1.66-1.87,6.66,6.66,0,0,0-2.47-.94,15.92,15.92,0,0,0-3-.26,9.09,9.09,0,0,0-5.61,1.63c-1.46,1.09-2.22,2.84-2.3,5.25h-3.61a12.14,12.14,0,0,1,1.09-4.47ZM3076.2,356.74l-7.91-21-8.2,21Zm-5.56-24.88,16.05,40.93h-4.18l-5-12.73h-18.63L3054,372.79h-4.13l16.46-40.93Zm22.07,0v5.79h-3.61v-5.79Zm0,11.35v32.27a19.94,19.94,0,0,1-.25,3.16,7,7,0,0,1-1,2.6,5.16,5.16,0,0,1-1.95,1.78,6.59,6.59,0,0,1-3.12.66c-.43,0-.83,0-1.24-.06s-.81-.05-1.23-.05v-3l1,.08a4.51,4.51,0,0,0,.92,0c1.42,0,2.32-.41,2.69-1.23a7.13,7.13,0,0,0,.58-3.07V343.21Zm26.83,29.58v-5.33h-.11a10.35,10.35,0,0,1-4.16,4.56,11.89,11.89,0,0,1-6.05,1.57,13.23,13.23,0,0,1-4.78-.77,8,8,0,0,1-3.22-2.21,8.88,8.88,0,0,1-1.8-3.5,17.62,17.62,0,0,1-.58-4.7v-19.2h3.61v19.26a9.63,9.63,0,0,0,1.87,6.08c1.17,1.37,3.18,2.06,6,2.06a7.63,7.63,0,0,0,4-1,8.45,8.45,0,0,0,2.75-2.67,12.1,12.1,0,0,0,1.61-3.81,19,19,0,0,0,.51-4.39V343.21h3.61v29.58Zm13-29.58v5.1h.12a8.69,8.69,0,0,1,3.66-4.33,10.78,10.78,0,0,1,5.79-1.63,14.67,14.67,0,0,1,5.19.8,8.2,8.2,0,0,1,3.36,2.27,8.38,8.38,0,0,1,1.77,3.58,19.83,19.83,0,0,1,.52,4.76v19h-3.61V354.33a16.44,16.44,0,0,0-.35-3.53,7.16,7.16,0,0,0-1.2-2.83,5.75,5.75,0,0,0-2.32-1.9,8.7,8.7,0,0,0-3.64-.68,9.13,9.13,0,0,0-3.87.77,8.45,8.45,0,0,0-2.87,2.12,9.89,9.89,0,0,0-1.83,3.21,13.11,13.11,0,0,0-.72,4v17.26h-3.61V343.21Zm38.3,0v3h-6V366.2a6.58,6.58,0,0,0,.48,2.78c.33.67,1.14,1,2.44,1.11a27,27,0,0,0,3.1-.17v3c-.54,0-1.08,0-1.61.06s-1.07.05-1.61.05c-2.4,0-4.09-.46-5-1.4s-1.41-2.66-1.37-5.19V346.25h-5.17v-3h5.17v-8.89h3.61v8.89Zm23.33,13.41a2.07,2.07,0,0,1-1.32.92,12.49,12.49,0,0,1-1.72.4c-1.53.27-3.1.51-4.73.72a26.07,26.07,0,0,0-4.44.94,8.86,8.86,0,0,0-3.3,1.81,4.3,4.3,0,0,0-1.29,3.35,5.31,5.31,0,0,0,.54,2.44,5.94,5.94,0,0,0,1.47,1.83,6.37,6.37,0,0,0,2.12,1.18,7.64,7.64,0,0,0,2.46.4,12.44,12.44,0,0,0,4-.63,9.82,9.82,0,0,0,3.3-1.83,8.85,8.85,0,0,0,2.23-2.93,8.73,8.73,0,0,0,.83-3.9v-4.7Zm-18.06-8.83a8.43,8.43,0,0,1,2.49-3.09,10.52,10.52,0,0,1,3.7-1.78,18.12,18.12,0,0,1,4.7-.57,20.6,20.6,0,0,1,3.9.37,9.49,9.49,0,0,1,3.5,1.41,7.6,7.6,0,0,1,2.52,2.89,10.44,10.44,0,0,1,1,4.84v15.71a1.91,1.91,0,0,0,2.13,2.18,2.8,2.8,0,0,0,1.14-.23v3c-.42.08-.79.13-1.11.17a10.56,10.56,0,0,1-1.24.06,5.56,5.56,0,0,1-2.2-.37,3,3,0,0,1-1.29-1.06,4,4,0,0,1-.61-1.64,14.84,14.84,0,0,1-.14-2.09h-.12a24.29,24.29,0,0,1-2,2.55,9.86,9.86,0,0,1-2.24,1.86,10.29,10.29,0,0,1-2.81,1.15,15.23,15.23,0,0,1-3.75.4,15,15,0,0,1-3.87-.48,8.89,8.89,0,0,1-3.16-1.55,7.44,7.44,0,0,1-2.11-2.7,8.91,8.91,0,0,1-.78-3.87,7.62,7.62,0,0,1,1.38-4.84,8.51,8.51,0,0,1,3.64-2.67,20.91,20.91,0,0,1,5.1-1.29c1.89-.25,3.81-.48,5.76-.71.76-.08,1.44-.18,2-.29a3.51,3.51,0,0,0,1.43-.6,2.82,2.82,0,0,0,.89-1.18,5,5,0,0,0,.31-2,6.64,6.64,0,0,0-.6-3,4.82,4.82,0,0,0-1.66-1.86,6.87,6.87,0,0,0-2.46-.95,17,17,0,0,0-3-.25,9.1,9.1,0,0,0-5.62,1.63c-1.46,1.09-2.22,2.84-2.3,5.25H3175a12.24,12.24,0,0,1,1.09-4.48Zm31.65-4.58v5h.17a11.24,11.24,0,0,1,3.75-4.29,10.44,10.44,0,0,1,5.93-1.55,10.13,10.13,0,0,1,5.31,1.43,7,7,0,0,1,3.18,4.36,9.11,9.11,0,0,1,3.9-4.36,11.2,11.2,0,0,1,5.5-1.43q9.81,0,9.8,10.38v20.06h-3.61V352.9a8.74,8.74,0,0,0-1.54-5.59c-1-1.28-2.85-1.92-5.45-1.92a7.76,7.76,0,0,0-3.9.88,6.9,6.9,0,0,0-2.47,2.39,10.09,10.09,0,0,0-1.28,3.4,20.85,20.85,0,0,0-.38,4v16.74h-3.61V352.73a12.36,12.36,0,0,0-.31-2.84,6.53,6.53,0,0,0-1-2.35,4.83,4.83,0,0,0-1.92-1.58,6.76,6.76,0,0,0-2.92-.57,8.84,8.84,0,0,0-4,.83,7.36,7.36,0,0,0-2.76,2.29,10.25,10.25,0,0,0-1.57,3.44,16.85,16.85,0,0,0-.52,4.33v16.51h-3.61V343.21ZM3272,352a11,11,0,0,0-1.86-3.36,9.36,9.36,0,0,0-2.93-2.35,8.35,8.35,0,0,0-3.89-.88,8.52,8.52,0,0,0-4,.88,9.32,9.32,0,0,0-2.92,2.35,11.73,11.73,0,0,0-1.93,3.39,16.35,16.35,0,0,0-.94,3.92h19.14A12.77,12.77,0,0,0,3272,352Zm-17.89,11a11.09,11.09,0,0,0,1.75,3.76,10,10,0,0,0,3,2.75,8.47,8.47,0,0,0,4.42,1.09,8.83,8.83,0,0,0,6.19-2.06,10.84,10.84,0,0,0,3.09-5.51h3.62a14.46,14.46,0,0,1-4.22,7.8c-2,1.83-4.94,2.75-8.68,2.75a13.82,13.82,0,0,1-6.06-1.23,11.21,11.21,0,0,1-4.15-3.38,14.88,14.88,0,0,1-2.38-5,22.92,22.92,0,0,1-.77-6,21.68,21.68,0,0,1,.77-5.73,15.42,15.42,0,0,1,2.38-5,11.94,11.94,0,0,1,4.15-3.55,12.78,12.78,0,0,1,6.06-1.35,11.68,11.68,0,0,1,10.17,5.19,15.31,15.31,0,0,1,2.26,5.33,23.18,23.18,0,0,1,.58,6.1h-22.76a16.11,16.11,0,0,0,.54,4Zm29.9-19.8v5.1h.11a8.63,8.63,0,0,1,3.68-4.33,10.73,10.73,0,0,1,5.79-1.63,14.65,14.65,0,0,1,5.18.8,8.26,8.26,0,0,1,3.36,2.27,8.51,8.51,0,0,1,1.78,3.58,20.37,20.37,0,0,1,.51,4.76v19h-3.61V354.33a17.84,17.84,0,0,0-.34-3.53,7.63,7.63,0,0,0-1.21-2.83,5.81,5.81,0,0,0-2.32-1.9,8.7,8.7,0,0,0-3.64-.68,9.13,9.13,0,0,0-3.87.77,8.36,8.36,0,0,0-2.87,2.12,9.72,9.72,0,0,0-1.83,3.21,13.11,13.11,0,0,0-.72,4v17.26h-3.61V343.21Zm38.29,0v3h-6V366.2a6.58,6.58,0,0,0,.48,2.78c.33.67,1.14,1,2.44,1.11a26.54,26.54,0,0,0,3.09-.17v3c-.53,0-1.06,0-1.6.06s-1.07.05-1.6.05c-2.41,0-4.1-.46-5-1.4s-1.42-2.66-1.38-5.19V346.25h-5.15v-3h5.15v-8.89h3.62v8.89Zm21,19.35a12.63,12.63,0,0,0,1.71,4,9.55,9.55,0,0,0,3,2.89,8.28,8.28,0,0,0,4.41,1.12,9.64,9.64,0,0,0,4.85-1.12,9.52,9.52,0,0,0,3.21-2.89,11.72,11.72,0,0,0,1.78-4,19.52,19.52,0,0,0,0-9.12,11.64,11.64,0,0,0-1.78-4,9.55,9.55,0,0,0-3.21-2.9,9.75,9.75,0,0,0-4.85-1.11,8.37,8.37,0,0,0-4.41,1.11,9.58,9.58,0,0,0-3,2.9,12.54,12.54,0,0,0-1.71,4,19.18,19.18,0,0,0,0,9.12Zm19.8,10.23v-5.62H3363a8.51,8.51,0,0,1-1.7,2.64,10.71,10.71,0,0,1-2.55,2,12.56,12.56,0,0,1-3.06,1.29,11.81,11.81,0,0,1-3.25.46,13.15,13.15,0,0,1-5.87-1.23,11.92,11.92,0,0,1-4.16-3.38,14.84,14.84,0,0,1-2.46-5,22.83,22.83,0,0,1,0-12,14.75,14.75,0,0,1,2.46-5,12.23,12.23,0,0,1,4.16-3.41,14,14,0,0,1,9.12-.86,11.1,11.1,0,0,1,3,1.23,10.64,10.64,0,0,1,2.44,2,8.61,8.61,0,0,1,1.63,2.81h.11v-17h3.62v40.93ZM3393.19,352a10.81,10.81,0,0,0-1.87-3.36,9.32,9.32,0,0,0-2.92-2.35,8.35,8.35,0,0,0-3.89-.88,8.5,8.5,0,0,0-4,.88,9.32,9.32,0,0,0-2.92,2.35,11.48,11.48,0,0,0-1.92,3.39,16.37,16.37,0,0,0-.95,3.92h19.14a12.77,12.77,0,0,0-.71-3.95Zm-17.89,11a11.29,11.29,0,0,0,1.75,3.76,9.8,9.8,0,0,0,3,2.75,8.45,8.45,0,0,0,4.42,1.09,8.83,8.83,0,0,0,6.19-2.06,10.91,10.91,0,0,0,3.09-5.51h3.61a14.39,14.39,0,0,1-4.21,7.8q-3.08,2.75-8.68,2.75a13.78,13.78,0,0,1-6.05-1.23,11.16,11.16,0,0,1-4.16-3.38,14.7,14.7,0,0,1-2.38-5,22.5,22.5,0,0,1-.77-6,21.28,21.28,0,0,1,.77-5.73,15.22,15.22,0,0,1,2.38-5,11.88,11.88,0,0,1,4.16-3.55,12.74,12.74,0,0,1,6.05-1.35,11.68,11.68,0,0,1,10.17,5.19,15.31,15.31,0,0,1,2.26,5.33,23.17,23.17,0,0,1,.57,6.1h-22.75a16.11,16.11,0,0,0,.54,4Zm57.93,6.46a21.79,21.79,0,0,0,4.13-.38,9.63,9.63,0,0,0,3.44-1.34,7,7,0,0,0,2.35-2.61,8.68,8.68,0,0,0,.86-4.1,6.82,6.82,0,0,0-2.78-5.94c-1.85-1.32-4.52-2-8-2h-13.41v16.34Zm0-19.67a13.6,13.6,0,0,0,4.07-.54,8.64,8.64,0,0,0,2.87-1.49,6.07,6.07,0,0,0,1.72-2.21,6.47,6.47,0,0,0,.57-2.7q0-7.68-9.23-7.68h-13.41V349.8Zm0-17.94a25,25,0,0,1,5,.48,12,12,0,0,1,4.19,1.67,8.84,8.84,0,0,1,2.89,3.09,9.56,9.56,0,0,1,1.09,4.79,9.82,9.82,0,0,1-2,5.88,9.23,9.23,0,0,1-2.23,2.09,8.4,8.4,0,0,1-2.9,1.2v.12a9.65,9.65,0,0,1,6.31,3.23,10,10,0,0,1,2.35,6.74,16.9,16.9,0,0,1-.17,2.21,11.31,11.31,0,0,1-.69,2.52,11.2,11.2,0,0,1-1.49,2.55,8.84,8.84,0,0,1-2.61,2.21,15.76,15.76,0,0,1-4,1.55,23.65,23.65,0,0,1-5.71.6h-17.31V331.86Zm38.35,24.76a2.05,2.05,0,0,1-1.31.92,12.83,12.83,0,0,1-1.72.4c-1.53.27-3.11.51-4.73.72a26,26,0,0,0-4.45.94,8.82,8.82,0,0,0-3.29,1.81,4.3,4.3,0,0,0-1.29,3.35,5.31,5.31,0,0,0,.54,2.44,5.8,5.8,0,0,0,1.47,1.83,6.27,6.27,0,0,0,2.12,1.18,7.64,7.64,0,0,0,2.46.4,12.44,12.44,0,0,0,4-.63,9.68,9.68,0,0,0,3.29-1.83,9,9,0,0,0,2.24-2.93,8.87,8.87,0,0,0,.83-3.9v-4.7Zm-18-8.83a8.43,8.43,0,0,1,2.49-3.09,10.52,10.52,0,0,1,3.7-1.78,18.07,18.07,0,0,1,4.7-.57,20.6,20.6,0,0,1,3.9.37,9.49,9.49,0,0,1,3.5,1.41,7.69,7.69,0,0,1,2.52,2.89,10.57,10.57,0,0,1,1,4.84v15.71a1.9,1.9,0,0,0,2.12,2.18,2.84,2.84,0,0,0,1.15-.23v3c-.42.08-.79.13-1.12.17a10.38,10.38,0,0,1-1.23.06,5.61,5.61,0,0,1-2.21-.37,3.08,3.08,0,0,1-1.29-1.06,4,4,0,0,1-.6-1.64,14.84,14.84,0,0,1-.14-2.09h-.12a24.29,24.29,0,0,1-2,2.55,10.08,10.08,0,0,1-2.24,1.86,10.42,10.42,0,0,1-2.81,1.15,15.23,15.23,0,0,1-3.75.4,15,15,0,0,1-3.87-.48,8.89,8.89,0,0,1-3.16-1.55,7.46,7.46,0,0,1-2.12-2.7,9.06,9.06,0,0,1-.77-3.87,7.56,7.56,0,0,1,1.38-4.84,8.54,8.54,0,0,1,3.63-2.67,20.91,20.91,0,0,1,5.1-1.29c1.9-.25,3.82-.48,5.76-.71.77-.08,1.44-.18,2-.29a3.41,3.41,0,0,0,1.42-.6,2.84,2.84,0,0,0,.9-1.18,5,5,0,0,0,.31-2,6.64,6.64,0,0,0-.6-3,4.77,4.77,0,0,0-1.67-1.86,6.72,6.72,0,0,0-2.46-.95,16.9,16.9,0,0,0-3-.25,9.14,9.14,0,0,0-5.62,1.63c-1.45,1.09-2.22,2.84-2.29,5.25h-3.61a12.24,12.24,0,0,1,1.09-4.48Zm31.58-4.58v6.93h.12a11.39,11.39,0,0,1,4.27-5.56,11.19,11.19,0,0,1,6.9-1.77v3.61a10.71,10.71,0,0,0-4.46.66,9.86,9.86,0,0,0-3.47,2.21,9.76,9.76,0,0,0-2.27,3.41,11.45,11.45,0,0,0-.8,4.32v15.77h-3.61V343.21Zm31.13,4.07a7.88,7.88,0,0,0-5.62-1.89,9.22,9.22,0,0,0-4.53,1.08,9.91,9.91,0,0,0-3.23,2.87,13.17,13.17,0,0,0-2,4,16.47,16.47,0,0,0,0,9.23,13,13,0,0,0,2,4,9.69,9.69,0,0,0,3.23,2.87,9.12,9.12,0,0,0,4.53,1.09,8,8,0,0,0,3.15-.63,8.28,8.28,0,0,0,2.64-1.75,9.08,9.08,0,0,0,1.89-2.67,9.61,9.61,0,0,0,.92-3.38h3.62a13.63,13.63,0,0,1-4,8.4,11.59,11.59,0,0,1-8.26,3,13.91,13.91,0,0,1-6-1.23,12.68,12.68,0,0,1-4.38-3.35,14.61,14.61,0,0,1-2.7-5,20.57,20.57,0,0,1,0-12.1,14.61,14.61,0,0,1,2.7-5,13,13,0,0,1,4.38-3.38,13.63,13.63,0,0,1,6-1.26,12.88,12.88,0,0,1,8.06,2.52,10.74,10.74,0,0,1,3.92,7.63H3519a9.87,9.87,0,0,0-2.75-5.22Zm31.45,4.7a10.81,10.81,0,0,0-1.87-3.36,9.32,9.32,0,0,0-2.92-2.35,9.19,9.19,0,0,0-7.85,0,9.36,9.36,0,0,0-2.93,2.35,11.94,11.94,0,0,0-1.92,3.39,16.35,16.35,0,0,0-.94,3.92h19.14a13.07,13.07,0,0,0-.71-3.95Zm-17.89,11a11.09,11.09,0,0,0,1.75,3.76,9.8,9.8,0,0,0,3,2.75,8.44,8.44,0,0,0,4.41,1.09,8.8,8.8,0,0,0,6.19-2.06,10.85,10.85,0,0,0,3.1-5.51h3.61a14.45,14.45,0,0,1-4.21,7.8c-2.05,1.83-4.94,2.75-8.69,2.75a13.81,13.81,0,0,1-6.05-1.23,11.13,11.13,0,0,1-4.15-3.38,14.7,14.7,0,0,1-2.38-5,22.5,22.5,0,0,1-.78-6,21.29,21.29,0,0,1,.78-5.73,15.22,15.22,0,0,1,2.38-5,11.85,11.85,0,0,1,4.15-3.55,12.77,12.77,0,0,1,6.05-1.35,11.64,11.64,0,0,1,10.17,5.19,15.51,15.51,0,0,1,2.27,5.33,23.61,23.61,0,0,1,.58,6.1h-22.76a16.11,16.11,0,0,0,.54,4Zm30-31.15v40.93h-3.61V331.86ZM3574,346.47a10.05,10.05,0,0,0-3.24,2.87,13.17,13.17,0,0,0-1.95,4,16.47,16.47,0,0,0,0,9.23,13,13,0,0,0,1.95,4,9.82,9.82,0,0,0,3.24,2.87,9.94,9.94,0,0,0,9,0,9.86,9.86,0,0,0,3.25-2.87,13.16,13.16,0,0,0,1.94-4,16.23,16.23,0,0,0,0-9.23,13.38,13.38,0,0,0-1.94-4,10.09,10.09,0,0,0-3.25-2.87,10,10,0,0,0-9,0Zm10.52-2.86a13.14,13.14,0,0,1,4.39,3.38,14.94,14.94,0,0,1,2.69,5,20.57,20.57,0,0,1,0,12.1,14.94,14.94,0,0,1-2.69,5,12.81,12.81,0,0,1-4.39,3.35,15.2,15.2,0,0,1-12,0,12.72,12.72,0,0,1-4.39-3.35,14.77,14.77,0,0,1-2.69-5,20.35,20.35,0,0,1,0-12.1,14.77,14.77,0,0,1,2.69-5,13,13,0,0,1,4.39-3.38,14.87,14.87,0,0,1,12,0Zm16.19-.4v5.1h.12a8.66,8.66,0,0,1,3.67-4.33,10.73,10.73,0,0,1,5.79-1.63,14.74,14.74,0,0,1,5.19.8,8.23,8.23,0,0,1,3.35,2.27,8.51,8.51,0,0,1,1.78,3.58,20.37,20.37,0,0,1,.51,4.76v19h-3.61V354.33a17.12,17.12,0,0,0-.34-3.53A7.32,7.32,0,0,0,3616,348a5.75,5.75,0,0,0-2.32-1.9,8.7,8.7,0,0,0-3.64-.68,9.13,9.13,0,0,0-3.87.77,8.45,8.45,0,0,0-2.87,2.12,9.89,9.89,0,0,0-1.83,3.21,13.11,13.11,0,0,0-.72,4v17.26h-3.61V343.21Zm45.35,13.41a2.07,2.07,0,0,1-1.32.92,12.49,12.49,0,0,1-1.72.4c-1.53.27-3.11.51-4.73.72a25.66,25.66,0,0,0-4.44.94,8.86,8.86,0,0,0-3.3,1.81,4.3,4.3,0,0,0-1.29,3.35,5.19,5.19,0,0,0,.55,2.44,5.63,5.63,0,0,0,1.46,1.83,6.37,6.37,0,0,0,2.12,1.18,7.65,7.65,0,0,0,2.47.4,12.42,12.42,0,0,0,4-.63,9.68,9.68,0,0,0,3.29-1.83,8.73,8.73,0,0,0,3.07-6.83v-4.7ZM3628,347.79a8.36,8.36,0,0,1,2.5-3.09,10.56,10.56,0,0,1,3.69-1.78,18.07,18.07,0,0,1,4.7-.57,20.6,20.6,0,0,1,3.9.37,9.42,9.42,0,0,1,3.5,1.41,7.6,7.6,0,0,1,2.52,2.89,10.43,10.43,0,0,1,1,4.84v15.71a1.9,1.9,0,0,0,2.11,2.18,2.81,2.81,0,0,0,1.15-.23v3c-.42.08-.79.13-1.12.17a10.26,10.26,0,0,1-1.23.06,5.68,5.68,0,0,1-2.21-.37,3.08,3.08,0,0,1-1.29-1.06,4.17,4.17,0,0,1-.6-1.64,14.84,14.84,0,0,1-.14-2.09h-.11a23,23,0,0,1-2,2.55,9.86,9.86,0,0,1-2.24,1.86,10.16,10.16,0,0,1-2.81,1.15,15.23,15.23,0,0,1-3.75.4,15,15,0,0,1-3.87-.48,8.85,8.85,0,0,1-3.15-1.55,7.38,7.38,0,0,1-2.13-2.7,9.06,9.06,0,0,1-.77-3.87,7.62,7.62,0,0,1,1.38-4.84,8.57,8.57,0,0,1,3.64-2.67,20.68,20.68,0,0,1,5.1-1.29c1.89-.25,3.81-.48,5.76-.71.77-.08,1.43-.18,2-.29a3.51,3.51,0,0,0,1.43-.6,2.91,2.91,0,0,0,.89-1.18,5,5,0,0,0,.31-2,6.64,6.64,0,0,0-.6-3,4.75,4.75,0,0,0-1.66-1.86,6.85,6.85,0,0,0-2.47-.95,16.9,16.9,0,0,0-3-.25,9.09,9.09,0,0,0-5.61,1.63c-1.46,1.09-2.22,2.84-2.3,5.25h-3.61a12.24,12.24,0,0,1,1.09-4.48ZM865.19,201.56H837.08v12.61h28.11v12.61H837.08V239.4h28.11V252H824.47V188.94h40.72Zm30.44,4.32c8.29,0,14,2.61,17.93,6.67l-6.66,8.65c-2.53-2.8-7.39-4.6-12.17-4.6-3.87,0-5.76,1.08-5.76,3.16,0,2.25,2.43,2.79,10.45,4.5,7.84,1.62,14.41,4.69,14.41,14.15,0,10.36-7.47,14.68-19.46,14.68-8.65,0-16-2.43-20-7.48l6.94-9c3,3.61,7.84,5.86,14.23,5.86,3.34,0,6-.9,6-3.42s-2.43-2.89-10-4.6c-6.76-1.44-15-4.41-15-14.23C876.62,211.11,883.74,205.88,895.63,205.88Zm48.67,0c7.21,0,13.07,2.52,17.12,6.58L954.66,222a14.09,14.09,0,0,0-10.36-4.51c-6.75,0-11.8,4.78-11.8,12s5,12,11.8,12a14.75,14.75,0,0,0,10.63-4.6l6.58,9.55c-3.87,3.88-9.82,6.67-17.39,6.67-13.78,0-23.87-9.28-23.87-23.6S930.34,205.88,944.3,205.88Zm46.23,0c13.88,0,24.24,9.55,24.24,23.61s-10.36,23.6-24.24,23.6-24.23-9.55-24.23-23.6S976.66,205.88,990.53,205.88Zm0,11.62c-6.85,0-12,4.78-12,12s5.13,12,12,12,12-4.78,12-12S997.38,217.5,990.53,217.5ZM1036.34,252h-12V188.94h12Zm30.91-46c13.24,0,19.73,5.68,19.73,18.29V252.1h-11.9V246c-2.43,3.61-6.75,7-13.87,7-8.92,0-15.23-5.77-15.23-14.05,0-8.11,6.13-13.43,14.42-14.15l12.34-1.08c1.53-.18,2.34-.81,2.34-1.8v-.72c0-2.62-2.43-4.51-7.83-4.51-4.69,0-9.64,1.53-11.27,5.77l-8.83-6.31C1050.13,209.31,1057.43,206,1067.25,206Zm-3.34,27.39c-3.69.63-5.58,2.43-5.58,5,0,2.88,2.16,4.77,6.39,4.77,6.31,0,10.36-4.32,10.36-9.28V232ZM1172.66,252h-11.9V245.7a17.64,17.64,0,0,1-15,7.48c-11.17,0-20.54-8.56-20.54-23.69s9.28-23.7,20.36-23.7a17.94,17.94,0,0,1,15.13,7.66V188.94h11.9Zm-35.14-22.52c0,7.3,5,12.07,11.8,12.07s11.8-4.6,11.8-12.07-5-12.08-11.8-12.08S1137.52,222.19,1137.52,229.49Zm54.53-25.41a8.44,8.44,0,1,1,11.71-7.75,7.68,7.68,0,0,1-1.53,4.68l-10.54,17.12-6.13-3.42Zm19.89,38-4.6,9.91h-13.87l29.19-63.07h11.71L1263.56,252h-13.87l-4.6-9.91Zm27.3-12.61-10.72-23.25-10.73,23.25Zm56.3-23.61a16.82,16.82,0,0,1,4.41.63v12.8a15.16,15.16,0,0,0-5.4-.73c-7.93,0-11.36,4.42-11.36,13.07V252H1271.3V207h11.44v7.39C1285.18,209,1289.14,205.88,1295.54,205.88Zm31.2,46.58c-8.37,0-13.24-3.87-13.24-14.23V217h-8.2V207h8.2V194.89h11.89V207h11.44v10h-11.44v19.55c0,2.89,1.35,4.06,4.51,4.06a30.22,30.22,0,0,0,6.57-.72v11.26A42.74,42.74,0,0,1,1326.74,252.46ZM830.41,265.28a7.54,7.54,0,0,1,7.66,7.66,7.46,7.46,0,0,1-7.66,7.56,7.38,7.38,0,0,1-7.56-7.56A7.46,7.46,0,0,1,830.41,265.28Zm6,65.59H824.47V285.82h11.89Zm92.44-31.54c0,18.2-13.16,31.54-30.91,31.54H875V267.8h22.88C915.64,267.8,928.8,281.13,928.8,299.33Zm-30.91-18.92H887.62v37.84h10.27c10.82,0,18.29-8.11,18.29-18.92S908.71,280.41,897.89,280.41Zm46-15.13a7.54,7.54,0,0,1,7.66,7.66,7.46,7.46,0,0,1-7.66,7.56,7.38,7.38,0,0,1-7.56-7.56A7.46,7.46,0,0,1,943.93,265.28Zm6,65.59H938V285.82h11.89Zm30.19-46.13c8.29,0,14,2.61,17.93,6.67l-6.67,8.64c-2.52-2.79-7.39-4.59-12.16-4.59-3.88,0-5.77,1.08-5.77,3.15,0,2.26,2.43,2.8,10.45,4.51,7.84,1.62,14.42,4.68,14.42,14.14,0,10.36-7.48,14.69-19.46,14.69-8.65,0-16-2.43-20-7.48l6.93-9c3,3.61,7.84,5.86,14.24,5.86,3.33,0,6-.9,6-3.42s-2.44-2.89-10-4.6c-6.75-1.44-15-4.41-15-14.24C961.06,290,968.18,284.74,980.07,284.74Zm43.34,0c8.28,0,14,2.61,17.92,6.67l-6.66,8.64c-2.53-2.79-7.39-4.59-12.17-4.59-3.87,0-5.76,1.08-5.76,3.15,0,2.26,2.43,2.8,10.45,4.51,7.84,1.62,14.41,4.68,14.41,14.14,0,10.36-7.47,14.69-19.46,14.69-8.64,0-16-2.43-20-7.48l6.94-9c3,3.61,7.84,5.86,14.24,5.86,3.33,0,6-.9,6-3.42s-2.43-2.89-10-4.6c-6.76-1.44-15-4.41-15-14.24C1004.4,290,1011.51,284.74,1023.41,284.74Zm47.67,0c13.79,0,22.26,9.46,22.26,24V312h-33.16l.09.18c1.44,6,6.76,8.65,12.07,8.65a18.73,18.73,0,0,0,12.8-4.6l4.95,9.82c-3.69,3.16-9.28,5.95-17.93,5.95-15.22,0-24.14-10.18-24.14-23.61S1056.94,284.74,1071.08,284.74Zm-.36,10.09c-5.76,0-9.46,3.06-10.63,8.47h20.27C1079.73,298.34,1076.49,294.83,1070.72,294.83Zm58.1-10.09c10.54,0,15.94,6.76,15.94,18.2v27.93H1132.6v-25c0-6.85-3.15-9.73-8.2-9.73-6.94,0-9.82,5.14-9.82,13.15v21.54h-11.89V285.82h11.53v6.49A17.38,17.38,0,0,1,1128.82,284.74Zm39.55,39.64-19.1-38.56h13.87l11.53,24.69,11.09-24.69h12.61L1170,348.89h-12.61ZM236.44,189H209.23V331.19h92.68V306H236.44Zm318.69,0H442.72v25.19h42.69v117h27v-117h42.7Zm161.33,0H682.28L632.76,331.19h28.65L671,302.72h56.68l9.62,28.47H766Zm-37,88.49,19.85-58.38,19.85,58.38Zm-308.15-92.3a74.19,74.19,0,1,0,74.19,74.19A74.2,74.2,0,0,0,371.27,185.23Zm51,96.74a14.52,14.52,0,0,1-6.53,5.55c-22.52,9.91-51.91,18.27-67,20.15a10.19,10.19,0,0,1-5.54-.72c-5.1-2.27-6.52-9.15-7.12-11.94-2.14-10.05-1-55.21,3.66-76.43,2.24-10.28,11.37-10.35,17.38-9.18,44.72,8.71,65.2,48.69,66.89,61.67A17.82,17.82,0,0,1,422.24,282Zm-258.11,8.91c-6.27,3.41-21.19,13.68-25.85,16.12-7.5,3.95-15.83,6.29-20.25-1.51-13.61-24,17.64-58.8,37.6-76.76,33.53-30.19-11.42-65.91-35.37-23.31-14.52,25.82-28.25,71.32-26.66,98,1,17.49,10.24,27.83,25.29,27.83h54.66c15.41,0,23-12.06,22.22-23.3C194.84,293.9,179.93,282.27,164.13,290.88ZM611.46,186a22.11,22.11,0,0,0-4.85-.53c-.58,0-1.16,0-1.74.07a22.35,22.35,0,0,0-20.61,22.09,43.17,43.17,0,0,0,.41,4.48,56.69,56.69,0,0,0,2,8.18,72.78,72.78,0,0,0,6.23,14.24l8.53,13.82c15.68,28.16,9.68,47.71-11.21,52.2L566.4,305a9.61,9.61,0,0,1-1.79.17,9.19,9.19,0,0,1-5-16.87l16.89-11.41a15.44,15.44,0,0,0-8.58-28.29,24.62,24.62,0,0,0-17.77,7.54c-8.29,8.64-13.88,20.38-13.39,33.3,1.51,39.21,29.81,43.92,45.7,44.19,34.2.59,46.32-20.74,46.32-45.76L629,228V207.82A22.36,22.36,0,0,0,611.46,186Z"/></svg>