<?xml version="1.0" encoding="UTF-8"?><svg xmlns="http://www.w3.org/2000/svg" viewBox="0 0 662.73 101.44"><defs><style>.d{fill:#1a1c1d;}</style></defs><g id="a"/><g id="b"><g id="c"><g><path class="d" d="M398.78,10.88c-.36-2.53-2.79-4.46-5.57-4.46-5.04,0-6.93,4.28-6.93,8.75s1.89,8.53,6.93,8.53c3.43,0,5.36-2.36,5.79-5.71h5.43c-.57,6.36-4.96,10.43-11.21,10.43-7.89,0-12.53-5.89-12.53-13.25s4.64-13.46,12.53-13.46c5.61,0,10.32,3.29,11,9.18h-5.43Z"/><path class="d" d="M411.18,19.81c.14,3.21,1.71,4.68,4.53,4.68,2.04,0,3.68-1.25,4-2.39h4.46c-1.43,4.36-4.46,6.21-8.64,6.21-5.82,0-9.43-4-9.43-9.71s3.82-9.75,9.43-9.75c6.28,0,9.32,5.28,8.96,10.96h-13.32Zm8.25-3.21c-.46-2.57-1.57-3.93-4.04-3.93-3.21,0-4.14,2.5-4.21,3.93h8.25Z"/><path class="d" d="M426.79,9.35h4.82v2.57h.11c1.29-2.07,3.5-3.07,5.64-3.07,5.39,0,6.75,3.03,6.75,7.6v11.36h-5.07v-10.43c0-3.03-.89-4.53-3.25-4.53-2.75,0-3.93,1.54-3.93,5.29v9.68h-5.07V9.35Z"/><path class="d" d="M453.67,9.35h3.71v3.39h-3.71v9.14c0,1.71,.43,2.14,2.14,2.14,.54,0,1.04-.04,1.57-.14v3.96c-.86,.14-1.96,.18-2.96,.18-3.11,0-5.82-.71-5.82-4.39V12.74h-3.07v-3.39h3.07V3.81h5.07v5.54Z"/><path class="d" d="M459.11,9.35h4.82v3.43h.07c.93-2.32,3.43-3.93,5.89-3.93,.36,0,.79,.07,1.11,.18v4.71c-.46-.11-1.21-.18-1.82-.18-3.71,0-5,2.68-5,5.93v8.32h-5.07V9.35Z"/><path class="d" d="M476.46,19.81c.14,3.21,1.71,4.68,4.53,4.68,2.04,0,3.68-1.25,4-2.39h4.46c-1.43,4.36-4.46,6.21-8.64,6.21-5.82,0-9.43-4-9.43-9.71s3.82-9.75,9.43-9.75c6.29,0,9.32,5.28,8.96,10.96h-13.32Zm8.25-3.21c-.46-2.57-1.57-3.93-4.04-3.93-3.21,0-4.14,2.5-4.21,3.93h8.25Z"/><path class="d" d="M511.6,25.45h-.07c-1.18,2-3.25,2.86-5.6,2.86-5.57,0-8.29-4.78-8.29-9.89s2.75-9.57,8.18-9.57c2.18,0,4.32,.93,5.5,2.75h.04V2.31h5.07V27.81h-4.82v-2.36Zm-4.43-12.78c-3.32,0-4.46,2.86-4.46,5.89s1.32,5.93,4.46,5.93c3.36,0,4.36-2.93,4.36-5.96s-1.07-5.86-4.36-5.86Z"/><path class="d" d="M523.35,19.81c.14,3.21,1.71,4.68,4.54,4.68,2.04,0,3.68-1.25,4-2.39h4.46c-1.43,4.36-4.46,6.21-8.64,6.21-5.82,0-9.43-4-9.43-9.71s3.82-9.75,9.43-9.75c6.28,0,9.32,5.28,8.96,10.96h-13.32Zm8.25-3.21c-.46-2.57-1.57-3.93-4.04-3.93-3.21,0-4.14,2.5-4.21,3.93h8.25Z"/><path class="d" d="M562.85,10.88c-.36-2.53-2.78-4.46-5.57-4.46-5.03,0-6.92,4.28-6.92,8.75s1.89,8.53,6.92,8.53c3.43,0,5.36-2.36,5.79-5.71h5.43c-.57,6.36-4.96,10.43-11.21,10.43-7.89,0-12.53-5.89-12.53-13.25s4.64-13.46,12.53-13.46c5.61,0,10.32,3.29,11,9.18h-5.43Z"/><path class="d" d="M588.38,27.81h-4.82v-2.57h-.11c-1.29,2.07-3.5,3.07-5.64,3.07-5.39,0-6.75-3.04-6.75-7.61V9.35h5.07v10.43c0,3.03,.89,4.53,3.25,4.53,2.75,0,3.93-1.54,3.93-5.29V9.35h5.07V27.81Z"/><path class="d" d="M591.67,2.31h5.07V27.81h-5.07V2.31Z"/><path class="d" d="M606.45,9.35h3.71v3.39h-3.71v9.14c0,1.71,.43,2.14,2.14,2.14,.54,0,1.04-.04,1.57-.14v3.96c-.86,.14-1.96,.18-2.96,.18-3.11,0-5.82-.71-5.82-4.39V12.74h-3.07v-3.39h3.07V3.81h5.07v5.54Z"/><path class="d" d="M629.2,27.81h-4.82v-2.57h-.11c-1.29,2.07-3.5,3.07-5.64,3.07-5.39,0-6.75-3.04-6.75-7.61V9.35h5.07v10.43c0,3.03,.89,4.53,3.25,4.53,2.75,0,3.93-1.54,3.93-5.29V9.35h5.07V27.81Z"/><path class="d" d="M632.35,9.35h4.82v3.43h.07c.93-2.32,3.43-3.93,5.89-3.93,.36,0,.79,.07,1.11,.18v4.71c-.46-.11-1.21-.18-1.82-.18-3.71,0-5,2.68-5,5.93v8.32h-5.07V9.35Z"/><path class="d" d="M645.31,15.03c.29-4.75,4.54-6.18,8.68-6.18,3.68,0,8.1,.82,8.1,5.25v9.6c0,1.68,.18,3.36,.64,4.11h-5.14c-.18-.57-.32-1.18-.36-1.79-1.61,1.68-3.96,2.29-6.21,2.29-3.5,0-6.29-1.75-6.29-5.53,0-4.18,3.14-5.18,6.29-5.6,3.11-.46,6-.36,6-2.43,0-2.18-1.5-2.5-3.28-2.5-1.93,0-3.18,.78-3.36,2.78h-5.07Zm11.71,3.75c-.86,.75-2.64,.78-4.21,1.07-1.57,.32-3,.86-3,2.71s1.46,2.36,3.11,2.36c3.96,0,4.1-3.14,4.1-4.25v-1.89Z"/><path class="d" d="M398.78,46.6c-.36-2.53-2.79-4.46-5.57-4.46-5.04,0-6.93,4.28-6.93,8.75s1.89,8.53,6.93,8.53c3.43,0,5.36-2.36,5.79-5.71h5.43c-.57,6.36-4.96,10.43-11.21,10.43-7.89,0-12.53-5.89-12.53-13.25s4.64-13.46,12.53-13.46c5.61,0,10.32,3.28,11,9.18h-5.43Z"/><path class="d" d="M415.96,44.56c5.82,0,9.57,3.85,9.57,9.75s-3.75,9.71-9.57,9.71-9.53-3.86-9.53-9.71,3.75-9.75,9.53-9.75Zm0,15.64c3.46,0,4.5-2.96,4.5-5.89s-1.04-5.93-4.5-5.93-4.46,2.96-4.46,5.93,1.04,5.89,4.46,5.89Z"/><path class="d" d="M428.11,45.06h4.82v2.57h.11c1.29-2.07,3.5-3.07,5.64-3.07,5.39,0,6.75,3.03,6.75,7.6v11.36h-5.07v-10.43c0-3.03-.89-4.54-3.25-4.54-2.75,0-3.93,1.54-3.93,5.29v9.68h-5.07v-18.46Z"/><path class="d" d="M455,45.06h3.71v3.39h-3.71v9.14c0,1.71,.43,2.14,2.14,2.14,.54,0,1.04-.04,1.57-.14v3.96c-.86,.14-1.96,.18-2.96,.18-3.11,0-5.82-.71-5.82-4.39v-10.89h-3.07v-3.39h3.07v-5.53h5.07v5.53Z"/><path class="d" d="M464.6,55.52c.14,3.21,1.71,4.68,4.53,4.68,2.04,0,3.68-1.25,4-2.39h4.46c-1.43,4.36-4.46,6.21-8.64,6.21-5.82,0-9.43-4-9.43-9.71s3.82-9.75,9.43-9.75c6.29,0,9.32,5.28,8.96,10.96h-13.32Zm8.25-3.21c-.46-2.57-1.57-3.93-4.04-3.93-3.21,0-4.14,2.5-4.21,3.93h8.25Z"/><path class="d" d="M480.35,45.06h4.79v2.5h.07c1.32-1.89,3.25-3,5.64-3s4.39,.86,5.39,3.07c1.07-1.61,3-3.07,5.57-3.07,3.93,0,6.75,1.82,6.75,6.6v12.35h-5.07v-10.46c0-2.46-.21-4.5-3.11-4.5s-3.39,2.36-3.39,4.68v10.28h-5.07v-10.35c0-2.14,.14-4.61-3.07-4.61-1,0-3.43,.64-3.43,4.25v10.71h-5.07v-18.46Z"/><path class="d" d="M511.85,45.06h4.82v2.36h.07c1.21-1.96,3.21-2.85,5.5-2.85,5.79,0,8.39,4.68,8.39,9.92,0,4.93-2.71,9.53-8.11,9.53-2.21,0-4.32-.96-5.54-2.78h-.07v8.78h-5.07v-24.96Zm13.71,9.28c0-2.93-1.18-5.96-4.43-5.96s-4.39,2.96-4.39,5.96,1.14,5.86,4.43,5.86,4.39-2.86,4.39-5.86Z"/><path class="d" d="M541.92,44.56c5.82,0,9.57,3.85,9.57,9.75s-3.75,9.71-9.57,9.71-9.53-3.86-9.53-9.71,3.75-9.75,9.53-9.75Zm0,15.64c3.46,0,4.5-2.96,4.5-5.89s-1.04-5.93-4.5-5.93-4.46,2.96-4.46,5.93,1.04,5.89,4.46,5.89Z"/><path class="d" d="M554.07,45.06h4.82v3.43h.07c.93-2.32,3.43-3.93,5.89-3.93,.36,0,.79,.07,1.11,.18v4.71c-.46-.11-1.21-.18-1.82-.18-3.71,0-5,2.68-5,5.93v8.32h-5.07v-18.46Z"/><path class="d" d="M567.03,50.74c.29-4.75,4.54-6.18,8.68-6.18,3.68,0,8.1,.82,8.1,5.25v9.6c0,1.68,.18,3.36,.64,4.11h-5.14c-.18-.57-.32-1.18-.36-1.79-1.61,1.68-3.96,2.28-6.21,2.28-3.5,0-6.29-1.75-6.29-5.53,0-4.18,3.14-5.18,6.29-5.6,3.11-.46,6-.36,6-2.43,0-2.18-1.5-2.5-3.28-2.5-1.93,0-3.18,.78-3.36,2.78h-5.07Zm2.21-13.03h5.61l3.43,5.07h-3.53l-5.5-5.07Zm9.5,16.78c-.86,.75-2.64,.79-4.21,1.07-1.57,.32-3,.86-3,2.71s1.46,2.36,3.11,2.36c3.96,0,4.1-3.14,4.1-4.25v-1.89Z"/><path class="d" d="M587.03,45.06h4.82v2.57h.11c1.29-2.07,3.5-3.07,5.64-3.07,5.39,0,6.75,3.03,6.75,7.6v11.36h-5.07v-10.43c0-3.03-.89-4.54-3.25-4.54-2.75,0-3.93,1.54-3.93,5.29v9.68h-5.07v-18.46Z"/><path class="d" d="M612.7,42.2h-5.07v-4.18h5.07v4.18Zm-5.07,2.86h5.07v18.46h-5.07v-18.46Z"/><path class="d" d="M615.78,50.74c.28-4.75,4.53-6.18,8.68-6.18,3.68,0,8.1,.82,8.1,5.25v9.6c0,1.68,.18,3.36,.64,4.11h-5.14c-.18-.57-.32-1.18-.36-1.79-1.61,1.68-3.96,2.28-6.21,2.28-3.5,0-6.28-1.75-6.28-5.53,0-4.18,3.14-5.18,6.28-5.6,3.11-.46,6-.36,6-2.43,0-2.18-1.5-2.5-3.28-2.5-1.93,0-3.18,.78-3.36,2.78h-5.07Zm11.71,3.75c-.86,.75-2.64,.79-4.21,1.07-1.57,.32-3,.86-3,2.71s1.46,2.36,3.11,2.36c3.96,0,4.11-3.14,4.11-4.25v-1.89Z"/><path class="d" d="M394.43,96.88h-.07c-1.18,2-3.25,2.86-5.61,2.86-5.57,0-8.28-4.78-8.28-9.89s2.75-9.57,8.18-9.57c2.18,0,4.32,.93,5.5,2.75h.04v-9.28h5.07v25.49h-4.82v-2.36Zm-4.43-12.78c-3.32,0-4.46,2.86-4.46,5.89s1.32,5.93,4.46,5.93c3.36,0,4.36-2.93,4.36-5.96s-1.07-5.86-4.36-5.86Z"/><path class="d" d="M406.18,91.24c.14,3.21,1.71,4.68,4.54,4.68,2.04,0,3.68-1.25,4-2.39h4.46c-1.43,4.36-4.46,6.21-8.64,6.21-5.82,0-9.43-4-9.43-9.71s3.82-9.75,9.43-9.75c6.28,0,9.32,5.28,8.96,10.96h-13.32Zm8.25-3.21c-.46-2.57-1.57-3.93-4.04-3.93-3.21,0-4.14,2.5-4.21,3.93h8.25Z"/><path class="d" d="M428.5,73.74h12c4.86,0,8.14,1.57,8.14,6.32,0,2.5-1.25,4.25-3.46,5.32,3.11,.89,4.68,3.29,4.68,6.46,0,5.18-4.39,7.39-9,7.39h-12.35v-25.49Zm5.6,10.32h5.68c1.96,0,3.43-.89,3.43-3.04,0-2.43-1.86-2.93-3.86-2.93h-5.25v5.96Zm0,10.82h6c2.21,0,4.14-.71,4.14-3.35s-1.64-3.64-4.04-3.64h-6.11v7Z"/><path class="d" d="M452.18,86.45c.28-4.75,4.53-6.18,8.68-6.18,3.68,0,8.1,.82,8.1,5.25v9.6c0,1.68,.18,3.36,.64,4.11h-5.14c-.18-.57-.32-1.18-.36-1.79-1.61,1.68-3.96,2.29-6.21,2.29-3.5,0-6.28-1.75-6.28-5.53,0-4.18,3.14-5.18,6.28-5.61,3.11-.46,6-.36,6-2.43,0-2.18-1.5-2.5-3.29-2.5-1.93,0-3.18,.78-3.35,2.79h-5.07Zm11.71,3.75c-.86,.75-2.64,.78-4.21,1.07-1.57,.32-3,.86-3,2.71s1.46,2.36,3.11,2.36c3.96,0,4.11-3.14,4.11-4.25v-1.89Z"/><path class="d" d="M472.18,80.77h4.82v3.43h.07c.93-2.32,3.43-3.93,5.89-3.93,.36,0,.79,.07,1.11,.18v4.71c-.46-.11-1.21-.18-1.82-.18-3.71,0-5,2.68-5,5.93v8.32h-5.07v-18.46Z"/><path class="d" d="M497.92,87.27c-.32-2.07-1.64-3.18-3.75-3.18-3.25,0-4.32,3.28-4.32,6s1.04,5.82,4.21,5.82c2.36,0,3.71-1.5,4.04-3.75h4.89c-.64,4.89-4.04,7.57-8.89,7.57-5.57,0-9.32-3.93-9.32-9.46s3.43-10,9.43-10c4.36,0,8.36,2.28,8.68,7h-4.96Z"/><path class="d" d="M509.31,91.24c.14,3.21,1.71,4.68,4.54,4.68,2.04,0,3.68-1.25,4-2.39h4.46c-1.43,4.36-4.46,6.21-8.64,6.21-5.82,0-9.43-4-9.43-9.71s3.82-9.75,9.43-9.75c6.28,0,9.32,5.28,8.96,10.96h-13.32Zm8.25-3.21c-.46-2.57-1.57-3.93-4.03-3.93-3.21,0-4.14,2.5-4.21,3.93h8.25Z"/><path class="d" d="M525.07,73.74h5.07v25.49h-5.07v-25.49Z"/><path class="d" d="M542.38,80.28c5.82,0,9.57,3.85,9.57,9.75s-3.75,9.71-9.57,9.71-9.54-3.86-9.54-9.71,3.75-9.75,9.54-9.75Zm0,15.64c3.46,0,4.5-2.96,4.5-5.89s-1.04-5.93-4.5-5.93-4.46,2.96-4.46,5.93,1.04,5.89,4.46,5.89Z"/><path class="d" d="M554.53,80.77h4.82v2.57h.11c1.29-2.07,3.5-3.07,5.64-3.07,5.39,0,6.75,3.03,6.75,7.6v11.35h-5.07v-10.43c0-3.03-.89-4.53-3.25-4.53-2.75,0-3.93,1.54-3.93,5.29v9.67h-5.07v-18.46Z"/><path class="d" d="M574.78,86.45c.29-4.75,4.54-6.18,8.68-6.18,3.68,0,8.1,.82,8.1,5.25v9.6c0,1.68,.18,3.36,.64,4.11h-5.14c-.18-.57-.32-1.18-.36-1.79-1.61,1.68-3.96,2.29-6.21,2.29-3.5,0-6.29-1.75-6.29-5.53,0-4.18,3.14-5.18,6.29-5.61,3.11-.46,6-.36,6-2.43,0-2.18-1.5-2.5-3.29-2.5-1.93,0-3.18,.78-3.36,2.79h-5.07Zm11.71,3.75c-.86,.75-2.64,.78-4.21,1.07-1.57,.32-3,.86-3,2.71s1.46,2.36,3.11,2.36c3.96,0,4.11-3.14,4.11-4.25v-1.89Z"/></g><g><path class="d" d="M68.76,34.85c-1.36-9.63-10.58-16.95-21.16-16.95-19.12,0-26.31,16.27-26.31,33.22s7.19,32.41,26.31,32.41c13.02,0,20.34-8.95,21.97-21.7h20.61c-2.17,24.14-18.85,39.6-42.58,39.6C17.63,101.44,0,79.06,0,51.13S17.63,0,47.6,0c21.29,0,39.19,12.48,41.77,34.85h-20.61Z"/><path class="d" d="M162.47,34.85c-1.36-9.63-10.58-16.95-21.16-16.95-19.12,0-26.31,16.27-26.31,33.22s7.19,32.41,26.31,32.41c13.02,0,20.34-8.95,21.97-21.7h20.61c-2.17,24.14-18.85,39.6-42.58,39.6-29.97,0-47.6-22.38-47.6-50.31S111.34,0,141.31,0c21.29,0,39.19,12.48,41.77,34.85h-20.61Z"/><path class="d" d="M256.19,34.85c-1.36-9.63-10.58-16.95-21.16-16.95-19.12,0-26.31,16.27-26.31,33.22s7.19,32.41,26.31,32.41c13.02,0,20.34-8.95,21.97-21.7h20.61c-2.17,24.14-18.85,39.6-42.58,39.6-29.97,0-47.6-22.38-47.6-50.31S205.06,0,235.03,0c21.29,0,39.19,12.48,41.77,34.85h-20.61Z"/><path class="d" d="M285.35,2.31h45.57c18.44,0,30.92,5.97,30.92,24,0,9.49-4.75,16.14-13.15,20.21,11.8,3.39,17.77,12.48,17.77,24.55,0,19.67-16.68,28.07-34.17,28.07h-46.92V2.31Zm21.29,39.19h21.56c7.46,0,13.02-3.39,13.02-11.53,0-9.22-7.05-11.12-14.64-11.12h-19.94v22.65Zm0,41.09h22.78c8.41,0,15.73-2.71,15.73-12.75s-6.24-13.83-15.32-13.83h-23.19v26.58Z"/></g></g></g></svg>