<?xml version="1.0" encoding="UTF-8"?><svg xmlns="http://www.w3.org/2000/svg" viewBox="0 0 1966.51 529.83"><defs><style>.d{fill:#fff;}</style></defs><g id="a"/><g id="b"><g id="c"><g><g><path d="M1929.44,413.2c0,17.12-12.23,26.46-29.56,26.46-8.67,0-16.45-5.56-16.45-14.46,0-9.34,8.23-14.45,16.67-15.12l29.34-2.22v5.34Zm37.07,44.66v-20.42s-1.78,.45-3.55,.45c-4.67,0-6.44-2-6.44-7.34v-42.87c0-7.8-.45-16.01-3.33-23.34-6.66-17.31-23.52-23.53-43.31-23.53-25.78,0-46.42,11.54-47.97,37.51h26.86c.67-10.66,8.23-16.44,21.11-16.44,15.79,0,19.57,7.34,19.57,18.24v7.12l-34.01,2.44c-21.99,1.55-39.08,14.2-39.08,36.19,0,18.89,14.2,36.2,41.74,36.2,16.45,0,29.79-7.98,35.12-17.31,.88,8.65,7.54,16.2,19.53,16.2,6.66,0,9.1-1.11,13.77-3.1h0Zm-131.96,1.33v-77.08c0-23.98-14.42-41.29-39.08-41.29-13.33,0-27.12,5.55-34.01,17.75l-2-14.87h-23.3v115.49h27.74v-47.08c0-9.77-.22-21.77,3.78-30.87,3.78-8.46,10.22-14.68,20.01-14.68,14.67,0,19.12,8.22,19.12,21.77v70.86h27.74Zm-151.7-57.74c0,10.88-1.56,21.77-8.23,29.11-3.77,4.01-10,7.34-17.55,7.34s-13.78-3.33-17.56-7.34c-6.67-7.33-8.22-18.22-8.22-29.11s1.55-21.78,8.22-29.12c3.78-4,10-7.33,17.56-7.33s13.78,3.33,17.55,7.33c6.67,7.34,8.23,18.22,8.23,29.12m28.19,0c0-19.57-4.88-31.78-13.53-42.67-8-9.76-22.88-17.97-40.44-17.97s-32.44,8.21-40.44,17.97c-8.65,10.88-13.53,23.1-13.53,42.67s4.88,31.78,13.53,42.66c7.99,9.76,22.87,17.97,40.44,17.97s32.44-8.21,40.44-17.97c8.65-10.88,13.53-23.11,13.53-42.66m-121.27,57.52v-23.3c-1.55,0-2.22,.22-4.66,.22-9.55,0-11.11-4.44-11.11-11.1v-126.19h-27.97v130.85c0,21.97,12.65,31.07,31.53,31.07,5.56,0,6.66-.44,12.21-1.56m-95.3-69.06h-49.98c.22-7.56,2-12.89,6-18.02,4-5.34,10.88-8.89,19.33-8.89,8,0,13.77,2.67,17.55,6.67,4.45,4.9,6.89,11.57,7.11,20.24m27.77,12.42c.45-14.43-1.56-27.55-10-40.22-9.56-14.43-25.11-21.3-42.21-21.3-15.78,0-28.21,5.77-36.87,14.64-11.1,11.32-16.64,27.78-16.64,46.21s6.22,35.12,17.75,46.22c9.1,8.65,20.65,14.2,36.43,14.2,14.66,0,29.1-4.66,38.87-16.2,4.45-5.33,9.11-14.44,9.77-21.34h-26.65c-1.12,4.23-3.11,7.35-5.56,9.79-4,4-8.89,5.56-16.89,5.56-7.55,0-13.11-3.33-17.11-7.11-5.56-5.34-8.66-13.79-8.44-22.68h77.31c0-2.44,.22-7.76,.22-7.76m-120.85,16.01h-27.32c-.23,4.22-1.56,7.77-3.34,10.66-3.33,5.12-9.33,8.67-17.77,8.67-7.56,0-13.11-3.33-16.89-7.33-6.66-7.33-7.78-18.22-7.78-29.11s1.12-22,7.78-29.33c3.78-4.01,9.33-7.12,16.89-7.12,8.44,0,14.43,3.56,17.77,8.67,1.78,2.88,3.11,6.44,3.34,10.66h27.32c-.45-9.1-3.55-18.21-8.89-25.09-7.99-9.99-21.99-18.2-39.54-18.2s-32.21,8.43-40.2,18.2c-8.65,10.88-12.65,25.32-12.65,42.21s4,31.33,12.65,42.21c7.99,9.77,22.65,18.2,40.2,18.2s31.55-8.21,39.54-18.2c5.34-6.88,8.44-15.99,8.89-25.09m-108.17-48.91v-26.63c-2.89-.44-5.78-.67-8.67-.67-13.55,0-27.33,5.56-32.66,18.87l-2.44-17.31h-23.52v115.49h27.96v-58.19c0-18.68,10.22-32.67,29.77-32.67,3.11,0,6.44,.45,9.56,1.11m-127.04,43.77c0,17.12-12.23,26.46-29.57,26.46-8.67,0-16.45-5.56-16.45-14.46,0-9.34,8.22-14.45,16.67-15.12l29.35-2.22v5.34Zm37.07,44.66v-20.42s-1.78,.45-3.55,.45c-4.67,0-6.44-2-6.44-7.34v-42.87c0-7.8-.45-16.01-3.32-23.34-6.66-17.31-23.53-23.53-43.31-23.53-25.79,0-46.42,11.54-47.98,37.51h26.87c.66-10.66,8.22-16.44,21.11-16.44,15.79,0,19.57,7.34,19.57,18.24v7.12l-34.02,2.44c-21.99,1.55-39.08,14.2-39.08,36.19,0,18.89,14.2,36.2,41.75,36.2,16.45,0,29.78-7.98,35.11-17.31,.9,8.65,7.55,16.2,19.54,16.2,6.66,0,9.11-1.11,13.77-3.1h0Zm-153.93-45.2c0,15.92-14.44,20.79-27.78,20.79h-35.34v-43.57h36.23c15.12,0,26.89,5.97,26.89,22.78m-3.32-66.31c0,14.89-10.89,19.57-23.78,19.57h-36.01v-39.57h35.34c12.89,0,24.45,4.89,24.45,20.01m32.41,66.97c0-14.59-7.77-28.54-22.64-35.43,13.31-5.99,19.3-20.43,19.3-33.32,0-13.55-6.66-26.66-18.19-34.21-10.66-6.88-23.77-8.65-36.44-8.65h-62.64v157.48h62.64c15.11,0,29.77-1.33,41.98-10.65,11.32-8.66,15.99-21.29,15.99-35.22m-218.83-23.41h-49.98c.22-7.56,2-12.89,6-18.02,4-5.34,10.88-8.89,19.32-8.89,8,0,13.77,2.67,17.55,6.67,4.44,4.9,6.88,11.57,7.1,20.24m27.78,12.42c.44-14.43-1.56-27.55-10-40.22-9.56-14.43-25.11-21.3-42.2-21.3-15.78,0-28.22,5.77-36.87,14.64-11.1,11.32-16.65,27.78-16.65,46.21s6.22,35.12,17.76,46.22c9.1,8.65,20.65,14.2,36.43,14.2,14.66,0,29.1-4.66,38.87-16.2,4.44-5.33,9.11-14.44,9.77-21.34h-26.65c-1.12,4.23-3.12,7.35-5.56,9.79-3.99,4-8.89,5.56-16.88,5.56-7.56,0-13.11-3.33-17.11-7.11-5.56-5.34-8.67-13.79-8.45-22.68h77.32c0-2.44,.22-7.76,.22-7.76m-157.26-1.11c0,16.67-4.45,37.34-26.23,37.34-8.67,0-14.68-4-18.68-9.11-5.78-7.55-7.33-18.22-7.33-28.22s1.56-20.45,7.33-28c4-5.11,10-9.11,18.68-9.11,21.78,0,26.23,20.45,26.23,37.11m26.4,57.97v-160.37h-27.74v52.86c-4.89-5.99-15.57-10.87-30.23-10.87-11.79,0-21.12,3.55-28.22,9.32-13.76,11.32-20.64,28.86-20.64,51.52s6.66,39.1,20.42,50.42c7.1,5.78,16.66,9.78,28.22,9.78,12.67,0,25.56-4.66,32.45-15.32l1.78,12.64h23.97Z"/><path d="M1845.46,234.17v-23.3c-7.55,.88-12.21,1.11-17.99,1.11-8.89,0-12.88-3.78-12.88-12.67v-56.23h29.1v-22.86h-29.1v-36.21l-27.75,6.89v29.33h-21.11v22.86h21.11v58.67c0,22.21,11.54,35.52,34.85,35.52,8.22,0,16-1.11,23.77-3.1m-96.63,1.55v-77.09c0-23.98-14.43-41.29-39.08-41.29-13.33,0-27.12,5.55-34.01,17.76l-2-14.87h-23.31v115.49h27.75v-47.09c0-9.77-.23-21.76,3.77-30.87,3.79-8.46,10.23-14.68,20.01-14.68,14.67,0,19.12,8.22,19.12,21.77v70.87h27.74Zm-150.62-69.29h-49.99c.23-7.56,2-12.89,6-18.01,4-5.34,10.88-8.89,19.33-8.89,7.99,0,13.77,2.67,17.55,6.67,4.45,4.9,6.89,11.57,7.11,20.24m27.77,12.42c.44-14.42-1.56-27.55-9.99-40.22-9.56-14.42-25.11-21.3-42.21-21.3-15.77,0-28.21,5.77-36.87,14.65-11.1,11.32-16.64,27.78-16.64,46.21s6.22,35.12,17.75,46.21c9.1,8.66,20.65,14.2,36.42,14.2,14.67,0,29.1-4.66,38.88-16.2,4.45-5.33,9.11-14.44,9.77-21.33h-26.66c-1.11,4.22-3.1,7.34-5.55,9.78-4,4-8.89,5.56-16.89,5.56-7.55,0-13.11-3.34-17.11-7.12-5.56-5.34-8.67-13.79-8.44-22.68h77.3c0-2.44,.23-7.77,.23-7.77m-129.08,56.86v-77.98c0-23.99-12.86-40.41-37.51-40.41-15.57,0-28.01,6.88-34.9,18.86-5.77-11.76-16.86-18.86-33.08-18.86-15.34,0-26.46,7.55-32.9,18.2l-2.22-15.31h-23.09v115.49h27.52v-63.08c0-14.46,7.12-31.12,22.9-31.12,14,0,17.78,8.22,17.78,22.44v71.76h27.52v-63.09c0-14.44,6.89-31.1,22.68-31.1,14,0,17.78,8.22,17.78,22.44v71.76h27.52Zm-223.46-45.99c0,17.13-12.23,26.47-29.56,26.47-8.67,0-16.45-5.56-16.45-14.46,0-9.33,8.23-14.45,16.67-15.12l29.34-2.22v5.33Zm37.07,44.66v-20.42s-1.78,.44-3.55,.44c-4.67,0-6.44-2-6.44-7.34v-42.87c0-7.8-.44-16.02-3.33-23.34-6.66-17.32-23.52-23.53-43.3-23.53-25.79,0-46.42,11.54-47.98,37.52h26.86c.67-10.66,8.23-16.44,21.12-16.44,15.78,0,19.56,7.34,19.56,18.24v7.12l-34.01,2.44c-21.99,1.55-39.08,14.2-39.08,36.2,0,18.89,14.2,36.19,41.75,36.19,16.45,0,29.78-7.98,35.12-17.31,.88,8.65,7.54,16.2,19.53,16.2,6.66,0,9.1-1.11,13.77-3.11h0Zm-122.63-.22v-23.3c-7.56,.88-12.22,1.11-17.99,1.11-8.89,0-12.89-3.78-12.89-12.67v-56.23h29.11v-22.86h-29.11v-36.21l-27.74,6.89v29.33h-21.11v22.86h21.11v58.67c0,22.21,11.54,35.52,34.85,35.52,8.22,0,15.99-1.11,23.77-3.1m-96.63,1.55v-77.09c0-23.98-14.43-41.29-39.08-41.29-13.34,0-27.12,5.55-34.01,17.76l-2-14.87h-23.31v115.49h27.75v-47.09c0-9.77-.22-21.76,3.78-30.87,3.78-8.46,10.22-14.68,20.01-14.68,14.67,0,19.12,8.22,19.12,21.77v70.87h27.75Zm-131.52,0V120.22h-27.75v61.08c0,9.33-1.78,19.77-8.45,25.99-3.33,3.35-7.78,5.79-14.23,5.79-14.67,0-20.01-8.44-20.01-21.99V120.22h-27.74v77.09c0,24.65,15.31,41.29,39.97,41.29,14.67,0,27.57-6.66,33.12-17.98l2,15.09h23.09Zm-129.74,16.02V120.22h-27.97v126.18c0,7.78-4.67,12.44-13.33,12.44-4.22,0-5.33-.44-13.55-1.33v23.52c5.11,1.33,9.11,2,12.67,2.44,3.55,.45,6.66,.45,9.77,.45,20.65,0,32.41-12.43,32.41-32.18m.67-176.62h-29.74v28.63h29.74v-28.63Zm-97.48,104.64h-44.88l22.44-66.43,22.44,66.43Zm49.09,55.95l-55.32-157.48h-31.32l-55.33,157.48h28.88l10.22-30.21h62.65l10.22,30.21h29.99Z"/></g><path d="M435.98,0c51.87,0,93.88,42.03,93.88,93.88l-.03,342.12c.03,51.8-41.98,93.83-93.85,93.83H93.86C42.03,529.86,.02,487.81,0,435.99L.02,93.88C.02,42.03,42.03,0,93.86,0H435.98Z"/><path class="d" d="M261.14,108.58c0-2.44,1.54-4.57,3.96-6.09,2.42,1.52,3.99,3.65,3.99,6.09s-1.57,4.5-3.99,6.06c-2.42-1.57-3.96-3.68-3.96-6.06m7.26,12.51c-2.06-1.17-3.18-3.62-3.3-6.44,2.52-1.38,5.12-1.61,7.27-.38,2.08,1.21,3.18,3.59,3.3,6.48-2.54,1.29-5.2,1.6-7.27,.34m-6.59,0c2.1-1.17,3.21-3.62,3.3-6.44-2.52-1.38-5.18-1.61-7.22-.38-2.1,1.21-3.2,3.59-3.32,6.48,2.54,1.29,5.17,1.6,7.24,.34m27.19-10.41c.52-2.39,2.44-4.17,5.18-5.14,2.01,1.98,2.99,4.44,2.52,6.77-.5,2.34-2.41,4.15-5.11,5.12-2.03-1.95-3.14-4.39-2.58-6.75m4.46,13.82c-1.8-1.66-2.38-4.24-1.88-7.07,2.78-.78,5.42-.47,7.18,1.13,1.75,1.65,2.37,4.24,1.82,7.02-2.71,.83-5.34,.46-7.13-1.08m-6.46-1.43c2.35-.73,3.91-2.81,4.58-5.64-2.17-1.83-4.72-2.6-6.96-1.94-2.39,.8-3.92,2.9-4.63,5.71,2.24,1.81,4.76,2.61,7.01,1.87m28.89-4.67c1.06-2.18,3.3-3.54,6.09-3.92,1.65,2.35,2.16,4.98,1.18,7.17-1,2.17-3.31,3.56-6.09,3.93-1.6-2.36-2.17-4.93-1.18-7.18m-4.46,11.78c2.44-.24,4.4-2.01,5.65-4.6-1.72-2.28-4.09-3.59-6.5-3.33-2.38,.29-4.35,2.04-5.56,4.59,1.75,2.28,4.07,3.5,6.42,3.34m-70.81-19.49c-.45-2.39-2.35-4.17-5.08-5.14-2.11,1.98-3.13,4.44-2.65,6.77,.52,2.34,2.45,4.15,5.15,5.12,2.06-1.95,3.1-4.39,2.58-6.75m-4.48,13.82c1.77-1.66,2.39-4.24,1.87-7.07-2.71-.78-5.38-.47-7.14,1.13-1.83,1.65-2.38,4.24-1.87,7.02,2.72,.83,5.35,.46,7.14-1.08m6.48-1.43c-2.35-.73-3.88-2.81-4.61-5.64,2.17-1.83,4.76-2.6,7.02-1.94,2.29,.8,3.88,2.9,4.53,5.71-2.15,1.81-4.66,2.61-6.94,1.87m-28.94-4.67c-.95-2.18-3.23-3.54-6.12-3.92-1.6,2.35-2.11,4.98-1.11,7.17,.99,2.17,3.19,3.56,6.06,3.93,1.63-2.36,2.16-4.93,1.17-7.18m4.5,11.78c-2.42-.24-4.38-2.01-5.67-4.6,1.73-2.28,4.06-3.59,6.46-3.33,2.41,.29,4.44,2.04,5.68,4.59-1.77,2.28-4.09,3.5-6.47,3.34m40.32-72.92c0-3.61,2.86-6.52,6.5-6.52s6.48,2.9,6.48,6.52-2.92,6.46-6.48,6.46-6.5-2.9-6.5-6.46m-40.42,80.75l5.35,8.07c12.1-5.6,26.47-9.33,41.44-9.33s29.45,3.73,41.55,9.33l5.34-8.07c-13.66-6.56-29.63-10.42-46.71-10.42s-33.18,3.78-46.97,10.42m8.58-50.54c-1.86-.54-3.75-.85-5.7-.85-8.57,0-15.39,5.2-15.39,11.49,0,2.99,1.54,5.74,3.97,7.84l-6.76,6.72c-4.24-3.79-6.81-8.9-6.81-14.5,0-11.7,11.15-21.13,24.99-21.13,3.52,0,6.97,.63,10.08,1.83,4.5-5.22,11.86-8.59,20.07-8.59,5.09,0,9.83,1.25,13.77,3.48,3.99-2.24,8.77-3.48,13.8-3.48,8.26,0,15.57,3.37,20.07,8.59,3.1-1.21,6.54-1.83,10.17-1.83,13.77,0,24.96,9.43,24.96,21.13,0,5.6-2.69,10.71-6.88,14.5l-6.72-6.72c2.45-2.1,3.98-4.85,3.98-7.84,0-6.3-6.89-11.49-15.34-11.49-2.04,0-3.91,.31-5.74,.85,.28,1.29,.41,2.58,.41,3.93,0,4.18-1.39,8.11-3.9,11.43l-6.89-6.92c.83-1.44,1.2-2.93,1.2-4.52,0-6.43-6.84-11.56-15.32-11.56-3.24,0-6.3,.81-8.79,2.09v13.87h-9.61v-13.61c-2.51-1.49-5.73-2.35-9.21-2.35-8.42,0-15.29,5.12-15.29,11.56,0,1.58,.45,3.07,1.21,4.52l-6.9,6.92c-2.5-3.32-3.86-7.26-3.86-11.43,0-1.35,.12-2.64,.45-3.93m32.07,385.4c0-3.39,2.8-6.16,6.2-6.16s6.18,2.78,6.18,6.16-2.73,6.22-6.18,6.22-6.2-2.73-6.2-6.22M92.19,306.4c0-3.48,2.82-6.18,6.2-6.18s6.23,2.71,6.23,6.18-2.79,6.21-6.23,6.21-6.2-2.83-6.2-6.21m333.04,0c0-3.48,2.76-6.18,6.19-6.18s6.24,2.71,6.24,6.18-2.85,6.21-6.24,6.21-6.19-2.83-6.19-6.21m-162.48-2.22h-30.5v-37.95h30.5v37.95Zm-30.5-105.36l30.5-30.41v82.56h-30.5v-52.15Zm-105.29,105.36l90.04-90.13v36.92h-36.81l-15.21,15.26h52.02v37.95H126.97Zm275.96,4.35l-105.26,105.34-30.52,30.42v-82.56h30.52v52.13l15.28-15.33v-36.8h36.78l15.28-15.24h-52.05v-37.97h89.98Zm-135.78,0h30.51v37.97h-30.51v-37.97Zm-19.69,120.55v-120.55h15.3v135.76l-15.3-15.21Zm-30.44-30.45v-90.1h15.25v105.31l-15.25-15.21Zm-30.51-30.51v-59.59h15.29v74.82l-15.29-15.23Zm-30.46-30.51v-29.08h15.27v44.29l-15.27-15.21Zm-29.07-29.08h13.84v13.87l-13.84-13.87Zm155.41-124.91v120.56h-15.24V168.41l15.24,15.21Zm30.51,30.5v90.06h-15.22v-105.28l15.22,15.22Zm30.51,30.51v59.55h-15.24v-74.82l15.24,15.27Zm30.46,30.49v29.06h-15.22v-44.35l15.22,15.29Zm29.07,29.06h-13.75v-13.83l13.75,13.83Zm14.64,2.15s-16.82,30.19-68.79,82.2c-52.73,52.67-83.88,70.39-83.88,70.39,0,0-30.17-16.78-82.16-68.84-52.75-52.68-70.46-83.76-70.46-83.76,0,0,16.87-30.19,68.86-82.19,52.71-52.66,83.76-70.36,83.76-70.36,0,0,30.26,16.72,82.22,68.76,52.68,52.69,70.45,83.8,70.45,83.8m-152.67,150.46l150.47-150.46-150.47-150.48L114.44,306.33l150.46,150.46Zm152.67-150.46s-16.82,30.19-68.79,82.2c-52.73,52.67-83.88,70.39-83.88,70.39,0,0-30.17-16.78-82.16-68.84-52.75-52.68-70.46-83.76-70.46-83.76,0,0,16.87-30.19,68.86-82.19,52.71-52.66,83.76-70.36,83.76-70.36,0,0,30.26,16.72,82.22,68.76,52.68,52.69,70.45,83.8,70.45,83.8m-152.67,150.46l150.47-150.46-150.47-150.48L114.44,306.33l150.46,150.46Z"/></g></g></g></svg>