<?xml version="1.0" encoding="UTF-8"?><svg xmlns="http://www.w3.org/2000/svg" viewBox="0 0 1613.57 557.82"><defs><style>.d{fill:#fff;}.d,.e{fill-rule:evenodd;}</style></defs><g id="a"/><g id="b"><g id="c"><g><g><path class="e" d="M278.91,0c153.69,0,278.9,125.22,278.9,278.91s-125.21,278.9-278.9,278.9S0,432.61,0,278.91,125.22,0,278.91,0Z"/><path class="d" d="M162.54,82.5c6.87,0,12.27,5.89,12.27,12.76s-5.4,12.28-12.27,12.28-12.76-5.41-12.76-12.28c-.01-6.87,5.89-12.76,12.76-12.76Zm8.83,85.43h216.54v9.33H171.37v-9.33Zm0-26.02h216.54v20.62H171.37v-20.62Zm211.16-32.41c6.87,0,12.76,5.41,12.76,12.28s-5.89,12.76-12.76,12.76-12.78-5.89-12.78-12.76,5.89-12.28,12.78-12.28Zm-29.47,0c6.87,0,12.76,5.41,12.76,12.28s-5.89,12.76-12.76,12.76-12.28-5.89-12.28-12.76,5.41-12.28,12.28-12.28Zm-28.97,0c6.87,0,12.28,5.41,12.28,12.28s-5.41,12.76-12.28,12.76-12.76-5.89-12.76-12.76c-.01-6.89,5.89-12.28,12.76-12.28Zm-29.47,0c6.87,0,12.76,5.41,12.76,12.28s-5.89,12.76-12.76,12.76-12.76-5.89-12.76-12.76,5.89-12.28,12.76-12.28h0Zm-29.45,0c6.87,0,12.76,5.41,12.76,12.28s-5.9,12.76-12.76,12.76-12.28-5.89-12.28-12.76,5.4-12.28,12.28-12.28Zm-28.97,0c6.87,0,12.28,5.41,12.28,12.28s-5.41,12.76-12.28,12.76c-7,.05-12.71-5.58-12.76-12.58,0-.06,0-.12,0-.18-.01-6.89,5.4-12.28,12.76-12.28Zm-29.47,0c6.87,0,12.28,5.41,12.28,12.28s-5.41,12.76-12.28,12.76-12.76-5.89-12.76-12.76c-.01-6.89,5.89-12.28,12.76-12.28Zm-29.47,0c6.87,0,12.76,5.41,12.76,12.28s-5.89,12.76-12.76,12.76-12.27-5.89-12.27-12.76,5.4-12.28,12.27-12.28Zm221.47-27c7.37,0,12.76,5.89,12.76,12.76s-5.41,12.28-12.76,12.28c-6.71,.06-12.2-5.32-12.27-12.03,0-.08,0-.17,0-.25-.01-6.87,5.38-12.76,12.27-12.76Zm-58.92,0c6.87,0,12.76,5.89,12.76,12.76s-5.89,12.28-12.76,12.28-12.76-5.41-12.76-12.28c.11-7,5.76-12.65,12.76-12.76Zm-58.93,0c6.87,0,12.27,5.89,12.27,12.76s-5.41,12.28-12.27,12.28-12.78-5.41-12.78-12.28,5.9-12.76,12.78-12.76Zm-59.41,0c6.87,0,12.76,5.89,12.76,12.76s-5.9,12.28-12.76,12.28c-6.72,.06-12.22-5.33-12.28-12.05,0-.08,0-.16,0-.23,0-6.87,5.41-12.76,12.28-12.76Zm-85.94,254.35l19.65-19.64v-122.76h36.34v86.42l23.07-22.58v-63.84h35.85v27.5l28.48-27.99,30.93,30.93v-30.44h36.34v66.78l22.58,22.58v-89.36h36.34v125.7l16.69,16.69-16.69,16.69v126.21h-36.34v-89.87l-22.58,22.58v67.29h-36.34v-30.93l-30.93,31.43-28.48-28.48v27.99h-35.85v-63.84l-23.07-23.07v86.91h-36.34v-123.25l-19.65-19.65h0Z"/><path class="e" d="M154.18,337.34l124.73-124.73,124.73,124.73-124.73,124.22-124.73-124.22h0Zm36.34,18.66l-16.71-17.68,16.71-18.17h71.2v-71.2l17.68-16.69,18.17,16.69v71.2h71.2l16.69,18.17-16.69,17.68h-71.2v71.2l-18.17,16.69-17.68-16.69v-71.2h-71.2Z"/></g><path class="e" d="M716.44,217.03h18.65c10.31,0,18.16-3.44,23.07-9.34,4.9-6.38,7.37-15.71,7.37-28.96s-2.45-23.07-7.37-29.47c-4.92-5.89-12.76-8.83-23.07-8.83h-18.65v76.6h0Zm-33.89,27.5V112.44h56.47c19.65,0,34.37,5.41,45.17,16.69,10.31,11.79,15.71,27.99,15.71,49.6s-5.4,38.3-16.2,49.6c-10.8,10.8-27.5,16.21-49.1,16.21h-52.05Zm138.48-106.56v-25.54h31.92v25.54h-31.92Zm0,106.55v-97.71h31.92v97.71h-31.92Zm57.44,39.29V146.81h32.41v13.26c3.44-5.41,7.37-9.34,12.28-11.79,5-2.62,10.56-3.97,16.2-3.93,12.28,0,22.59,4.9,29.96,14.24,7.85,9.34,11.78,21.61,11.78,36.83s-3.93,27.99-11.78,37.81c-7.86,9.82-17.18,14.73-29.47,14.73-6.38,0-11.79-1.48-17.18-3.93-4.87-2.82-9.06-6.68-12.27-11.3v51.07h-31.93Zm69.25-86.91c0-8.83-1.48-15.21-4.92-20.13-3.44-4.42-7.85-6.87-14.24-6.87-5.9,0-10.8,2.45-13.76,6.87-2.94,4.42-4.9,11.3-4.9,20.13,0,8.35,1.97,14.73,5.41,19.16,3.44,4.42,7.86,6.38,13.75,6.38s10.31-1.96,13.75-6.87c3.44-4.42,4.92-10.82,4.92-18.66h0Zm145.34-50.09v97.71h-31.43v-13.26c-3.44,5.41-7.85,9.34-12.76,11.79-4.9,2.94-10.31,3.93-16.69,3.93-10.8,0-19.16-2.45-24.55-8.34-5.41-5.41-7.86-13.76-7.86-24.56v-67.27h31.92v54.99c0,7.86,.99,13.26,2.96,16.2,1.96,3.44,5.41,4.92,10.31,4.92,5.89,0,9.82-1.96,12.27-5.89,2.45-3.44,3.93-9.34,3.93-17.68v-52.54h31.91Zm15.23,19.64v-19.64h12.78v-27.5h32.4v27.5h16.21v19.64h-16.21v42.23c0,6.39,.51,10.8,2.45,12.76,1.47,1.97,4.92,2.96,9.33,2.96h3.94v20.62c-2.97,.49-6.38,.99-9.83,1.48-2.94,0-6.38,.49-9.33,.49-10.82,0-18.68-2.94-22.61-8.34-3.93-5.41-6.38-16.71-6.38-34.37v-37.82h-12.75Zm134.54,32.4c-2.45,1.48-6.86,2.96-13.24,3.93-2.94,.99-4.92,1.48-6.86,1.48-3.45,1.47-6.38,2.45-7.87,4.41-1.47,1.48-2.45,3.93-2.45,6.87-.13,3.16,1.13,6.21,3.45,8.35,1.97,1.96,4.92,2.94,8.37,2.94,5.4,0,9.81-1.47,13.24-4.42,3.45-3.44,5.4-7.35,5.4-12.76v-10.8h-.03Zm34.89,45.67h-32.42c-.48-1.48-.48-2.96-.99-4.92-.48-1.47-.48-3.44-.96-4.9-4.44,4.41-8.85,7.86-14.27,9.82-4.89,2.45-10.31,3.44-16.69,3.44-9.33,0-16.69-2.96-22.09-7.86-5.4-5.41-8.34-12.28-8.34-21.11,0-7.86,1.95-14.73,6.38-19.65,4.41-4.9,10.79-8.83,19.64-10.8,4.92-.99,10.79-1.96,18.16-3.44,10.82-1.97,16.69-4.42,16.69-7.86v-2.45c0-2.96-1.47-4.92-3.42-6.39-1.97-1.47-5.42-1.96-9.35-1.96-4.41,0-8.34,.49-10.79,2.45-2.94,1.96-4.44,4.9-4.92,8.35h-29.45c1.47-11.3,5.9-19.16,13.24-24.55,7.85-5.41,18.66-8.35,32.42-8.35,8.85,0,16.19,.99,22.09,3.44,5.9,1.96,10.79,4.9,14.24,9.33,1.97,2.96,3.93,6.87,4.92,10.8,.99,4.42,1.47,11.3,1.47,20.62v36.83c0,4.42,0,7.85,.99,10.8,.99,2.45,1.97,3.93,3.45,4.9v3.46h.01Zm109.98-35.85c-1.47,12.28-6.38,21.61-14.75,28.97-8.34,6.87-19.16,10.31-32.9,10.31-14.72,0-26.02-4.92-35.34-14.24-8.85-9.33-13.27-21.61-13.27-36.83,0-16.69,4.44-29.45,13.76-39.27,8.85-9.34,21.13-14.24,36.83-14.24,13.24,0,24.06,3.44,32.4,10.31,7.85,6.39,12.76,15.71,13.76,27.99h-32.4c-.99-4.9-2.45-8.35-4.92-10.31-2.45-2.45-5.4-3.44-9.33-3.44-5.42,0-9.83,2.45-12.76,6.87-2.97,4.9-3.96,11.78-3.96,21.11,0,8.83,.99,15.71,3.96,20.13,2.45,4.42,6.86,6.38,12.26,6.38,4.44,0,7.85-.99,10.31-3.44,2.45-2.45,3.93-5.89,4.92-10.31h31.43Zm18.65-70.7v-25.54h31.92v25.54h-31.92Zm0,106.55v-97.71h31.92v97.71h-31.92Zm84.47-49.1c0,9.33,1.47,16.21,4.89,20.62,2.97,4.92,7.85,7.37,13.76,7.37,6.38,0,10.79-2.45,14.24-7.37,3.45-4.9,4.92-11.3,4.92-20.62,0-8.35-1.47-15.23-4.92-20.13s-7.85-7.37-14.24-7.37c-5.9,0-10.79,2.45-13.76,7.37-3.42,4.9-4.89,11.3-4.89,20.13Zm-32.9,0c0-16.2,4.41-28.97,13.76-38.3,9.33-9.33,21.58-13.75,37.79-13.75s28.97,4.42,38.3,13.75,13.76,22.1,13.76,38.3-4.44,29.45-13.76,38.79c-9.33,9.33-22.09,13.75-38.3,13.75s-28.97-4.42-37.79-13.75c-9.35-9.33-13.76-22.1-13.76-38.79Zm79.06-93.29l-28.97,32.9h-13.76l17.2-32.9h25.54ZM714.95,371.71h27.02c5.9,0,10.31-.99,12.78-3.45,2.94-1.95,4.41-4.9,4.41-9.33,0-3.93-1.48-7.37-3.93-9.33-2.45-1.97-6.38-2.96-11.78-2.96h-28.48v25.06h-.01Zm0,54.51h25.54c7.86,0,13.76-1.48,17.18-3.45,2.96-2.45,4.42-6.38,4.42-11.3s-1.47-8.85-4.42-11.28c-2.94-1.96-7.85-3.45-13.75-3.45h-28.97v29.48h0Zm-32.4,26.02v-132.58h64.32c15.23,0,26.52,2.94,33.88,8.35,7.37,5.9,11.3,14.24,11.3,26.02,0,6.87-1.96,12.76-4.9,17.18-3.44,4.92-8.35,8.35-15.23,10.8,7.86,1.96,13.75,5.9,17.68,10.8,3.93,5.41,5.9,11.3,5.9,19.16,0,7.37-1.48,14.25-4.9,20.14-3.32,5.86-8.27,10.64-14.24,13.75-3.93,2.45-9.33,3.93-15.23,4.92-5.41,.97-14.73,1.47-27.02,1.47h-51.55Zm190.53-46.17c-2.45,1.96-6.87,2.94-12.76,4.42-2.32,.33-4.62,.82-6.87,1.47-3.93,.99-6.87,2.45-8.35,4.42-1.6,1.74-2.47,4.02-2.45,6.38,0,3.93,1.48,6.38,3.44,8.85,1.96,1.96,4.92,2.94,8.35,2.94,5.4,0,10.31-1.47,13.75-4.9,3.44-2.96,4.9-6.87,4.9-12.27v-11.31h0Zm35.36,46.16h-32.9c0-1.47-.49-2.94-.99-4.92,0-1.47-.49-3.44-.49-4.9-4.42,4.42-9.33,7.85-14.24,9.82-5.4,1.96-10.8,3.45-16.69,3.45-9.33,0-17.18-2.96-22.59-7.86-5.41-5.4-8.35-12.27-8.35-21.11,0-8.35,2.45-14.73,6.87-19.64,3.93-5.41,10.31-8.85,19.16-10.8,4.92-.99,10.8-2.45,18.17-3.45,11.3-1.96,16.69-4.42,16.69-7.85v-2.45c0-2.96-.99-4.92-2.94-6.38-2.45-1.47-5.41-2.45-9.82-2.45s-7.85,.99-10.8,2.96c-2.45,1.96-4.42,4.42-4.9,8.35h-29.47c1.48-11.3,5.9-19.16,13.76-24.56,7.35-5.4,18.16-8.35,32.41-8.35,8.35,0,15.71,.99,21.61,3.45,6.39,1.96,10.8,4.9,14.24,9.33,2.45,2.96,3.93,6.87,4.9,10.8,.99,4.42,1.48,11.3,1.48,20.63v36.82c0,4.42,.49,7.85,.99,10.31,.62,2.21,2.02,4.13,3.93,5.41v3.4h-.01Zm19.14,0v-97.71h30.93v17.18c3.44-6.87,7.37-11.78,12.78-14.73,4.9-2.96,11.3-4.92,19.16-4.92v31.92c-1.48-.49-2.45-.49-3.93-.49h-3.93c-4.92,0-8.85,.49-12.28,1.97-3.01,1.61-5.54,3.98-7.37,6.86-1.47,1.96-1.96,4.92-2.94,8.85-.49,3.45-.49,9.83-.49,18.17v32.89h-31.92Zm170.89-36.33c-1.48,12.76-6.38,22.1-14.73,28.96-8.35,7.37-19.16,10.82-32.9,10.82s-26.02-4.92-34.86-14.25c-8.83-9.33-13.75-21.59-13.75-36.82,0-16.69,4.92-29.47,13.75-39.29,8.85-9.34,21.11-14.24,36.82-14.24,13.26,0,24.06,3.44,32.41,10.31,7.85,6.38,12.76,15.72,13.75,27.99h-32.41c-.99-4.92-2.45-8.35-4.92-10.31-2.45-2.45-5.4-3.45-9.33-3.45-5.41,0-9.83,2.45-12.78,6.87-2.45,4.9-3.93,11.78-3.93,21.11,0,8.85,.99,15.72,3.93,20.14,2.94,4.41,6.87,6.38,12.28,6.38,4.42,0,7.85-.99,10.31-3.45s3.93-5.89,4.92-10.8h31.44v.03h0Zm45.17-23.07h36.33c0-6.38-1.95-11.28-4.92-14.73-3.42-3.44-7.85-5.4-13.24-5.4s-9.33,1.96-12.76,5.4c-2.96,3.45-4.93,8.35-5.41,14.73Zm34.86,28.96h30.45c-2.33,9.97-8.28,18.72-16.69,24.56-8.37,5.89-19.16,8.85-31.44,8.85-15.21,0-27.02-4.42-35.85-13.76-8.85-9.33-13.26-21.59-13.26-37.81s4.41-28.96,13.26-38.3c8.83-9.34,20.62-14.24,35.85-14.24s27.51,4.9,36.83,14.73c8.85,9.33,13.24,22.58,13.24,39.77v3.44c0,.49-.48,1.48-.48,1.97h-65.81c0,6.86,1.47,12.27,4.42,15.71,2.94,3.93,7.37,5.41,12.76,5.41,4.41,0,7.85-.49,10.79-2.45,2.62-2.07,4.66-4.78,5.91-7.87h0Zm51.07,30.45v-132.58h31.92v132.58h-31.92Zm84.45-49.1c0,9.34,1.97,16.21,4.92,20.63,3.45,4.9,8.34,7.35,14.24,7.35s10.79-2.45,14.24-7.35c3.45-4.92,4.92-11.79,4.92-20.63s-1.47-15.21-4.92-20.13-8.34-7.37-14.24-7.37c-6.38,0-10.79,2.45-14.24,7.37-2.93,4.41-4.92,11.28-4.92,20.13Zm-32.9,0c0-16.2,4.92-28.96,13.76-38.3,9.33-9.33,22.09-13.75,38.3-13.75s28.97,4.42,38.3,13.75c8.85,9.34,13.76,22.1,13.76,38.3s-4.92,29.45-13.76,38.79c-9.33,8.85-22.09,13.76-38.3,13.76s-28.97-4.42-38.3-13.76c-8.85-9.34-13.76-22.09-13.76-38.79Zm123.74,49.1v-97.71h30.93v13.26c3.45-4.92,7.87-9.34,12.28-11.79,5.51-2.67,11.56-4.01,17.68-3.93,11.3,0,19.64,2.96,24.55,8.85,5.4,5.41,7.85,14.73,7.85,27.99v63.34h-31.92v-49.1c0-11.28-.99-18.65-2.94-22.09-1.97-2.96-5.4-4.42-10.79-4.42s-9.35,1.47-12.28,5.4c-2.45,3.93-3.93,9.83-3.93,18.17v52.05h-31.43Zm173.35-46.16c-2.45,1.96-6.86,2.94-13.24,4.42-2.32,.39-4.61,.87-6.89,1.47-3.45,.99-6.38,2.45-7.85,4.42-1.59,1.74-2.47,4.02-2.45,6.38,0,3.93,.99,6.38,3.45,8.85,1.95,1.96,4.92,2.94,8.34,2.94,5.42,0,9.83-1.47,13.27-4.9,3.42-2.96,5.4-6.87,5.4-12.27v-11.31h-.03Zm35.36,46.16h-32.9c-.51-1.47-.51-2.94-.99-4.92,0-1.47-.48-3.44-.48-4.9-4.92,4.42-9.35,7.85-14.75,9.82-5.29,2.23-10.96,3.4-16.69,3.45-9.33,0-16.69-2.96-22.09-7.86-5.42-5.4-8.37-12.27-8.37-21.11,0-8.35,2.45-14.73,6.38-19.64,4.44-5.41,10.82-8.85,19.66-10.8,4.89-.99,10.79-2.45,18.16-3.45,11.3-1.96,16.69-4.42,16.69-7.85v-2.45c0-2.96-.99-4.92-3.45-6.38-1.95-1.47-4.92-2.45-9.33-2.45s-8.37,.99-10.82,2.96c-2.94,1.96-4.41,4.42-4.89,8.35h-29.48c1.49-11.3,5.9-19.16,13.76-24.56,7.37-5.4,18.18-8.35,31.92-8.35,8.85,0,16.21,.99,22.11,3.45,5.88,1.96,10.79,4.9,14.24,9.33,1.95,2.96,3.93,6.87,4.92,10.8,.96,4.42,1.47,11.3,1.47,20.63v36.82c0,4.42,0,7.85,.99,10.31,.96,2.96,1.95,4.42,3.93,5.41v3.4Z"/></g></g></g></svg>