<?xml version="1.0" encoding="UTF-8"?><svg xmlns="http://www.w3.org/2000/svg" viewBox="0 0 2322.3 250.18"><g id="a"/><g id="b"><g id="c"><g id="d"><g id="e"><path d="M1166.08,116.12c0-49.06-34.17-88.88-76.28-88.88s-76.3,39.82-76.3,88.88,34.14,88.87,76.3,88.87,76.28-39.79,76.28-88.87h0Zm-23.07-42.45c14.34,26.47,14.34,58.39,0,84.86V73.67Zm0,89.98c17.85-29.18,17.85-65.88,0-95.06v-5.97c10.42,14.39,16.73,33.12,16.73,53.53s-6.3,39.12-16.73,53.52v-6.02Zm-106.37-5c-14.47-26.53-14.47-58.57,0-85.1v85.1Zm0-90.13c-17.87,29.21-17.87,65.96,0,95.17v6.01c-10.46-14.4-16.8-33.14-16.8-53.59s6.33-39.19,16.8-53.61v6.01Zm30.06,125.46c-4.93-2.03-9.57-4.67-13.85-7.84v-4.24c4.23,3.38,8.89,6.2,13.85,8.38v3.71Zm0-6.61c-4.99-2.31-9.66-5.28-13.85-8.86V53.74c4.19-3.58,8.85-6.57,13.85-8.88V187.37Zm0-145.42c-4.96,2.19-9.62,5.02-13.85,8.41v-4.25c4.28-3.17,8.94-5.8,13.85-7.84v3.68Zm30.06,156.25c-2.31,.29-4.62,.41-6.94,.39-2.31,0-4.6-.13-6.9-.39v-3.36c2.28,.28,4.59,.41,6.9,.39,2.32-.01,4.64-.15,6.94-.39v3.36Zm0-6.14c-2.31,.31-4.62,.47-6.94,.47-2.31-.02-4.61-.17-6.9-.44V40.13c2.28-.28,4.59-.43,6.9-.41,2.32,0,4.64,.15,6.94,.41V192.06Zm0-154.59c-2.3-.28-4.61-.43-6.93-.43s-4.6,.15-6.9,.4v-3.36c2.28-.27,4.59-.4,6.9-.39,2.32,.01,4.64,.15,6.94,.39v3.38h-.01Zm30.06,148.67c-4.28,3.17-8.94,5.8-13.85,7.84v-3.71c4.96-2.19,9.61-5.02,13.85-8.39v4.25Zm0-7.66c-4.19,3.57-8.85,6.55-13.85,8.86V44.85c4.99,2.35,9.65,5.36,13.85,8.96v124.67Zm0-128.11c-4.23-3.38-8.89-6.2-13.85-8.4v-3.71c4.92,2.05,9.56,4.68,13.85,7.84v4.27Zm35.91,136.38c3.01-4.53,4.08-6.81,4.56-12.24l-.39-28.18h-.38c-2.47,8.52-5.78,17.86-10.47,24.73-1.37,1.99-1.59,2.49-2.37,3.66-1.94,2.72-2.94,6-2.84,9.34-1.69,.35-3.72-.09-5.72-.27,.41,1.99,.41,4.06,0,6.06-8.14,.3-9.72,5.23-18.52,9.83-3.54,1.93-7.22,3.56-11.03,4.89v.46c16.52-.55,23.79,2.13,33-3.97,.99,1.58,1.77,3.28,2.33,5.05,1.87-1.47,3.97-2.61,6.24-3.36,2.73,2.58,6.47,3.81,10.2,3.36,.62-3.36-.58-7.84-3.21-10.08,.5-2.24,2.36-4.32,3.58-6.12-1.77-.87-3.44-1.94-4.99-3.16h.03Zm-1.12-21.99c4.36-11.28,3.62-11.66,4.84-16.3-1.25,15.68-5.98,28.66-10.5,40.53-.52-.16-1.05-.24-1.59-.21-.58-.78-.97-1.69-1.12-2.65-2.44-7.61,4.9-12.54,8.33-21.36h.04Zm-14.79,20.75l5.02,4.15v.06c-.15,.09-.28,.2-.4,.32-.26,.22-.46,.49-.62,.79v.1c-1.24-.66-2.61-1.04-4.01-1.12,.38-1.41,.37-2.9-.03-4.31h.04Zm-28.81,18.82l6.39-2c10.13-3.64,13.77-11.2,21.39-10.73,1.51,.11,2.98,.54,4.31,1.24,0,.54,.08,1.06,.26,1.57h-.11c-6.4,3.85-20.33,8.18-32.28,9.92h.04Zm33.53-.32c-.3-.83-.45-2.63-1.59-3.93,1.09-.84,1.9-1.98,2.35-3.28h0c.48,.27,1.01,.44,1.56,.48h.07l-2.38,6.73Zm1.12-9.15c-.96-.97-.96-2.54,0-3.52,1-.94,2.54-.94,3.54,0,.96,.99,.96,2.56,0,3.55-.99,.97-2.58,.95-3.55-.03h.01Zm12.99,9.27c-3.12,.1-6.12-1.23-8.14-3.62-1.12-1.3-1.05-1.72-1.49-3.46,.71-.27,1.32-.73,1.8-1.31l7.83,8.39h0Zm-6.86-11.49l-.08,.07c-.02-.46-.13-.9-.34-1.31v-.1c1.27-.69,2.3-1.74,2.99-3,0,0,.2-.2,.21-.2h0c1.16,.95,2.5,1.67,3.93,2.13-1.09,.55-6.73,2.42-6.73,2.42h.01Zm-124.28-2.78c-.41-1.99-.41-4.05,0-6.05-1.96,.16-3.97,.6-5.72,.26,.12-3.35-.88-6.63-2.84-9.34-.75-1.19-1-1.67-2.35-3.65-4.69-6.9-7.97-16.22-10.46-24.73h-.39l-.39,28.16c.48,5.48,1.55,7.73,4.56,12.32-1.52,1.18-3.16,2.18-4.9,2.99,1.21,1.83,3.03,3.93,3.55,6.16-2.63,2.24-3.81,6.77-3.2,10.08,3.73,.44,7.46-.79,10.19-3.36,2.25,.76,4.36,1.9,6.24,3.36,.58-1.77,1.38-3.46,2.35-5.05,9.18,6.15,16.46,3.45,32.97,4v-.48c-3.81-1.34-7.49-2.99-11.04-4.9-8.87-4.51-10.4-9.46-18.55-9.75h0Zm-6.72-.2l5.03-4.14c-.39,1.39-.39,2.86,0,4.24-1.42,.07-2.8,.46-4.05,1.12v-.1c-.16-.29-.36-.56-.59-.79-.11-.13-.26-.25-.43-.32h.04Zm-14.54-41.2c1.24,4.65,.49,5.03,4.84,16.3,3.42,8.82,10.76,13.72,8.42,21.39-.16,.96-.54,1.88-1.12,2.66-.53-.02-1.06,.04-1.57,.2-4.69-11.89-9.39-24.86-10.65-40.55h.08Zm.91,41.88c1.42-.49,2.74-1.22,3.92-2.15h0l.21,.2c.67,1.29,1.71,2.33,3,3v.1c-.19,.41-.3,.87-.32,1.33l-.07-.09c-.11-.09-5.8-1.96-6.82-2.4h.08Zm7.97,10.18c-2.02,2.4-5.02,3.73-8.14,3.62l7.84-8.39c.47,.59,1.09,1.04,1.79,1.31-.49,1.72-.43,2.18-1.57,3.46h.08Zm1.31-5.6c-.99-.97-.99-2.55-.02-3.53l.02-.02c.99-.95,2.55-.95,3.54,0,.99,.97,.99,2.55,.02,3.53-.97,.99-2.55,.99-3.54,.02h-.02Zm4.71,9.1l-2.45-6.72h.07c.55-.07,1.07-.22,1.57-.48h.06c.43,1.31,1.24,2.45,2.34,3.28-1.2,1.28-1.37,3.11-1.66,3.91h.08Zm33.52,.35c-11.95-1.71-25.88-6.07-32.25-9.92h-.1c.17-.5,.26-1.03,.26-1.57,1.34-.71,2.81-1.13,4.32-1.24,7.61-.43,11.2,7.09,21.37,10.73l6.39,2Zm83.47-161.58c.43,1.99,.43,4.04,0,6.04,1.89-.32,3.82-.4,5.73-.26-.08,3.34,.91,6.62,2.83,9.35,.77,1.12,1.01,1.67,2.38,3.64,4.69,6.93,7.99,16.25,10.46,24.72h.38l.39-28.18c-.48-5.45-1.55-7.7-4.56-12.24,1.53-1.18,3.18-2.18,4.94-2.99-1.21-1.81-3.06-3.96-3.58-6.17,2.63-2.24,3.82-6.72,3.22-10.08-3.73-.48-7.48,.76-10.2,3.36-2.26-.77-4.39-1.94-6.27-3.42-.57,1.78-1.35,3.48-2.33,5.07-9.19-6.19-16.48-3.5-33-4.03v.47c3.81,1.34,7.49,2.99,11.03,4.93,8.77,4.49,10.33,9.49,18.49,9.77h.08Zm6.72,.2l-5,4.17c.39-1.39,.39-2.87,0-4.25,1.41-.1,2.78-.5,4.01-1.19v.09c.16,.3,.37,.57,.62,.81,.11,.13,.25,.24,.4,.31l-.02,.07Zm14.61,41.19c-1.23-4.65-.47-5.04-4.84-16.27-3.36-8.82-10.77-13.74-8.42-21.42,.15-.95,.53-1.85,1.12-2.6,.55,0,1.09-.09,1.6-.26,4.49,11.88,9.19,24.83,10.47,40.53h.07Zm-.9-41.8c-1.43,.47-2.77,1.21-3.93,2.16h0s-.22-.2-.2-.21c-.71-1.24-1.76-2.26-3.03-2.91v-.09c.2-.41,.32-.87,.34-1.33l.08,.1s5.61,1.81,6.68,2.27h.07Zm-7.99-10.25c2.04-2.35,5.03-3.67,8.14-3.59l-7.84,8.43c-.46-.6-1.09-1.05-1.8-1.3,.38-1.78,.3-2.21,1.43-3.55h.07Zm-1.3,5.71c.96,.97,.96,2.55,0,3.53-1,.94-2.54,.94-3.54,0-.95-.99-.95-2.55,0-3.54,.96-.92,2.47-.92,3.43,0h.11Zm-4.7-9.13l2.44,6.72h0c-.55,.08-1.09,.25-1.57,.53h0c-.44-1.3-1.25-2.44-2.35-3.26,.94-1.3,1.11-3.19,1.41-4h.07Zm-33.53-.3c11.95,1.71,25.88,6.08,32.24,9.95h.1c-.17,.5-.26,1.03-.27,1.57-1.33,.69-2.79,1.11-4.29,1.22-7.64,.41-11.28-7.12-21.4-10.75l-6.38-1.99Zm-101.19,17.5c-3.01,4.48-4.08,6.72-4.56,12.23l.39,28.19h.39c2.49-8.49,5.78-17.85,10.46-24.72,1.35-1.96,1.6-2.47,2.35-3.64,1.96-2.72,2.96-6.01,2.84-9.36,1.91-.15,3.83-.06,5.72,.27-.41-1.99-.41-4.06,0-6.06,8.15-.3,9.7-5.27,18.49-9.83,3.55-1.91,7.23-3.56,11.03-4.92v-.46c-16.52,.54-23.77-2.14-32.96,4.03-.99-1.59-1.77-3.29-2.35-5.07-1.87,1.48-3.99,2.64-6.25,3.42-2.71-2.6-6.45-3.83-10.18-3.36-.6,3.36,.58,7.84,3.19,10.08-.5,2.24-2.33,4.38-3.55,6.16,1.78,.81,3.45,1.84,4.98,3.05Zm1.12,22c-4.34,11.2-3.58,11.62-4.84,16.27,1.25-15.68,5.96-28.65,10.5-40.54,.5,.16,1.03,.25,1.57,.26,.59,.75,.97,1.65,1.12,2.6,2.41,7.69-4.92,12.62-8.34,21.44v-.02h-.01Zm14.79-20.78l-5.03-4.17h0c.15-.1,.29-.2,.43-.32,.24-.25,.44-.52,.59-.82v-.09c1.25,.68,2.63,1.09,4.05,1.19-.4,1.38-.41,2.84-.03,4.23v-.02h-.01Zm28.79-18.82l-6.38,1.99c-10.14,3.64-13.75,11.2-21.39,10.75-1.51-.11-2.98-.53-4.32-1.22,0-.54-.08-1.07-.26-1.58h.1c6.38-3.84,20.31-8.21,32.26-9.92v-.02h-.01Zm-33.53,.32c.29,.82,.46,2.66,1.58,3.93-1.1,.83-1.91,1.97-2.34,3.27h-.06c-.48-.28-1.02-.46-1.57-.52h-.07l2.45-6.68Zm-1.2,9.15c.96,.99,.96,2.55,0,3.54-.99,.94-2.55,.94-3.54,0-.97-.97-.97-2.54,0-3.52h0c.93-.99,2.49-1.02,3.47-.08,.03,.02,.06,.06,.08,.08v-.02h-.01Zm-12.85-9.24c3.11-.09,6.1,1.22,8.14,3.57,1.12,1.34,1.05,1.76,1.48,3.53-.71,.27-1.33,.72-1.8,1.31l-7.82-8.41Zm6.85,11.52l.07-.08c.03,.45,.15,.9,.32,1.31v.13c-1.28,.67-2.32,1.71-2.99,2.98l-.2,.22h0c-1.15-.97-2.49-1.7-3.92-2.16,.99-.55,6.67-2.41,6.67-2.41h.04Zm257.89,37.96v33.95h-4.59l-.86-12.16h-.16c-2,4.39-5.37,8.03-9.6,10.36-4.18,2.16-8.83,3.26-13.54,3.19-7-.09-12.84-1.77-17.51-4.96-4.62-3.17-8.26-7.57-10.51-12.7-4.62-10.94-4.62-23.3,0-34.24,2.24-5.15,5.88-9.55,10.51-12.72,4.67-3.19,10.51-4.84,17.51-4.94,6.55-.17,12.98,1.79,18.31,5.6,5.05,3.73,8.23,9.23,9.6,16.54h-6.37c-.38-2.8-1.46-5.45-3.12-7.74-1.93-2.64-4.43-4.81-7.32-6.34-3.43-1.78-7.23-2.7-11.1-2.65-5.86,.12-10.67,1.56-14.38,4.39-3.69,2.8-6.53,6.58-8.2,10.91-3.46,9.07-3.46,19.11,0,28.18,1.67,4.32,4.51,8.1,8.2,10.89,3.73,2.84,8.52,4.29,14.38,4.38,7.47-.15,13.22-2.45,17.21-6.96,3.99-4.51,6.02-10.37,5.93-17.56h-22.75v-5.42h28.36Zm51.82,11.4c.2-4.43-.43-8.87-1.84-13.07-1.28-3.95-3.66-7.46-6.89-10.08-3.16-2.61-7.33-3.96-12.5-4s-9.25,1.31-12.47,3.8c-3.19,2.42-5.64,5.69-7.08,9.44-1.52,3.91-2.28,8.07-2.24,12.26-.08,4.34,.68,8.67,2.24,12.72,1.39,3.71,3.85,6.92,7.08,9.23,3.22,2.33,7.35,3.52,12.47,3.58,6.04,0,10.73-1.55,14.12-4.48s5.7-7.28,6.91-12.78h-5.86c-.75,3.4-2.52,6.51-5.08,8.87-2.44,2.24-5.82,3.36-10.08,3.45-3.3,.1-6.54-.97-9.14-3.02-2.33-1.91-4.11-4.41-5.15-7.23-1.05-2.8-1.6-5.76-1.61-8.74l37.1,.08v-.02h.01Zm-37.11-4.96c.28-2.92,1.09-5.77,2.4-8.39,1.22-2.51,3.05-4.68,5.31-6.33,4.95-3.33,11.43-3.33,16.38,0,2.25,1.61,4.04,3.78,5.2,6.3,1.22,2.64,1.9,5.51,2.02,8.42h-31.3Zm44.91,27.49V63.57h5.96v8.33h.15c1.15-2.93,3.26-5.4,5.97-7,2.82-1.79,6.1-2.72,9.45-2.7,6.72,0,11.35,1.69,13.96,4.96s3.85,7.84,3.75,13.64v31.07h-5.88v-30.12c.27-3.66-.63-7.31-2.55-10.44-1.79-2.68-5.02-4.06-9.72-4.15-4.69,.1-8.38,1.67-11.01,4.73-2.73,3.31-4.2,7.5-4.13,11.8v28.18h-5.95Zm90.94-22.54c.19-4.43-.44-8.86-1.84-13.07-1.31-3.94-3.69-7.43-6.89-10.08-3.16-2.61-7.33-3.96-12.53-4s-9.25,1.31-12.47,3.8c-3.19,2.43-5.64,5.7-7.08,9.44-1.51,3.91-2.27,8.07-2.24,12.26-.07,4.34,.69,8.66,2.24,12.72,1.4,3.71,3.86,6.92,7.08,9.23,3.22,2.33,7.35,3.52,12.47,3.58,6.07,0,10.76-1.55,14.15-4.48s5.7-7.28,6.91-12.78h-5.86c-.75,3.4-2.52,6.49-5.07,8.87-2.44,2.24-5.8,3.36-10.08,3.45-3.3,.1-6.54-.97-9.14-3.02-2.34-1.9-4.11-4.4-5.13-7.23-1.06-2.8-1.62-5.76-1.67-8.74l37.16,.08-.03-.02h0Zm-37.16-4.96c.29-2.92,1.1-5.76,2.4-8.39,1.24-2.51,3.07-4.68,5.33-6.33,4.95-3.33,11.42-3.33,16.37,0,2.25,1.61,4.04,3.78,5.21,6.3,1.22,2.64,1.89,5.51,1.97,8.42h-31.27Zm45.11,27.48V63.62h5.41v11.3h.19c1.34-3.66,3.78-6.81,7-9.02,3.34-2.16,7.29-3.2,11.26-2.94v5.91c-5.41-.15-9.74,1.37-12.99,4.67-3.27,3.36-5.06,7.89-4.97,12.59v25.75h-5.9Zm60.38-18.68c-.1,4.75-1.75,8.43-5,11.08-3.36,2.69-7.54,4.11-11.84,4.03-2.71,.02-5.34-.88-7.46-2.56-2.15-1.69-3.39-4.28-3.36-7.01-.09-2.73,1.29-5.3,3.62-6.72,2.64-1.5,5.55-2.47,8.58-2.86,3.36-.55,6.85-1.06,10.29-1.59,.95-.13,1.89-.36,2.8-.66,.87-.22,1.63-.75,2.15-1.49h.18v7.73l.04,.04h0Zm-25.54-14.79c.16-3.93,1.43-6.79,3.78-8.57,2.66-1.89,5.88-2.83,9.14-2.68,3.11-.2,6.21,.48,8.96,1.98,2.4,1.39,3.61,4.02,3.71,7.93,0,2.58-.65,4.27-1.97,5.07-1.72,.93-3.64,1.43-5.6,1.48-4.3,.44-8.46,.96-12.32,1.69-3.52,.54-6.84,1.95-9.66,4.12-2.53,2.02-3.83,5.27-3.9,9.72,.1,4.84,1.69,8.4,4.74,10.67,3.33,2.35,7.35,3.54,11.42,3.36,4.55,0,8.12-.91,10.73-2.54,2.8-1.88,5.15-4.37,6.87-7.27h.2c-.19,2.1,.22,4.22,1.21,6.09,.88,1.52,2.79,2.24,5.7,2.32,.67,0,1.34-.03,2.02-.12,.62-.04,1.23-.15,1.83-.29v-4.88c-.28,.11-.57,.2-.86,.27-.32,.08-.65,.11-.97,.12-.96,.08-1.93-.26-2.63-.92-.59-.76-.88-1.71-.83-2.68v-25.54c-.09-4.27-.99-7.52-2.75-9.74-1.69-2.21-4.04-3.82-6.72-4.59-2.71-.82-5.54-1.2-8.38-1.12-5.6,0-10.19,1.21-13.7,3.85s-5.49,6.72-5.84,12.32h5.9l-.06-.06Zm43.25-33.28h5.88V111.87h-5.91l.03-66.74Zm17.23,66.74h5.91V63.61h-5.91v48.26Zm0-57.31h5.91v-9.43h-5.91v9.43Zm26.49-5.4v14.49h9.83v4.94h-9.83v32.55c-.12,1.55,.17,3.08,.83,4.48,.6,1.12,1.9,1.72,3.96,1.88,1.67,0,3.36-.12,5.04-.29v5.03c-.9,0-1.77,0-2.62,.09s-1.72,.1-2.63,.1c-3.86,.08-6.62-.73-8.21-2.34s-2.35-4.48-2.24-8.49v-33.06h-8.46v-4.95h8.44v-14.42h5.89Zm49.13,44.07c.11,4.27-1.74,8.35-5.02,11.08-3.36,2.69-7.55,4.12-11.85,4.03-2.7,.01-5.33-.88-7.45-2.56-2.15-1.69-3.39-4.28-3.36-7.01-.1-2.73,1.29-5.31,3.63-6.72,2.64-1.5,5.54-2.47,8.55-2.86,3.43-.55,6.83-1.06,10.29-1.59,.95-.13,1.89-.36,2.8-.66,.87-.21,1.63-.75,2.14-1.49h.19v7.73l.07,.04h0Zm-25.54-14.79c.16-3.93,1.42-6.79,3.8-8.57,2.66-1.89,5.88-2.83,9.14-2.68,3.09-.2,6.18,.49,8.89,1.98,2.42,1.39,3.66,4.02,3.73,7.93,0,2.58-.65,4.27-1.96,5.07-1.72,.93-3.64,1.43-5.6,1.48-4.31,.44-8.45,.96-12.38,1.69-3.52,.55-6.83,1.96-9.65,4.12-2.51,2.03-3.78,5.3-3.86,9.73,.1,4.84,1.68,8.41,4.75,10.67,3.34,2.35,7.36,3.54,11.43,3.36,4.55,0,8.1-.88,10.72-2.54,2.8-1.89,5.14-4.37,6.87-7.27h.21c-.19,2.1,.22,4.23,1.21,6.1,.91,1.51,2.79,2.24,5.7,2.31,.77,0,1.44,0,2.03-.1,.62-.06,1.22-.16,1.81-.31v-4.89c-.29,.1-.58,.19-.87,.27-.35,.08-.69,.11-1.04,.12-.95,.07-1.89-.27-2.59-.92-.6-.75-.91-1.71-.84-2.68v-25.58c-.07-4.27-.95-7.52-2.72-9.74-1.69-2.21-4.04-3.82-6.72-4.59-2.72-.82-5.55-1.2-8.39-1.12-5.6,0-10.19,1.21-13.7,3.85s-5.49,6.72-5.84,12.32h5.89Zm52.55-29.3v14.49h9.82v4.94h-9.82v32.55c-.15,1.53,.13,3.09,.79,4.48,.59,1.12,1.94,1.72,3.96,1.88,1.68-.01,3.37-.11,5.04-.29v5.03c-.87,0-1.75,0-2.61,.09s-1.72,.1-2.61,.1c-3.9,.08-6.64-.73-8.22-2.34s-2.36-4.48-2.24-8.49v-33.06h-8.45v-4.95h8.41v-14.42h5.92Zm48.15,38.62c-.02-3.33,.53-6.63,1.62-9.77,.99-2.98,2.75-5.63,5.13-7.68,2.56-2.09,5.8-3.18,9.11-3.08,3.57-.11,7.08,.97,9.97,3.08,2.49,1.99,4.33,4.66,5.34,7.68,2.15,6.35,2.15,13.21,0,19.56-1.01,3.01-2.87,5.67-5.34,7.66-2.88,2.14-6.38,3.24-9.97,3.11-3.31,.08-6.55-1.02-9.11-3.11-2.35-2.06-4.12-4.7-5.13-7.66-1.1-3.15-1.66-6.45-1.62-9.79Zm38.66-42.62h-5.91v27.66h-.17c-1.24-3.3-3.59-6.08-6.65-7.84-3.05-1.8-6.54-2.73-10.08-2.7-4.33-.15-8.61,1.11-12.17,3.58-3.21,2.34-5.71,5.53-7.19,9.23-3.12,8.18-3.12,17.22,0,25.41,3.03,7.98,10.83,13.15,19.36,12.83,3.63-.06,7.18-1.06,10.29-2.92,3.06-1.74,5.49-4.4,6.94-7.61h.16v9.07h5.45V45.13l-.03,.06v-.03Zm51.77,44.21c.22-4.43-.39-8.87-1.83-13.07-1.28-3.95-3.66-7.46-6.89-10.08-3.16-2.61-7.33-3.96-12.48-4s-9.26,1.31-12.47,3.8c-3.19,2.43-5.64,5.7-7.09,9.44-1.52,3.91-2.28,8.07-2.24,12.26-.08,4.34,.68,8.67,2.24,12.72,1.4,3.71,3.86,6.92,7.09,9.23,3.22,2.33,7.38,3.53,12.47,3.58,6.04,0,10.75-1.55,14.12-4.48s5.68-7.28,6.91-12.78h-5.89c-.73,3.4-2.49,6.49-5.04,8.87-2.46,2.24-5.83,3.36-10.08,3.45-3.31,.09-6.55-.97-9.15-3.02-2.32-1.91-4.1-4.41-5.13-7.23-1.06-2.8-1.62-5.76-1.65-8.74l37.12,.08-.02-.02h0Zm-37.14-4.96c.3-2.91,1.11-5.76,2.4-8.39,1.24-2.51,3.07-4.68,5.33-6.33,4.95-3.33,11.41-3.33,16.36,0,2.25,1.61,4.05,3.78,5.2,6.3,1.22,2.64,1.89,5.51,1.97,8.42h-31.25Zm127.45-19.06h-6.32c-.96-4.74-3.59-8.98-7.42-11.94-3.77-2.81-8.38-4.3-13.08-4.24-5.87,.12-10.64,1.55-14.35,4.37-3.71,2.8-6.55,6.57-8.21,10.91-3.48,9.08-3.48,19.11,0,28.19,1.66,4.33,4.5,8.11,8.21,10.88,3.69,2.86,8.49,4.3,14.35,4.39,6.23-.15,11.2-2.24,14.9-6.26,3.8-4.2,6.09-9.54,6.55-15.18h6.36c-.99,8.32-3.87,14.8-8.69,19.58s-11.25,7.18-19.12,7.27c-6.99-.09-12.88-1.77-17.51-4.96-4.62-3.17-8.27-7.57-10.53-12.7-4.65-10.94-4.65-23.3,0-34.24,2.25-5.14,5.9-9.55,10.53-12.72,4.64-3.19,10.51-4.85,17.51-4.94,4.2,0,8.34,.85,12.2,2.5,3.8,1.59,7.14,4.09,9.75,7.28,2.71,3.4,4.39,7.5,4.86,11.82h0Zm40.58,27.88c-.12,4.75-1.79,8.43-5.04,11.08-3.35,2.69-7.54,4.11-11.84,4.03-2.71,.02-5.34-.88-7.46-2.56-2.16-1.68-3.4-4.28-3.36-7.01-.11-2.73,1.27-5.3,3.59-6.72,2.65-1.51,5.58-2.49,8.61-2.86,3.36-.55,6.81-1.06,10.25-1.59,.95-.13,1.89-.36,2.8-.66,.87-.21,1.65-.74,2.15-1.49h.22v7.73l.07,.04h0Zm-25.57-14.79c.18-3.93,1.44-6.79,3.81-8.57,2.65-1.89,5.87-2.83,9.13-2.68,3.11-.2,6.21,.49,8.96,1.98,2.35,1.39,3.62,4.02,3.71,7.93,0,2.58-.65,4.27-1.98,5.07-1.72,.93-3.64,1.43-5.6,1.48-4.31,.44-8.46,.96-12.39,1.69-3.53,.52-6.85,1.91-9.69,4.08-2.54,2.03-3.83,5.3-3.92,9.73,.12,4.84,1.68,8.41,4.77,10.67,3.33,2.35,7.33,3.54,11.4,3.36,4.56,0,8.12-.88,10.7-2.54,2.81-1.88,5.16-4.37,6.9-7.27h.19c-.17,2.1,.25,4.21,1.2,6.1,.94,1.51,2.82,2.24,5.74,2.31,.67,0,1.34-.03,2.02-.1,.62-.06,1.23-.16,1.84-.31v-4.89c-.29,.11-.58,.2-.88,.27-.32,.08-.65,.11-.99,.12-.96,.07-1.9-.26-2.61-.92-.63-.75-.93-1.7-.86-2.68v-25.58c-.07-4.27-1-7.52-2.72-9.74-1.7-2.21-4.05-3.81-6.72-4.59-2.71-.81-5.53-1.19-8.35-1.12-5.6,0-10.18,1.21-13.73,3.85s-5.45,6.72-5.8,12.32h5.83v-.06l.06,.09h0Zm52.49-29.32v14.49h9.85v4.94h-9.85v32.55c-.13,1.55,.17,3.09,.85,4.48,.62,1.12,1.91,1.72,3.96,1.88,1.7-.01,3.39-.11,5.08-.29v5.03c-.9,0-1.77,0-2.63,.09s-1.74,.1-2.63,.1c-3.89,.08-6.62-.73-8.21-2.34s-2.34-4.48-2.24-8.49v-33.06h-8.42v-4.95h8.42v-14.42h5.81Zm49.18,44.07c.16,4.28-1.71,8.39-5.04,11.08-3.35,2.69-7.54,4.11-11.84,4.03-2.71,.01-5.33-.88-7.46-2.56-2.14-1.69-3.38-4.28-3.36-7.01-.1-2.72,1.28-5.3,3.59-6.72,2.65-1.5,5.56-2.47,8.59-2.86,3.36-.55,6.87-1.06,10.28-1.59,.94-.13,1.87-.36,2.78-.66,.87-.21,1.63-.74,2.14-1.49h.19v7.7h.09l.03,.07Zm-25.57-14.79c.2-3.93,1.47-6.79,3.83-8.57,2.64-1.89,5.86-2.83,9.1-2.68,3.11-.2,6.21,.49,8.96,1.98,2.38,1.39,3.62,4.02,3.71,7.93,0,2.58-.65,4.27-1.98,5.07-1.72,.93-3.64,1.43-5.6,1.48-4.33,.44-8.45,.96-12.37,1.69-3.52,.54-6.84,1.96-9.66,4.12-2.54,2.03-3.83,5.3-3.89,9.73,.09,4.84,1.67,8.41,4.75,10.67,3.33,2.35,7.35,3.54,11.42,3.36,4.48,0,8.1-.88,10.7-2.54,2.8-1.88,5.15-4.37,6.87-7.27h.21c-.17,2.1,.25,4.22,1.2,6.1,.9,1.51,2.77,2.24,5.72,2.31,.78,0,1.44,0,2.04-.1,.6-.06,1.21-.16,1.8-.31v-4.89c-.28,.11-.57,.2-.87,.27-.34,.08-.68,.11-1.03,.12-.95,.07-1.9-.26-2.6-.92-.62-.75-.93-1.7-.87-2.68v-25.58c-.06-4.27-.93-7.52-2.73-9.74-1.68-2.19-4.01-3.81-6.65-4.59-2.73-.81-5.56-1.19-8.41-1.12-5.6,0-10.16,1.21-13.7,3.85s-5.48,6.72-5.84,12.32h5.93v-.06l-.03,.04h0Zm43.29-33.28h5.88V111.83h-5.88V45.13Zm56.34,18.49v48.21h-5.43v-8.71h-.21c-1.47,3.11-3.82,5.72-6.77,7.49-3,1.75-6.4,2.64-9.88,2.62-6.05-.08-10.39-1.71-13.04-4.94s-3.97-7.71-3.92-13.36v-31.35h5.84v31.45c.09,4.36,1.12,7.67,3.06,9.91s5.28,3.36,9.91,3.36c2.99,.08,5.91-.93,8.22-2.83,2.21-1.9,3.84-4.38,4.74-7.14,1.05-3.01,1.57-6.19,1.52-9.38v-25.38h5.97v.06h0Zm10.94,48.26V63.53h5.9v8.33h.18c1.16-2.93,3.26-5.39,5.97-7,2.84-1.79,6.14-2.72,9.49-2.7,6.65,0,11.29,1.69,13.88,4.96s3.9,7.84,3.78,13.64v31.07h-5.9v-30.12c.26-3.66-.63-7.3-2.54-10.44-1.8-2.68-5.03-4.06-9.71-4.15-4.73,.1-8.41,1.67-11.02,4.73-2.72,3.33-4.19,7.5-4.14,11.8v28.18h-5.9v.04h0Zm64.2-.21l-19.26-48.05h6.28l15.88,41.14,14.88-41.14h5.9l-20.98,55.66c-1.53,4-3.14,6.72-4.85,8.26s-4.32,2.24-7.84,2.17c-1.12,0-2.04-.09-2.75-.11-.59-.02-1.18-.13-1.74-.34v-4.94c1.32,.27,2.66,.43,4.01,.46,2.55,0,4.38-.74,5.44-2.12,1.27-1.67,2.27-3.52,2.99-5.48l2.06-5.53h-.02Zm60.33-18.46c.12,4.27-1.72,8.35-5,11.08-3.36,2.68-7.55,4.1-11.83,4.03-2.72,.02-5.36-.88-7.5-2.56-2.16-1.68-3.4-4.28-3.36-7.01-.1-2.72,1.27-5.28,3.58-6.72,2.65-1.5,5.58-2.47,8.6-2.86,3.45-.55,6.85-1.06,10.28-1.59,.95-.13,1.89-.36,2.81-.66,.86-.24,1.61-.76,2.14-1.49h.2v7.73l.09,.04h0Zm-25.55-14.79c.18-3.93,1.43-6.79,3.8-8.57,2.66-1.89,5.88-2.83,9.14-2.68,3.09-.19,6.18,.49,8.9,1.98,2.4,1.39,3.63,4.02,3.72,7.93,0,2.58-.66,4.27-1.95,5.07-1.75,.93-3.68,1.43-5.65,1.48-4.33,.44-8.43,.96-12.39,1.69-3.5,.54-6.81,1.96-9.62,4.12-2.51,2.03-3.83,5.3-3.89,9.73,.09,4.84,1.68,8.41,4.74,10.67,3.33,2.35,7.35,3.53,11.41,3.36,4.55,0,8.12-.88,10.73-2.54,2.8-1.88,5.15-4.37,6.87-7.27h.21c-.19,2.1,.24,4.22,1.2,6.1,.91,1.51,2.78,2.24,5.74,2.31,.76,0,1.44,0,2.02-.1,.6-.06,1.21-.16,1.8-.31v-4.89c-.29,.1-.58,.19-.87,.27-.32,.08-.65,.11-.99,.12-.96,.08-1.91-.26-2.62-.92-.62-.75-.93-1.7-.87-2.68v-25.58c-.09-4.27-.95-7.52-2.72-9.74-1.69-2.21-4.04-3.82-6.72-4.59-2.71-.82-5.54-1.2-8.38-1.12-5.6,0-10.19,1.21-13.72,3.85s-5.45,6.72-5.79,12.32h5.84v-.06l.06,.04h0Zm-946.02,58.64h25.09c4.36-.15,8.71,.29,12.94,1.3,3.92,1.13,7.46,3.29,10.25,6.26,2.94,3.16,5.16,6.92,6.49,11.02,1.61,5.2,2.37,10.63,2.24,16.07,.1,4.9-.6,9.8-2.08,14.48-1.44,4.52-3.94,8.64-7.28,12.01-2.75,2.53-6.06,4.39-9.65,5.42-3.95,1.07-8.05,1.57-12.15,1.44h-25.84v-68h-.01Zm13.72,11.5v45.04h10.26c2.78,.09,5.56-.12,8.3-.65,2.07-.46,4-1.43,5.6-2.83,1.76-1.83,3-4.1,3.59-6.56,1.05-4.06,1.52-8.25,1.4-12.45,.15-4.09-.32-8.17-1.4-12.11-.73-2.49-2.06-4.75-3.9-6.58-1.78-1.63-3.97-2.74-6.35-3.2-3.73-.55-7.5-.77-11.28-.65h-6.23Zm83.35,40.82l12.99,2.17c-1.39,4.39-4.17,8.21-7.9,10.88-4.02,2.61-8.74,3.91-13.53,3.73-8.57,0-14.91-2.8-19.03-8.4-3.25-4.48-4.87-10.13-4.87-16.97,0-8.16,2.14-14.56,6.4-19.18,4.13-4.56,10.03-7.09,16.18-6.93,7.33,0,13.12,2.42,17.36,7.26s6.26,12.25,6.07,22.25h-32.65c.09,3.86,1.12,6.87,3.16,9.01,1.91,2.12,4.66,3.29,7.51,3.22,1.86,.07,3.68-.53,5.15-1.67,1.6-1.43,2.71-3.34,3.17-5.43v.06h0Zm.75-13.18c-.1-3.77-1.07-6.64-2.92-8.6-1.71-1.89-4.17-2.97-6.72-2.94-2.7-.07-5.28,1.06-7.05,3.1-1.96,2.36-2.93,5.39-2.73,8.44h19.43Zm23.19-20.4h12.15v7.23c1.61-2.51,3.81-4.58,6.4-6.04,2.72-1.56,5.82-2.36,8.96-2.32,5.61-.04,10.95,2.42,14.56,6.72,3.99,4.48,5.98,10.73,5.98,18.73s-2,14.6-6.02,19.18c-3.58,4.34-8.92,6.86-14.56,6.84-2.56,.03-5.09-.52-7.4-1.62-2.64-1.42-5-3.33-6.98-5.6v24.81h-13.03l-.06-67.94h0Zm12.89,23.79c0,5.53,1.1,9.62,3.29,12.26,1.91,2.51,4.88,3.96,8.03,3.96,2.96,.04,5.76-1.31,7.56-3.64,2.02-2.42,3.02-6.39,3.02-11.94,0-5.17-1.04-9.01-3.11-11.51-1.84-2.38-4.69-3.77-7.7-3.75-3.07-.04-5.98,1.31-7.93,3.68-2.11,2.46-3.16,6.09-3.16,10.87v.06h0Zm55.25-8.77l-11.82-2.14c1.32-4.76,3.61-8.27,6.86-10.57s8.07-3.44,14.47-3.44c5.81,0,10.14,.68,12.99,2.06,2.51,1.07,4.6,2.91,6,5.25,1.16,2.12,1.75,6,1.75,11.66l-.15,15.22c-.08,3.2,.13,6.42,.63,9.58,.5,2.3,1.29,4.51,2.34,6.61h-12.89c-.35-.87-.76-2.15-1.25-3.85-.21-.77-.37-1.29-.46-1.53-2.06,2.06-4.48,3.71-7.14,4.87-2.56,1.09-5.33,1.65-8.12,1.62-5.07,0-9.07-1.38-11.99-4.12-2.9-2.69-4.49-6.48-4.39-10.44-.04-2.62,.65-5.21,2-7.45,1.33-2.18,3.28-3.93,5.6-5.02,3.31-1.43,6.8-2.45,10.37-3.03,4.31-.67,8.54-1.75,12.65-3.2v-1.3c0-2.51-.62-4.29-1.85-5.35-1.24-1.12-3.57-1.6-7.01-1.6-1.9-.11-3.8,.37-5.42,1.37-1.52,1.22-2.62,2.88-3.17,4.75v.06h0Zm17.43,10.57c-2.61,.79-5.25,1.47-7.93,1.99-3.62,.75-5.99,1.49-7.1,2.24-1.58,1-2.54,2.72-2.55,4.59-.01,1.79,.73,3.52,2.05,4.74,1.39,1.34,3.27,2.06,5.2,1.99,2.43-.02,4.79-.84,6.72-2.32,1.49-1.05,2.59-2.56,3.11-4.31,.43-2.09,.59-4.23,.5-6.36v-2.56h0Zm38.13,23.66h-13.03v-49.27h12.11v7c2.07-3.3,3.94-5.49,5.6-6.54,1.68-1.05,3.62-1.6,5.6-1.58,3.03,.01,6,.86,8.58,2.46l-4.03,11.36c-1.79-1.29-3.92-2.03-6.12-2.14-1.67-.04-3.31,.48-4.64,1.51-1.53,1.47-2.58,3.36-2.99,5.44-.75,2.63-1.12,8.14-1.12,16.52l.04,15.23h0Zm47.03-49.27v10.38h-8.96v19.85c-.08,2.35,0,4.69,.25,7.03,.17,.66,.57,1.24,1.12,1.65,.66,.46,1.44,.68,2.24,.65,1.8-.13,3.57-.56,5.24-1.25l1.12,10.08c-3.26,1.34-6.76,2-10.29,1.95-2.17,.03-4.33-.37-6.36-1.18-1.65-.62-3.08-1.68-4.15-3.07-.99-1.53-1.6-3.27-1.83-5.07-.36-3.05-.5-6.12-.41-9.19v-21.49h-5.99v-10.38h5.99v-9.79l13.08-7.61v17.4l8.96,.04h0Zm18.79,15.03l-11.84-2.14c1.33-4.76,3.62-8.27,6.86-10.57s8.07-3.44,14.48-3.44c5.81,0,10.14,.68,12.99,2.06,2.51,1.07,4.6,2.91,6,5.25,1.16,2.12,1.75,6,1.75,11.66l-.15,15.22c-.08,3.2,.13,6.42,.63,9.58,.5,2.3,1.29,4.51,2.34,6.61h-12.89c-.35-.87-.76-2.15-1.25-3.85-.22-.77-.37-1.29-.47-1.53-2.06,2.06-4.48,3.71-7.14,4.87-2.56,1.09-5.33,1.65-8.12,1.62-5.06,0-9.06-1.38-11.98-4.12-2.9-2.69-4.49-6.48-4.39-10.44-.04-2.62,.65-5.2,1.99-7.45,1.33-2.18,3.28-3.93,5.6-5.02,3.31-1.43,6.8-2.45,10.36-3.03,4.31-.67,8.55-1.75,12.66-3.2v-1.3c0-2.51-.62-4.29-1.85-5.35-1.24-1.12-3.57-1.6-7.01-1.6-4.02-.47-7.74,2.21-8.58,6.17h0Zm17.49,10.5c-2.61,.79-5.25,1.47-7.93,1.99-3.62,.75-5.99,1.49-7.1,2.24-1.58,1-2.54,2.72-2.55,4.59-.01,1.79,.73,3.52,2.05,4.74,1.39,1.34,3.26,2.06,5.18,1.99,2.43-.03,4.79-.84,6.72-2.32,1.49-1.05,2.59-2.56,3.11-4.31,.43-2.09,.59-4.23,.5-6.36v-2.56h.01Zm24.64-25.6h12.01v6.72c4.3-5.23,9.42-7.84,15.35-7.84,2.86-.07,5.69,.6,8.21,1.95,2.41,1.4,4.39,3.44,5.71,5.89,1.91-2.42,4.29-4.41,7-5.89,2.47-1.29,5.23-1.96,8.03-1.95,3.2-.09,6.37,.68,9.18,2.24,2.52,1.49,4.49,3.76,5.6,6.47,.9,2.11,1.34,5.5,1.34,10.2v31.5h-12.98v-28.17c0-4.88-.45-8.04-1.34-9.46-1.22-1.87-3.37-2.93-5.6-2.78-1.85,0-3.65,.58-5.15,1.67-1.67,1.2-2.89,2.92-3.47,4.89-.87,3.31-1.24,6.75-1.12,10.18v23.66h-13.03v-27.04c0-4.79-.22-7.84-.69-9.28-.36-1.24-1.11-2.33-2.15-3.1-1.19-.74-2.58-1.1-3.97-1.02-1.93-.02-3.82,.54-5.42,1.62-1.65,1.13-2.87,2.78-3.46,4.68-.69,2.04-1.04,5.43-1.04,10.16v23.94h-13.03l.03-49.23Zm113.96,33.59l12.99,2.17c-1.39,4.39-4.17,8.21-7.92,10.88-4.01,2.61-8.73,3.91-13.51,3.73-8.57,0-14.91-2.8-19.03-8.4-3.25-4.48-4.87-10.13-4.87-16.97,0-8.16,2.13-14.56,6.39-19.18,4.13-4.56,10.04-7.09,16.19-6.93,7.32,0,13.1,2.42,17.34,7.26s6.27,12.25,6.08,22.25h-32.65c.09,3.86,1.12,6.87,3.15,9.01,1.91,2.12,4.66,3.29,7.51,3.22,1.86,.07,3.68-.53,5.15-1.67,1.6-1.41,2.73-3.28,3.22-5.36h-.04Zm.74-13.2c-.09-3.77-1.06-6.64-2.92-8.6-3.57-3.77-9.52-3.94-13.29-.38-.18,.17-.36,.35-.53,.54-1.96,2.36-2.93,5.39-2.74,8.44h19.48Zm68.37,28.85h-12.99v-25.13c0-5.32-.28-8.77-.84-10.32-.48-1.48-1.43-2.75-2.71-3.64-1.32-.88-2.89-1.34-4.48-1.3-2.16-.02-4.29,.62-6.07,1.85-1.75,1.18-3.06,2.91-3.69,4.93-.66,2.04-1,5.81-1,11.31v22.32h-13.03v-49.27h12.1v7.23c4.3-5.56,9.71-8.35,16.24-8.35,2.69-.03,5.36,.5,7.84,1.56,2.12,.84,3.97,2.21,5.41,3.96,1.23,1.62,2.09,3.49,2.55,5.48,.56,2.89,.79,5.82,.72,8.77l-.04,30.61h0Zm35.83-49.27v10.38h-8.96v19.85c-.08,2.35,0,4.69,.25,7.03,.17,.66,.56,1.24,1.12,1.65,.66,.46,1.44,.68,2.24,.65,1.8-.13,3.57-.56,5.24-1.25l1.12,10.08c-3.26,1.34-6.76,2-10.29,1.95-2.17,.03-4.34-.37-6.36-1.18-1.65-.62-3.08-1.68-4.15-3.07-.99-1.53-1.6-3.27-1.83-5.07-.37-3.05-.5-6.12-.43-9.19v-21.42h-5.98v-10.38h5.98v-9.79l13.09-7.61v17.4l8.96-.02h0Zm80.62,49.27h-12.09v-7.23c-1.83,2.65-4.27,4.8-7.12,6.28-2.55,1.33-5.4,2.04-8.27,2.06-5.63,.02-10.97-2.5-14.56-6.84-4.03-4.56-6.05-10.91-6.05-19.03s1.96-14.7,5.89-19.03c3.75-4.27,9.2-6.66,14.89-6.52,5.5,0,10.26,2.28,14.28,6.86v-24.53h13.03v67.99h0Zm-34.78-25.7c0,5.23,.73,9.02,2.17,11.41,1.76,3.2,5.15,5.17,8.81,5.11,3.01,0,5.84-1.42,7.66-3.83,2.11-2.55,3.16-6.36,3.15-11.43,0-5.67-1.02-9.73-3.06-12.23-1.88-2.41-4.78-3.78-7.84-3.73-3.02-.03-5.89,1.32-7.77,3.68-2.07,2.47-3.11,6.15-3.11,11.03h-.01Zm47.31-42.13h13.03v9.32c.09,3.01-.24,6.04-.97,8.96-.69,2.24-1.96,4.27-3.68,5.87-1.98,1.84-4.33,3.22-6.9,4.08l-2.54-5.37c2.18-.59,4.14-1.84,5.6-3.57,1.21-1.85,1.83-4.01,1.76-6.21h-6.3v-13.06h.01Zm26.82,67.81v-67.99h50.39v11.5h-36.65v15.08h34.14v11.45h-34.14v18.51h37.99v11.45h-51.73Zm108.44-.02h-12.1v-7.23c-1.83,2.64-4.27,4.8-7.12,6.28-2.55,1.33-5.4,2.04-8.27,2.06-5.63,.02-10.98-2.49-14.56-6.84-4.03-4.56-6.05-10.91-6.06-19.03,0-8.35,1.96-14.7,5.89-19.03,3.75-4.27,9.2-6.65,14.89-6.52,5.51,0,10.27,2.28,14.29,6.86v-24.53h13.03v67.99h.01Zm-34.78-25.7c0,5.23,.75,9.02,2.24,11.41,1.72,3.2,5.08,5.2,8.72,5.17,3.01,0,5.84-1.42,7.65-3.83,2.11-2.55,3.16-6.36,3.16-11.43,0-5.67-1.02-9.73-3.06-12.23-1.88-2.41-4.78-3.78-7.84-3.73-3.02-.03-5.89,1.32-7.77,3.68-2.06,2.43-3.09,6.08-3.09,10.96h-.01Zm80.06,25.67v-7.38c-1.8,2.63-4.23,4.77-7.08,6.21-2.86,1.49-6.04,2.25-9.25,2.24-3.1,.04-6.17-.69-8.9-2.17-2.53-1.35-4.53-3.5-5.71-6.12-1.18-2.63-1.76-6.26-1.76-10.91v-31.12h13.03v22.63c0,6.93,.24,11.17,.72,12.73,.44,1.5,1.35,2.81,2.62,3.72,1.42,.95,3.11,1.43,4.83,1.37,2.14,.02,4.22-.62,5.98-1.84,1.66-1.09,2.92-2.69,3.62-4.55,.65-1.8,.97-6.23,.97-13.29v-20.77h13.03v49.27l-12.1-.02h0Zm68.55-34.71l-12.84,2.32c-.26-2.22-1.3-4.28-2.94-5.79-1.68-1.35-3.8-2.05-5.96-1.95-2.97-.12-5.82,1.11-7.77,3.36-1.94,2.24-2.91,5.97-2.9,11.2,0,5.84,.99,9.98,2.94,12.38,1.91,2.4,4.85,3.74,7.9,3.63,2.22,.09,4.39-.67,6.08-2.12,1.58-1.41,2.7-3.83,3.36-7.26l12.8,2.18c-1.32,5.87-3.87,10.3-7.65,13.3s-8.83,4.49-15.17,4.48c-7.2,0-12.94-2.27-17.23-6.82s-6.44-10.8-6.45-18.79c0-8.13,2.15-14.48,6.45-19.03,4.3-4.56,10.11-6.83,17.43-6.8,5.97,0,10.74,1.29,14.31,3.87,3.57,2.59,6.11,6.53,7.65,11.85v-.02h-.01Zm19.62,.47l-11.84-2.14c1.33-4.76,3.63-8.27,6.86-10.57s8.06-3.44,14.48-3.44c5.81,0,10.13,.68,12.99,2.06,2.51,1.07,4.6,2.91,6,5.25,1.12,2.12,1.74,6,1.74,11.66l-.13,15.22c-.08,3.2,.13,6.42,.63,9.58,.5,2.3,1.29,4.51,2.34,6.61h-12.89c-.35-.87-.76-2.15-1.25-3.85-.22-.77-.37-1.29-.47-1.53-2.06,2.06-4.48,3.71-7.14,4.87-2.56,1.09-5.33,1.65-8.12,1.62-5.06,0-9.06-1.38-11.98-4.12-2.9-2.69-4.49-6.48-4.39-10.44-.04-2.62,.65-5.2,1.99-7.45,1.33-2.18,3.28-3.93,5.6-5.02,3.31-1.43,6.8-2.45,10.37-3.03,4.31-.67,8.55-1.75,12.66-3.2v-1.3c0-2.51-.62-4.29-1.86-5.35-1.23-1.12-3.56-1.6-7-1.6-4.02-.47-7.74,2.21-8.58,6.17h-.01Zm17.4,10.57c-2.61,.79-5.25,1.47-7.93,1.99-3.62,.77-5.99,1.53-7.1,2.24-1.58,1-2.54,2.72-2.55,4.59-.01,1.79,.73,3.52,2.04,4.74,1.39,1.34,3.27,2.06,5.2,1.99,2.43-.03,4.79-.84,6.72-2.32,1.49-1.05,2.59-2.56,3.11-4.31,.43-2.09,.59-4.23,.5-6.36v-2.56h.01Zm68.61-11.04l-12.85,2.32c-.25-2.22-1.3-4.28-2.94-5.79-1.68-1.35-3.8-2.05-5.96-1.95-2.97-.12-5.82,1.12-7.77,3.36-1.93,2.24-2.89,5.97-2.9,11.2,0,5.84,.99,9.98,2.94,12.38,1.91,2.4,4.85,3.74,7.92,3.63,2.22,.09,4.39-.67,6.07-2.12,1.58-1.41,2.7-3.83,3.36-7.26l12.81,2.18c-1.33,5.87-3.89,10.3-7.66,13.3s-8.82,4.49-15.16,4.48c-7.21,0-12.95-2.27-17.23-6.82-4.28-4.55-6.42-10.84-6.43-18.88,0-8.13,2.15-14.48,6.45-19.03,4.3-4.56,10.11-6.83,17.43-6.8,5.97,0,10.74,1.29,14.31,3.87,3.57,2.59,6.12,6.56,7.66,11.94l-.04-.02h0Zm9.88-21.27v-12h13.03v12.06l-13.03-.06Zm0,55.98v-49.27h13.03v49.27h-13.03Zm23.41-25.32c.01-4.39,1.11-8.71,3.2-12.57,2.03-3.95,5.21-7.19,9.11-9.29,4.02-2.16,8.53-3.27,13.1-3.2,7.47,0,13.57,2.42,18.32,7.26,4.78,4.89,7.36,11.52,7.14,18.35,.21,6.9-2.4,13.59-7.21,18.53-4.76,4.88-11.34,7.54-18.16,7.35-4.49,0-8.91-1.04-12.92-3.06-3.97-1.93-7.24-5.06-9.34-8.96-2.27-4.46-3.39-9.41-3.25-14.4Zm13.36,.69c0,4.89,1.16,8.63,3.48,11.2,4.12,4.74,11.31,5.22,16.03,1.1,.39-.34,.76-.71,1.1-1.1,2.31-2.6,3.46-6.37,3.46-11.32s-1.15-8.53-3.46-11.13c-4.12-4.74-11.31-5.22-16.03-1.1-.39,.34-.76,.71-1.1,1.1-2.32,2.62-3.48,6.37-3.47,11.25h-.01Zm5.48-30.66l6.39-13.86h14.61l-12.75,13.86h-8.25Z"/></g></g></g><g id="f"><g><path d="M119.86,0C53.65,0,0,56,0,125.09s53.67,125.09,119.86,125.09c48.53,0,90.19-30.16,109.02-73.45,1.33-3.06-.09-6.62-3.15-7.94-.75-.33-1.57-.49-2.38-.49h-47.77c-2.7-.04-5.19,1.45-6.43,3.86-9,18.61-27.81,30.45-48.47,30.55-28.32,0-54.05-23.31-54.27-53.59-.06-2.44,1.88-4.47,4.32-4.53H224.8c6.84-.03,12.49-5.35,12.93-12.16,.16-2.36,.26-4.76,.26-7.33C238,56,186.07,0,119.86,0Zm52.57,105.33H68.55c-2.02,.02-3.66-1.61-3.68-3.63v-.03c.73-30.99,26.31-55.16,55.77-55.16h.03c29.37,0,53.69,22.12,55.61,54.66,.09,2.21-1.63,4.07-3.85,4.15Z"/><path d="M287.43,50.8c1.86,2.05,4.13,3.67,6.67,4.75,2.82,1.18,5.85,1.77,8.9,1.72,2.49,.03,4.96-.38,7.31-1.21,2.13-.77,4.1-1.96,5.77-3.5,1.68-1.58,3.04-3.46,3.99-5.56,1.05-2.31,1.7-4.79,1.92-7.32h-9.18c-.23,2.6-1.28,5.05-2.99,7.01-1.77,1.84-4.25,2.81-6.8,2.66-1.88,.06-3.76-.37-5.43-1.24-1.46-.79-2.71-1.91-3.64-3.28-.95-1.4-1.63-2.97-2.03-4.62-.42-1.73-.63-3.51-.63-5.29,0-1.85,.21-3.69,.63-5.49,.38-1.69,1.08-3.3,2.03-4.75,.92-1.38,2.16-2.52,3.63-3.32,1.67-.87,3.55-1.3,5.43-1.24,2.26,0,4.46,.76,6.22,2.18,.84,.66,1.55,1.47,2.12,2.38h0c.56,.92,.93,1.94,1.09,3h9.18c-.24-2.33-.93-4.59-2.06-6.64-1.04-1.88-2.45-3.53-4.13-4.86-1.7-1.33-3.63-2.34-5.67-2.99-5.13-1.59-10.67-1.34-15.64,.72-2.55,1.1-4.83,2.74-6.67,4.81-1.85,2.11-3.27,4.56-4.17,7.21-.99,2.88-1.48,5.92-1.45,8.97-.03,2.99,.46,5.96,1.45,8.79,.9,2.62,2.33,5.03,4.17,7.1Z"/><path d="M330.19,52.66c1.43,1.45,3.16,2.57,5.07,3.3,4.31,1.53,9.02,1.53,13.33,0,1.91-.72,3.65-1.85,5.1-3.3,1.44-1.47,2.55-3.23,3.27-5.16,1.53-4.39,1.53-9.16,0-13.56-.71-1.94-1.83-3.72-3.27-5.2-1.44-1.45-3.18-2.59-5.1-3.32-4.3-1.58-9.03-1.58-13.33,0-3.88,1.49-6.93,4.6-8.33,8.52-1.54,4.38-1.54,9.17,0,13.56,.71,1.93,1.82,3.69,3.26,5.16Zm4.53-15.62c.21-1.13,.63-2.22,1.24-3.2,1.26-2.06,3.54-3.26,5.95-3.14,1.28-.04,2.54,.27,3.65,.88,.95,.55,1.76,1.33,2.35,2.26,.61,.98,1.03,2.07,1.24,3.2,.25,1.21,.37,2.44,.37,3.68,0,1.23-.12,2.45-.37,3.65-.22,1.13-.63,2.22-1.24,3.2-.58,.94-1.38,1.72-2.35,2.27-1.13,.6-2.38,.88-3.65,.85-1.27,.05-2.52-.25-3.63-.85-.95-.55-1.74-1.34-2.32-2.27-.61-.98-1.02-2.07-1.24-3.2h0c-.24-1.2-.36-2.42-.36-3.65s.12-2.47,.36-3.68Z"/><path d="M371.39,39.92c0-3.18,.51-5.46,1.57-6.86,1.06-1.39,2.74-2.09,5.08-2.09,2.05,0,3.49,.65,4.29,1.92,.92,1.78,1.35,3.77,1.21,5.77v17.67h8.58v-19.23c.02-1.77-.15-3.54-.52-5.28-.28-1.46-.88-2.85-1.78-4.05-.91-1.15-2.11-2.05-3.47-2.6-1.8-.69-3.72-1.02-5.64-.96-1.85,0-3.66,.43-5.32,1.24-1.78,.87-3.25,2.25-4.23,3.96h-.18v-4.32h-8.15v31.15h8.58v-16.35Z"/><polygon points="405.06 48.55 405.06 48.55 405.06 48.55 405.06 48.55"/><path d="M404.46,46.23h-8.15c0,1.84,.49,3.63,1.41,5.22,.84,1.37,1.97,2.51,3.33,3.36,1.41,.87,2.98,1.49,4.62,1.81,1.75,.37,3.53,.55,5.32,.55s3.5-.17,5.22-.52c1.62-.3,3.17-.9,4.57-1.78,2.92-1.82,4.63-5.08,4.47-8.52,.04-1.27-.25-2.53-.85-3.65-.56-.97-1.33-1.82-2.24-2.47-.97-.69-2.04-1.23-3.17-1.61-1.2-.4-2.41-.75-3.65-1.02-1.2-.29-2.39-.55-3.56-.79-1.06-.21-2.1-.48-3.12-.82-.81-.24-1.56-.64-2.2-1.18-.97-.88-1.13-2.35-.37-3.4,.32-.38,.72-.68,1.17-.88,.49-.21,1.02-.34,1.55-.38,.52-.07,1.05-.1,1.57-.1,1.38-.03,2.75,.27,3.99,.87,1.21,.68,1.95,1.97,1.92,3.36h8.15c-.09-1.7-.6-3.36-1.48-4.81-.8-1.23-1.87-2.28-3.12-3.05-1.32-.79-2.76-1.34-4.26-1.63-1.62-.33-3.27-.49-4.92-.49s-3.32,.15-4.95,.45c-1.53,.28-3,.81-4.35,1.58-1.28,.73-2.36,1.78-3.12,3.05-.84,1.51-1.24,3.22-1.17,4.95-.04,1.21,.25,2.41,.85,3.47,.56,.94,1.32,1.75,2.23,2.36,.98,.65,2.05,1.16,3.17,1.51,1.19,.35,2.4,.68,3.65,.96,2.43,.47,4.83,1.12,7.16,1.92,1.7,.62,2.57,1.6,2.57,2.88,.02,.68-.16,1.36-.55,1.92-.36,.5-.83,.9-1.37,1.2-.57,.32-1.17,.54-1.81,.66-.63,.14-1.28,.21-1.92,.21-.83,0-1.64-.1-2.44-.3-.75-.19-1.45-.52-2.09-.96-.61-.42-1.12-.98-1.48-1.62l-.03,.07c-.39-.73-.6-1.56-.57-2.38Z"/><path d="M432.94,52.66c1.44,1.45,3.17,2.57,5.08,3.3,2.13,.79,4.38,1.17,6.64,1.14,2.28,.03,4.54-.36,6.67-1.14,1.92-.72,3.66-1.85,5.11-3.3,1.44-1.47,2.55-3.23,3.26-5.16,1.53-4.39,1.53-9.16,0-13.56-1.39-3.93-4.46-7.05-8.37-8.52-2.13-.82-4.39-1.21-6.67-1.18-2.27-.04-4.53,.37-6.64,1.18-3.89,1.48-6.94,4.6-8.34,8.52h0c-1.53,4.39-1.53,9.16,0,13.56,.71,1.93,1.83,3.69,3.26,5.16Zm4.53-15.62c.22-1.13,.64-2.21,1.24-3.2,1.27-2.05,3.55-3.25,5.95-3.14,1.28-.04,2.54,.26,3.65,.88,.96,.55,1.77,1.33,2.36,2.26,.61,.98,1.03,2.07,1.24,3.2,.24,1.21,.37,2.44,.37,3.68s-.13,2.45-.37,3.65c-.22,1.13-.63,2.22-1.24,3.2-.58,.94-1.39,1.72-2.36,2.27-1.13,.6-2.38,.89-3.65,.85-1.26,.05-2.51-.24-3.63-.85-.95-.55-1.75-1.33-2.33-2.27-.6-.99-1.01-2.07-1.24-3.2h0c-.24-1.2-.36-2.42-.36-3.65s.12-2.47,.36-3.68Z"/><path d="M474.24,42.21c0-1.33,.13-2.64,.42-3.93,.25-1.14,.73-2.22,1.41-3.17,.69-.92,1.6-1.65,2.63-2.14,1.25-.56,2.62-.82,3.98-.78,.55,0,1.1,.03,1.63,.09,.57,.06,1.05,.13,1.45,.21v-7.97c-.61-.19-1.24-.3-1.88-.31-1.07,0-2.13,.16-3.14,.49-1.02,.32-1.99,.77-2.88,1.36-.88,.59-1.67,1.3-2.36,2.12-.67,.81-1.22,1.71-1.63,2.68h-.12v-5.73h-8.11v31.16h8.58v-14.07Z"/><path d="M490.66,52.65c1.4,1.44,3.11,2.56,4.98,3.29,2.05,.81,4.22,1.21,6.42,1.18,3.68,.15,7.3-1,10.21-3.26,2.63-2.18,4.24-5.34,4.81-9.49h-8.28c-.18,1.72-.91,3.35-2.09,4.63-1.27,1.21-2.99,1.84-4.74,1.72-1.19,.04-2.37-.28-3.38-.9-.91-.59-1.67-1.38-2.21-2.33-.56-.99-.95-2.06-1.17-3.17-.24-1.13-.37-2.29-.37-3.44s.13-2.38,.37-3.54c.23-1.14,.64-2.25,1.24-3.26,.57-.96,1.34-1.79,2.26-2.41,1.02-.66,2.22-1,3.43-.96v.02c3.66,0,5.78,1.8,6.35,5.38h8.39c-.11-3.55-1.87-6.84-4.74-8.91-1.38-1-2.94-1.75-4.6-2.2-1.74-.49-3.53-.73-5.34-.73-2.31-.04-4.6,.39-6.73,1.27-1.91,.81-3.63,2.01-5.02,3.54-1.39,1.56-2.45,3.38-3.11,5.38-.72,2.17-1.08,4.44-1.06,6.73-.02,2.19,.37,4.38,1.14,6.43,.72,1.88,1.82,3.6,3.21,5.05Z"/><rect x="521.38" y="25.12" width="8.58" height="31.23"/><polygon points="529.96 13.2 521.38 13.2 521.38 20.27 529.96 20.22 529.96 13.2"/><path d="M552.33,52.02c1.15,1.55,2.65,2.82,4.38,3.69,1.91,.93,4.02,1.4,6.15,1.36,1.9,.03,3.79-.35,5.53-1.12,1.66-.78,3.05-2.06,3.96-3.66v.04l.13,.03v3.99h8.14V13.22h-8.58v15.64h-.13c-.95-1.52-2.33-2.73-3.95-3.47-1.65-.78-3.45-1.18-5.28-1.18-2.1-.05-4.17,.42-6.05,1.37-1.68,.87-3.15,2.1-4.32,3.59-1.17,1.55-2.06,3.31-2.6,5.17-.59,1.97-.88,4.01-.88,6.07,0,2.13,.29,4.24,.88,6.28,.54,1.92,1.42,3.73,2.6,5.35Zm5.5-15.05c.23-1.13,.66-2.2,1.27-3.17,.58-.92,1.38-1.68,2.32-2.23,1.1-.6,2.33-.89,3.57-.86,1.23-.05,2.44,.25,3.51,.86,.91,.55,1.68,1.31,2.26,2.2,.61,.96,1.03,2.02,1.24,3.13,.25,1.22,.37,2.47,.37,3.72s-.13,2.51-.37,3.74c-.21,1.13-.63,2.23-1.21,3.23-.55,.93-1.33,1.72-2.26,2.27-1.08,.6-2.31,.89-3.54,.85-1.2,.04-2.38-.27-3.41-.87-.94-.59-1.75-1.38-2.36-2.3-.64-.99-1.11-2.08-1.36-3.23-.28-1.19-.42-2.4-.42-3.63,0-1.25,.13-2.49,.39-3.71Z"/><path d="M595.16,26.14c.43-1.2,.63-2.47,.58-3.74V13.19l-8.58,.03v9.26h3.98c.05,1.31-.25,2.62-.85,3.78-.71,1.14-1.84,1.97-3.13,2.33v3.95c1.22-.14,2.39-.53,3.47-1.12,2.13-1.13,3.74-3.02,4.53-5.29Z"/><polygon points="595.74 13.15 595.74 13.19 595.74 13.19 595.74 13.15"/><polygon points="635.9 48.38 612.65 48.38 612.65 37.8 633.55 37.8 633.55 30.42 612.65 30.42 612.65 21.18 635.42 21.18 635.42 13.19 603.16 13.22 603.16 56.35 635.9 56.35 635.9 48.38"/><path d="M671.06,56.35V13.22h-8.58v15.59h-.12c-.95-1.52-2.33-2.72-3.96-3.47-1.65-.79-3.46-1.18-5.29-1.18-2.1-.05-4.16,.42-6.04,1.37-1.68,.87-3.15,2.09-4.32,3.59-1.17,1.55-2.06,3.31-2.6,5.17-.59,1.97-.88,4.01-.88,6.07,0,2.13,.29,4.24,.88,6.28,.54,1.92,1.42,3.73,2.6,5.35,1.15,1.55,2.65,2.82,4.38,3.69,1.92,.93,4.04,1.4,6.17,1.36,1.89,.03,3.78-.35,5.52-1.12,1.66-.78,3.05-2.06,3.96-3.66v.04l.12,.08v3.99h8.15Zm-8.63-12.03c-.21,1.13-.63,2.23-1.2,3.23-.56,.93-1.34,1.71-2.27,2.27-1.08,.6-2.31,.89-3.54,.85-1.19,.04-2.38-.27-3.4-.88-.95-.59-1.75-1.37-2.37-2.3-.64-.99-1.1-2.09-1.36-3.23-.28-1.19-.42-2.4-.42-3.63s.13-2.49,.39-3.71c.23-1.13,.66-2.2,1.27-3.17,.58-.92,1.38-1.69,2.33-2.23,1.09-.6,2.32-.89,3.56-.86,1.23-.05,2.44,.25,3.51,.86,.91,.55,1.68,1.31,2.26,2.2,.61,.96,1.03,2.02,1.24,3.13,.25,1.22,.37,2.47,.37,3.72s-.13,2.51-.37,3.74Z"/><path d="M678.95,53.61c.9,1.15,2.11,2.05,3.47,2.58,1.81,.65,3.73,.96,5.65,.9,1.84,0,3.65-.42,5.31-1.21,1.78-.85,3.26-2.21,4.23-3.92h.2v4.32l8.13,.13V25.17h-8.58v16.35c0,3.18-.53,5.46-1.57,6.86-1.05,1.38-2.74,2.08-5.08,2.08-2.06,0-3.48-.65-4.29-1.92-.92-1.78-1.34-3.77-1.21-5.77V25.09h-8.58v19.19c-.02,1.78,.15,3.55,.52,5.29,.28,1.46,.88,2.85,1.78,4.04Z"/><path d="M715.16,52.57c1.41,1.43,3.11,2.56,4.98,3.29,2.05,.81,4.23,1.21,6.43,1.18,3.68,.15,7.29-1,10.2-3.26,2.63-2.18,4.24-5.34,4.81-9.49h-8.27c-.19,1.72-.92,3.35-2.09,4.63-1.27,1.21-2.99,1.84-4.74,1.72-1.19,.04-2.37-.28-3.38-.9-.91-.59-1.67-1.38-2.21-2.33-.56-.99-.95-2.06-1.17-3.17-.23-1.13-.36-2.29-.36-3.44s.12-2.38,.36-3.54c.23-1.14,.64-2.25,1.24-3.26,.57-.96,1.34-1.79,2.26-2.41,1.03-.66,2.21-1,3.43-.96v.02c3.67,0,5.78,1.8,6.35,5.38h8.39c-.06-1.84-.56-3.63-1.45-5.23-.83-1.44-1.94-2.7-3.29-3.68-1.38-1-2.94-1.75-4.59-2.2-1.74-.49-3.54-.73-5.35-.73-2.31-.04-4.6,.39-6.73,1.27-1.9,.8-3.62,2.01-5.01,3.54-1.39,1.56-2.46,3.38-3.12,5.38-.72,2.17-1.08,4.44-1.06,6.73-.03,2.2,.37,4.38,1.15,6.43,.71,1.88,1.81,3.6,3.2,5.05Z"/><path d="M762.2,37.19c-1.09,.27-2.2,.45-3.32,.55-1.29,.12-2.56,.28-3.85,.48-1.3,.2-2.58,.47-3.85,.82-1.2,.31-2.35,.83-3.38,1.54-1.01,.71-1.85,1.65-2.42,2.75-.68,1.36-1.01,2.86-.96,4.38-.04,1.43,.24,2.86,.82,4.17,.51,1.13,1.29,2.12,2.26,2.88,1,.79,2.15,1.37,3.38,1.69,1.36,.37,2.76,.56,4.16,.55,1.92,0,3.84-.29,5.68-.85,1.83-.56,3.48-1.58,4.81-2.96,.04,.52,.12,1.03,.21,1.54,.11,.5,.24,.99,.39,1.48h8.65c-.48-.89-.77-1.88-.85-2.88-.16-1.34-.24-2.69-.24-4.04v-16.25c.08-1.62-.37-3.21-1.27-4.56-.85-1.15-1.97-2.08-3.27-2.69-1.39-.66-2.88-1.11-4.4-1.3-1.6-.22-3.2-.34-4.81-.34-1.73,0-3.46,.17-5.16,.52-1.62,.31-3.19,.89-4.63,1.72-1.36,.8-2.51,1.89-3.38,3.2-.94,1.5-1.47,3.22-1.52,5h8.76c.02-1.39,.63-2.71,1.69-3.63,1.18-.78,2.58-1.16,3.99-1.09,.72,0,1.43,.05,2.14,.15,.62,.08,1.21,.29,1.75,.61,.51,.31,.92,.75,1.21,1.27,.33,.68,.48,1.44,.44,2.2,.1,.76-.2,1.52-.78,2.02-.67,.52-1.46,.88-2.3,1.06Zm2.88,3.76h0v3.31c0,.64-.06,1.29-.14,1.92-.12,.81-.39,1.58-.8,2.28-.5,.85-1.2,1.54-2.06,2.02-1.2,.63-2.57,.92-3.92,.85-.66,0-1.34-.06-1.99-.17-.6-.11-1.17-.33-1.69-.64-.48-.3-.87-.73-1.14-1.23-.3-.6-.44-1.26-.42-1.92-.02-.69,.12-1.38,.42-2,.27-.51,.65-.95,1.12-1.3,.5-.36,1.05-.63,1.63-.81,.63-.2,1.27-.37,1.92-.49,.69-.12,1.41-.21,2.06-.3,.64-.09,1.3-.18,1.92-.3,.6-.12,1.17-.27,1.75-.46,.5-.15,.95-.41,1.35-.74h0Z"/><polygon points="745.29 34.61 745.29 34.6 745.29 34.6 745.29 34.61"/><path d="M809.38,44.3h-8.27c-.18,1.72-.91,3.35-2.09,4.63-1.27,1.21-2.99,1.84-4.74,1.72-1.19,.03-2.37-.28-3.38-.9-.91-.59-1.66-1.38-2.2-2.33-.56-.99-.96-2.06-1.18-3.17-.23-1.13-.36-2.29-.36-3.44s.12-2.38,.36-3.54c.24-1.14,.65-2.25,1.24-3.26,.57-.96,1.35-1.79,2.27-2.41,1.02-.66,2.21-1,3.43-.96v.02c3.66,0,5.78,1.8,6.34,5.38h8.4c-.11-3.55-1.87-6.84-4.74-8.91-1.38-1-2.94-1.75-4.6-2.2-1.74-.49-3.54-.73-5.35-.73-2.31-.04-4.6,.39-6.73,1.27-1.91,.8-3.63,2.01-5.02,3.54-1.39,1.56-2.45,3.38-3.11,5.38-.73,2.17-1.09,4.44-1.07,6.73-.02,2.2,.37,4.38,1.15,6.43,.72,1.88,1.81,3.6,3.2,5.05,1.41,1.43,3.11,2.56,4.98,3.29,2.05,.81,4.23,1.21,6.43,1.18,3.68,.15,7.3-1,10.21-3.26,2.63-2.18,4.25-5.34,4.81-9.49Z"/><polygon points="822.25 25.04 813.69 25.12 813.69 56.27 822.25 56.27 822.25 25.04"/><polygon points="822.25 13.13 813.69 13.13 813.69 20.2 822.25 20.23 822.25 13.13"/><polygon points="854.61 8.85 845.22 8.85 838.81 19.54 844.76 19.54 854.61 8.85"/><path d="M843.34,57.05c2.28,.03,4.54-.36,6.67-1.14,1.92-.72,3.66-1.85,5.11-3.3,1.43-1.48,2.54-3.23,3.26-5.16,1.54-4.38,1.54-9.17,0-13.56-.71-1.94-1.82-3.71-3.26-5.2-1.45-1.45-3.19-2.59-5.11-3.32-2.13-.82-4.39-1.21-6.67-1.18-2.27-.04-4.53,.37-6.64,1.18-1.9,.74-3.63,1.87-5.08,3.32-1.44,1.48-2.56,3.26-3.26,5.2-1.53,4.39-1.53,9.16,0,13.56,.71,1.93,1.82,3.69,3.26,5.16,1.44,1.45,3.17,2.57,5.08,3.3,2.13,.79,4.37,1.17,6.64,1.14Zm-7.55-16.38c0-1.24,.12-2.47,.36-3.68,.21-1.13,.63-2.22,1.24-3.2,1.27-2.05,3.55-3.25,5.95-3.14,1.28-.04,2.54,.26,3.65,.88,.96,.55,1.77,1.33,2.36,2.26,.6,.99,1.02,2.07,1.24,3.2,.24,1.21,.36,2.44,.36,3.68s-.12,2.45-.36,3.65c-.23,1.13-.64,2.21-1.24,3.2-.58,.94-1.39,1.72-2.36,2.27-1.13,.6-2.38,.89-3.65,.85-1.26,.05-2.51-.24-3.63-.85-.95-.55-1.75-1.33-2.33-2.27-.61-.98-1.02-2.07-1.24-3.2-.24-1.2-.36-2.42-.36-3.65Z"/><path d="M285,112.36c1.15,1.56,2.64,2.82,4.38,3.68,1.91,.93,4.03,1.4,6.16,1.36,1.9,.03,3.79-.35,5.53-1.12,1.66-.78,3.05-2.06,3.95-3.65l.13,.11v3.99h8.15v-43.14h-8.58v15.61h-.13c-.95-1.52-2.33-2.73-3.96-3.48-1.65-.78-3.45-1.17-5.28-1.17-4.05-.12-7.9,1.73-10.36,4.95-1.18,1.55-2.06,3.3-2.6,5.16-.59,1.97-.88,4.01-.88,6.07,0,2.13,.29,4.24,.88,6.29,.54,1.92,1.41,3.73,2.6,5.35Zm5.49-15.06c.23-1.13,.66-2.19,1.27-3.16,.59-.92,1.38-1.69,2.33-2.24,1.1-.6,2.33-.88,3.57-.85,1.22-.05,2.43,.25,3.5,.85,.91,.56,1.69,1.31,2.27,2.2,.61,.96,1.02,2.03,1.23,3.14,.25,1.22,.37,2.46,.37,3.71,0,1.26-.12,2.52-.37,3.75-.21,1.13-.62,2.23-1.2,3.23-.55,.93-1.33,1.71-2.27,2.26-1.08,.6-2.3,.89-3.53,.85-1.2,.04-2.38-.27-3.41-.87-.94-.58-1.75-1.36-2.36-2.29-.64-.99-1.11-2.08-1.36-3.23-.28-1.19-.42-2.4-.42-3.63,0-1.25,.13-2.5,.38-3.72Z"/><path d="M333.41,117.4c3.19,.1,6.34-.74,9.06-2.41,2.49-1.61,4.35-4.29,5.56-8.04h-7.55c-.43,1.15-1.24,2.13-2.3,2.75-3.13,1.92-7.13,1.69-10.03-.57h0v.04c-1.29-1.23-1.99-3.27-2.12-6.04h22.53c.17-2.34-.03-4.68-.6-6.95-.53-2.13-1.46-4.14-2.75-5.92-1.28-1.74-2.94-3.15-4.87-4.13-2.15-1.07-4.54-1.6-6.94-1.54-2.23-.03-4.44,.4-6.5,1.27-3.85,1.62-6.85,4.75-8.31,8.65-.77,2.09-1.16,4.3-1.14,6.53-.03,2.26,.36,4.52,1.13,6.64,.69,1.92,1.77,3.69,3.16,5.19,1.4,1.47,3.12,2.62,5.01,3.36,2.13,.81,4.38,1.21,6.65,1.17Zm-6.98-21.8c.24-.8,.62-1.54,1.15-2.18,.6-.72,1.34-1.31,2.17-1.72,1.07-.5,2.23-.73,3.4-.69,1.73-.13,3.44,.48,4.68,1.69h-.05c1.16,1.41,1.9,3.13,2.14,4.95h-13.9c.06-.69,.19-1.38,.39-2.05Z"/><path d="M388.38,73.51l-20.36,.08v43.06h20.93c1.9,0,3.8-.25,5.64-.73,1.75-.44,3.41-1.2,4.89-2.23,1.43-1.01,2.6-2.35,3.41-3.89,1.91-4.04,1.65-8.77-.69-12.57-1.44-2-3.56-3.43-5.95-4.02,1.75-.78,3.26-2,4.38-3.56,1.04-1.63,1.56-3.52,1.48-5.44,.07-1.74-.26-3.47-.96-5.07-.63-1.33-1.6-2.46-2.81-3.3-1.33-.87-2.81-1.47-4.36-1.78-1.85-.38-3.73-.57-5.62-.55h0Zm6.35,30.06c.04,.96-.16,1.91-.58,2.78-.36,.69-.88,1.29-1.54,1.72-.68,.44-1.44,.75-2.24,.9-.88,.18-1.76,.27-2.65,.27h-10.14v-11.84h10.33c1.76-.09,3.5,.41,4.95,1.42,1.25,.93,1.88,2.52,1.88,4.74Zm-3.75-21.72c.61,.37,1.11,.88,1.45,1.51,.39,.77,.58,1.63,.54,2.48,.13,1.5-.47,2.96-1.62,3.92-1.22,.85-2.68,1.27-4.17,1.21h-9.6v-10.09h8.88c.82,0,1.63,.07,2.44,.21,.73,.13,1.44,.38,2.09,.75Z"/><path d="M418.07,85.12c-1.63,.32-3.19,.89-4.63,1.72-1.36,.8-2.51,1.89-3.38,3.2-.94,1.51-1.46,3.24-1.51,5.02h8.76c.02-1.39,.63-2.71,1.69-3.63,1.17-.79,2.58-1.17,3.99-1.09,.71,0,1.42,.05,2.13,.14,.62,.09,1.22,.3,1.76,.61,.5,.31,.92,.75,1.2,1.27,.34,.68,.5,1.44,.46,2.2,.09,.77-.2,1.53-.79,2.03-.68,.52-1.46,.88-2.3,1.06-1.09,.26-2.2,.44-3.32,.54-1.28,.13-2.57,.29-3.85,.49-1.3,.2-2.58,.47-3.85,.81-1.21,.32-2.36,.84-3.38,1.55-1.01,.71-1.84,1.65-2.41,2.74-.68,1.36-1.01,2.87-.96,4.38-.04,1.43,.24,2.85,.81,4.16,.52,1.13,1.3,2.12,2.27,2.88,1.01,.78,2.15,1.36,3.38,1.69,1.36,.37,2.76,.54,4.16,.54,1.92,0,3.84-.28,5.68-.85,1.83-.56,3.48-1.58,4.81-2.95,.04,.52,.12,1.03,.21,1.54,.11,.5,.23,.99,.39,1.48h8.65c-.48-.89-.77-1.88-.85-2.88-.16-1.35-.24-2.69-.24-4.05v-16.25c.08-1.62-.37-3.22-1.28-4.56-.85-1.14-1.96-2.07-3.25-2.68-1.39-.66-2.88-1.11-4.41-1.3-1.6-.23-3.2-.34-4.81-.34-1.73,0-3.46,.17-5.16,.51Zm10.33,19.48c-.02,.64-.07,1.29-.15,1.92-.12,.84-.39,1.65-.82,2.38-.5,.84-1.2,1.54-2.05,2.03-1.21,.63-2.57,.92-3.93,.85-.66,0-1.34-.06-1.99-.18-.6-.11-1.17-.32-1.69-.63-.49-.31-.88-.73-1.15-1.24-.3-.6-.44-1.26-.42-1.92-.03-.69,.12-1.38,.42-1.99,.28-.51,.66-.95,1.13-1.3,.49-.37,1.04-.63,1.62-.82,.63-.2,1.27-.37,1.92-.48,.67-.13,1.4-.23,2.05-.31,.64-.08,1.3-.17,1.92-.3,.6-.12,1.17-.27,1.75-.45,.5-.15,.97-.41,1.37-.76h.03v3.2Z"/><path d="M455.06,86.41c-1.78,1.17-3.16,2.85-3.99,4.81h-.12v-5.77l-8.11,.05v31.15h8.58v-14.08c0-1.32,.13-2.63,.42-3.92,.25-1.14,.73-2.22,1.41-3.17,.68-.92,1.6-1.66,2.63-2.14,1.25-.56,2.62-.83,3.98-.79,1.04,0,2.07,.12,3.09,.31v-7.98c-.61-.18-1.24-.29-1.88-.3-1.07,0-2.13,.16-3.14,.48s-1.99,.78-2.88,1.37Z"/><path d="M467.84,113.01c1.4,1.44,3.11,2.57,4.98,3.3,2.05,.81,4.23,1.2,6.43,1.17,3.68,.15,7.29-1,10.2-3.26,2.64-2.17,4.24-5.34,4.81-9.48h-8.28c-.18,1.72-.91,3.35-2.09,4.63-1.27,1.21-2.99,1.83-4.74,1.71-1.19,.04-2.37-.28-3.38-.9-.91-.59-1.67-1.38-2.2-2.33-.57-.98-.96-2.05-1.18-3.16-.24-1.13-.37-2.29-.37-3.45s.13-2.37,.37-3.53c.22-1.14,.64-2.25,1.24-3.26,.56-.97,1.34-1.8,2.26-2.42,1.02-.66,2.22-1,3.43-.96v.04c3.66,0,5.79,1.79,6.35,5.38h8.39c-.08-1.83-.57-3.62-1.45-5.22-.82-1.45-1.94-2.71-3.29-3.68-1.38-1.01-2.94-1.76-4.6-2.21-1.74-.48-3.53-.72-5.34-.72-2.31-.04-4.6,.39-6.73,1.27-1.9,.8-3.62,2-5.01,3.53-1.39,1.56-2.46,3.38-3.12,5.38-.72,2.17-1.08,4.44-1.06,6.73-.02,2.19,.37,4.38,1.14,6.43,.72,1.88,1.81,3.6,3.21,5.04Z"/><path d="M506.26,85.91c-3.85,1.62-6.85,4.75-8.31,8.65-.78,2.09-1.16,4.3-1.14,6.53-.03,2.26,.35,4.51,1.12,6.64,.69,1.92,1.78,3.69,3.17,5.19,1.4,1.47,3.12,2.62,5.01,3.36,2.12,.81,4.38,1.21,6.64,1.17,3.19,.1,6.35-.74,9.07-2.41,2.5-1.61,4.35-4.29,5.55-8.04h-7.55c-.42,1.15-1.24,2.13-2.3,2.75-3.13,1.92-7.13,1.69-10.02-.57h0l-.05,.04c-1.29-1.23-2-3.27-2.12-6.04h22.53c.17-2.34-.04-4.68-.61-6.95-.53-2.13-1.46-4.14-2.75-5.92-1.26-1.73-2.9-3.14-4.81-4.13-2.15-1.07-4.55-1.6-6.95-1.54-2.23-.03-4.43,.4-6.49,1.27Zm10.93,6.85c1.16,1.42,1.9,3.13,2.14,4.95h-13.95c.05-.69,.18-1.38,.39-2.05,.23-.8,.62-1.54,1.14-2.18,.6-.72,1.34-1.31,2.17-1.72,1.07-.5,2.24-.73,3.41-.69,1.73-.13,3.44,.48,4.68,1.69Z"/><polygon points="541.02 73.54 532.45 73.59 532.45 116.68 541.02 116.68 541.02 73.54"/><path d="M562.13,117.53c2.28,.03,4.54-.36,6.67-1.14,1.9-.75,3.63-1.88,5.05-3.35,1.43-1.48,2.54-3.23,3.26-5.16,.79-2.15,1.17-4.43,1.14-6.73,.04-2.32-.36-4.63-1.14-6.8-.71-1.94-1.83-3.71-3.26-5.19-1.45-1.45-3.19-2.59-5.11-3.33-2.13-.81-4.39-1.2-6.67-1.17-2.23-.04-4.45,.34-6.55,1.12-3.88,1.49-6.93,4.6-8.34,8.52h0l-.04,.12c-.8,2.17-1.18,4.48-1.15,6.8-.03,2.3,.37,4.58,1.15,6.73,.71,1.93,1.83,3.69,3.26,5.16,1.44,1.44,3.17,2.56,5.08,3.29,2.13,.79,4.38,1.17,6.64,1.14Zm-7.51-16.44c0-1.24,.12-2.47,.36-3.68,.21-1.13,.63-2.22,1.24-3.2,1.26-2.06,3.54-3.27,5.95-3.14,1.28-.04,2.54,.26,3.65,.87,.95,.56,1.76,1.34,2.36,2.27,.61,.98,1.03,2.07,1.23,3.2,.25,1.21,.37,2.44,.37,3.68,0,1.23-.12,2.45-.37,3.65-.21,1.13-.63,2.22-1.23,3.2-.58,.94-1.39,1.72-2.36,2.26-1.13,.6-2.38,.89-3.65,.85-1.26,.05-2.51-.24-3.63-.85-.95-.55-1.76-1.32-2.33-2.26-.61-.98-1.02-2.07-1.24-3.2h0c-.24-1.2-.36-2.42-.36-3.65Z"/><path d="M591.71,100.33c0-3.18,.52-5.47,1.57-6.86,1.05-1.38,2.74-2.09,5.07-2.09,2.06,0,3.49,.64,4.3,1.92,.91,1.78,1.34,3.77,1.2,5.77v17.64h8.59v-19.23c0-1.78-.16-3.55-.52-5.29-.29-1.46-.89-2.85-1.78-4.05-.91-1.15-2.12-2.05-3.48-2.6-1.8-.69-3.72-1.02-5.64-.96-1.85,0-3.66,.43-5.32,1.24-1.77,.87-3.24,2.24-4.22,3.95h-.19v-4.35h0l-8.14,.05v31.18h8.58v-16.35Z"/><path d="M633.21,116.59c1.83-.56,3.48-1.58,4.81-2.95,.04,.52,.11,1.03,.2,1.54,.11,.5,.23,.99,.39,1.48h8.7c-.48-.89-.77-1.88-.85-2.88-.16-1.35-.24-2.69-.24-4.05v-16.25c.08-1.62-.37-3.21-1.27-4.56-.85-1.14-1.97-2.07-3.26-2.68-1.39-.66-2.88-1.11-4.41-1.3-1.6-.23-3.2-.34-4.81-.34-1.73,0-3.46,.17-5.16,.51-1.63,.32-3.19,.89-4.63,1.72-1.36,.8-2.51,1.89-3.38,3.2-.94,1.51-1.46,3.24-1.51,5.02h8.72c.02-1.39,.63-2.71,1.69-3.63,1.17-.79,2.58-1.17,3.99-1.09,.72,0,1.43,.05,2.14,.14,.62,.09,1.21,.3,1.75,.61,.5,.31,.92,.75,1.2,1.27,.34,.68,.5,1.44,.46,2.2,.09,.77-.2,1.53-.79,2.03-.68,.52-1.46,.87-2.3,1.06-1.09,.26-2.2,.44-3.32,.54-1.28,.13-2.57,.29-3.85,.49-1.3,.2-2.58,.47-3.85,.81-1.21,.32-2.36,.84-3.38,1.55-1.01,.71-1.84,1.65-2.41,2.74-.68,1.36-1.01,2.87-.96,4.38-.04,1.43,.24,2.85,.81,4.16,.52,1.13,1.3,2.12,2.27,2.88,1.01,.78,2.15,1.36,3.38,1.69,1.36,.37,2.76,.54,4.16,.54,1.92,0,3.84-.28,5.68-.85Zm-7.36-6.88c-.3-.6-.45-1.26-.42-1.92-.03-.69,.12-1.38,.42-1.99,.27-.51,.65-.95,1.12-1.3,.5-.37,1.05-.63,1.63-.82,.63-.2,1.27-.37,1.92-.48,.67-.13,1.4-.23,2.05-.31,.64-.08,1.3-.17,1.92-.3,.6-.12,1.18-.27,1.76-.45,.5-.15,.96-.41,1.36-.76h.02v3.2c-.02,.64-.07,1.29-.15,1.92-.12,.84-.39,1.65-.82,2.38-.5,.84-1.2,1.54-2.05,2.03-1.21,.63-2.57,.92-3.93,.85-.66,0-1.34-.06-1.99-.18-.6-.11-1.17-.32-1.69-.63-.49-.3-.88-.73-1.14-1.24Z"/><path d="M317.13,177.43v-20.01h-16.7v3.2h13.42c.06,1.95-.22,3.9-.83,5.77-.54,1.69-1.43,3.24-2.63,4.56-1.2,1.31-2.68,2.34-4.33,3.01-1.84,.73-3.8,1.11-5.77,1.08-2.33,.06-4.64-.45-6.73-1.49-1.82-.94-3.38-2.3-4.6-3.94-1.21-1.68-2.12-3.57-2.64-5.57-1.14-4.14-1.14-8.51,0-12.65,.54-1.99,1.43-3.87,2.64-5.54,1.21-1.64,2.78-3,4.6-3.94,2.09-1.04,4.4-1.55,6.73-1.49,1.73-.03,3.45,.29,5.07,.91,1.4,.56,2.71,1.35,3.85,2.35,1.04,.9,1.91,1.97,2.59,3.16,.62,1.06,1,2.23,1.13,3.44h3.74c-.31-2-.99-3.93-2.03-5.67-.96-1.57-2.19-2.95-3.64-4.08-1.47-1.13-3.13-1.96-4.9-2.48-1.89-.56-3.87-.84-5.85-.83-2.8-.07-5.58,.51-8.13,1.68-2.24,1.06-4.21,2.61-5.77,4.52-1.57,1.93-2.75,4.14-3.47,6.53-1.55,5.07-1.55,10.48,0,15.55,.72,2.38,1.9,4.58,3.47,6.5,1.57,1.9,3.54,3.44,5.77,4.5,2.55,1.16,5.33,1.73,8.13,1.67,1.4,0,2.8-.14,4.16-.43,1.32-.29,2.6-.77,3.78-1.41,1.19-.65,2.28-1.49,3.22-2.48,1.01-1.06,1.84-2.28,2.45-3.61h.12l.5,7.13h0l2.64,.07Z"/><path d="M335.12,178.09c3.61,0,6.38-.88,8.36-2.64,2.11-2.01,3.52-4.63,4.05-7.5h-3.47c-.44,2.02-1.48,3.87-2.98,5.3-1.65,1.39-3.79,2.11-5.95,1.98-1.48,.05-2.95-.32-4.24-1.05-1.13-.67-2.12-1.57-2.88-2.64-.78-1.09-1.36-2.31-1.68-3.61l-.02,.03c-.34-1.26-.51-2.55-.52-3.85h21.89c.07-1.97-.12-3.95-.56-5.88-.4-1.83-1.14-3.57-2.18-5.13-2.16-3.26-5.88-5.15-9.78-4.99-2.02-.08-4.02,.35-5.84,1.23-1.58,.82-2.94,1.98-3.99,3.41-1.05,1.45-1.82,3.08-2.29,4.81-.5,1.8-.75,3.64-.75,5.51,0,1.95,.24,3.88,.75,5.77,.45,1.73,1.23,3.37,2.29,4.81,1.05,1.39,2.41,2.51,3.99,3.25,1.83,.83,3.82,1.23,5.82,1.18Zm-8.42-20.71c.43-1.18,1.06-2.28,1.85-3.25,.77-.94,1.73-1.71,2.82-2.26,2.38-1.14,5.16-1.14,7.55,0,1.09,.55,2.04,1.32,2.81,2.26,.79,.95,1.39,2.05,1.8,3.22v-.04c.42,1.24,.65,2.54,.68,3.85h-18.4c.14-1.29,.44-2.56,.9-3.78Z"/><path d="M355.77,160.81c.03-1.31,.26-2.61,.68-3.85,.39-1.13,.99-2.17,1.77-3.08,.75-.88,1.69-1.6,2.74-2.09,1.17-.51,2.44-.76,3.72-.74,1.2-.04,2.39,.19,3.5,.66,.88,.4,1.65,1.03,2.23,1.82,.58,.82,.97,1.75,1.15,2.73,.23,1.12,.34,2.25,.34,3.38v17.7h3.47v-18.27c.02-1.54-.15-3.08-.5-4.58-.29-1.27-.87-2.44-1.7-3.44-.88-.99-1.99-1.74-3.23-2.18-1.61-.56-3.3-.82-4.99-.77-1.96,0-3.88,.56-5.54,1.61-1.61,.96-2.85,2.42-3.53,4.16h-.11v-5.01l-3.48,.09v28.43h3.47v-16.59Z"/><path d="M387.52,176.87c1.83,.83,3.82,1.23,5.82,1.18,3.6,0,6.42-.88,8.35-2.64,2.11-2.01,3.53-4.63,4.06-7.5h-3.48c-.44,2.02-1.48,3.87-2.97,5.3-1.65,1.39-3.79,2.11-5.95,1.98-1.48,.05-2.95-.32-4.24-1.05-1.13-.67-2.12-1.57-2.88-2.64-.79-1.09-1.36-2.31-1.68-3.61l-.04-.04c-.34-1.25-.52-2.55-.53-3.85h21.89c.08-1.97-.11-3.95-.55-5.88-.4-1.83-1.14-3.57-2.18-5.13-2.16-3.26-5.88-5.15-9.78-4.99-2.02-.05-4.02,.39-5.82,1.3-1.58,.81-2.94,1.98-3.99,3.41-1.05,1.45-1.83,3.08-2.3,4.81-.49,1.8-.74,3.64-.74,5.51,0,1.95,.24,3.88,.74,5.77,.45,1.73,1.23,3.37,2.3,4.81,1.04,1.39,2.41,2.51,3.99,3.25Zm-2.64-19.53c.43-1.18,1.06-2.28,1.85-3.25,.77-.94,1.73-1.71,2.81-2.26,1.19-.6,2.51-.88,3.85-.86,1.3-.02,2.59,.27,3.75,.86,1.09,.55,2.04,1.32,2.81,2.26,.78,.96,1.38,2.05,1.79,3.22h0l-.04-.04c.43,1.24,.66,2.54,.69,3.85h-18.41c.15-1.29,.46-2.56,.91-3.78Z"/><path d="M410.58,148.97v28.32h3.47v-15.15c-.02-1.42,.24-2.84,.77-4.16,.49-1.23,1.23-2.35,2.17-3.28,.95-.93,2.09-1.65,3.34-2.13,1.37-.51,2.84-.72,4.3-.63v-3.47c-2.34-.16-4.66,.43-6.63,1.7-1.9,1.31-3.34,3.18-4.11,5.36h-.12v-6.67l-3.19,.13Z"/><path d="M429.18,176.05c.89,.7,1.93,1.2,3.03,1.49,1.21,.32,2.46,.46,3.72,.46,1.22,.02,2.43-.11,3.62-.38,.95-.24,1.86-.61,2.7-1.1,.8-.49,1.52-1.1,2.14-1.8,.7-.77,1.34-1.59,1.92-2.45h.11c0,.67,.04,1.35,.13,2.01,.09,.56,.28,1.1,.59,1.58,.31,.45,.74,.81,1.24,1.02,.67,.27,1.4,.38,2.13,.36,.39,0,.79-.02,1.18-.06,.32-.03,.67-.09,1.08-.16v-2.88c-.35,.15-.72,.22-1.11,.22-.17,.03-.35,.03-.51,0-.99-.14-1.68-1.08-1.53-2.08v-15.11c.05-1.61-.28-3.2-.96-4.66-.57-1.12-1.39-2.07-2.42-2.78-1.02-.67-2.16-1.13-3.37-1.36-1.24-.24-2.5-.36-3.76-.36-1.52-.02-3.04,.16-4.51,.55-1.29,.34-2.49,.91-3.56,1.71-1.02,.78-1.85,1.8-2.39,2.96v-.03c-.62,1.36-.97,2.81-1.05,4.3h3.48c.07-2.32,.81-4,2.2-5.05,1.58-1.11,3.48-1.65,5.4-1.57,.97,0,1.93,.08,2.88,.25,.85,.13,1.64,.44,2.37,.9,.68,.44,1.24,1.07,1.61,1.8,.41,.9,.62,1.89,.58,2.88,.02,.63-.08,1.28-.3,1.88-.18,.45-.48,.84-.87,1.13-.4,.3-.88,.5-1.38,.58-.63,.13-1.28,.22-1.92,.28-1.88,.22-3.72,.45-5.54,.69-1.68,.2-3.33,.62-4.9,1.23-1.37,.54-2.58,1.42-3.5,2.57-.95,1.36-1.41,3-1.32,4.65-.03,1.28,.22,2.56,.74,3.73,.47,1.01,1.16,1.89,2.04,2.59Zm1.92-9.71c.91-.8,2-1.39,3.16-1.74,1.39-.42,2.83-.72,4.28-.9,1.56-.2,3.07-.43,4.54-.69,.57-.09,1.12-.21,1.66-.38,.53-.11,.98-.42,1.26-.88h.15v4.52c.05,2.52-1.03,4.93-2.95,6.57-.93,.79-2,1.38-3.16,1.76-1.24,.41-2.54,.61-3.85,.61-.81,0-1.61-.13-2.38-.38-.74-.24-1.43-.63-2.03-1.13-.59-.49-1.07-1.09-1.41-1.77-.37-.73-.55-1.53-.53-2.35-.08-1.2,.38-2.38,1.25-3.22Z"/><polygon points="456.59 177.28 460.06 177.28 460.06 137.93 456.59 138.05 456.59 177.28"/><polygon points="466.79 177.28 470.26 177.28 470.26 148.84 466.79 148.97 466.79 177.28"/><rect x="466.79" y="137.93" width="3.47" height="5.57"/><path d="M480.36,176.13c.89,.9,2.49,1.36,4.81,1.36,.51,0,1.02,0,1.54-.06s1.03-.06,1.55-.06v-2.88c-.99,.12-1.98,.17-2.98,.17-1.25-.12-2.03-.43-2.34-1.08-.36-.85-.52-1.76-.47-2.67v-19.18h5.77v-2.88l-5.72,.13v-8.55h-3.48v8.58h-4.95v2.88h4.95v19.25c-.04,2.43,.37,4.1,1.33,4.99Z"/><path d="M504.83,177.62c.95-.23,1.86-.61,2.7-1.1,.8-.49,1.53-1.1,2.15-1.8,.69-.77,1.34-1.6,1.92-2.45h.12c0,.67,.04,1.35,.13,2.01,.08,.56,.28,1.11,.59,1.58,.3,.45,.73,.81,1.23,1.02,.67,.26,1.4,.38,2.13,.36,.39,0,.79-.02,1.18-.06,.32-.03,.67-.09,1.08-.16v-2.88c-.35,.15-.72,.22-1.11,.22-.17,.03-.35,.03-.51,0-.99-.14-1.68-1.08-1.53-2.08v-15.11c.06-1.61-.27-3.21-.96-4.66-.56-1.12-1.39-2.08-2.42-2.78-1.02-.67-2.16-1.13-3.37-1.36-1.24-.24-2.49-.36-3.75-.36-1.53-.02-3.05,.16-4.52,.55-1.29,.34-2.49,.91-3.56,1.71-1.02,.79-1.85,1.81-2.39,2.98h0l-.07-.05c-.63,1.36-.98,2.81-1.05,4.3h3.55c.08-2.32,.81-4,2.2-5.05,1.58-1.1,3.48-1.65,5.4-1.57,.97,0,1.93,.08,2.88,.25,.85,.14,1.65,.44,2.38,.9,.68,.45,1.23,1.07,1.6,1.8,.41,.9,.62,1.89,.58,2.88,.03,.63-.08,1.28-.3,1.88-.18,.45-.47,.84-.86,1.13-.41,.3-.88,.49-1.38,.58-.55,.12-1.19,.2-1.92,.28-1.88,.22-3.72,.45-5.54,.69-1.68,.2-3.33,.62-4.9,1.23-1.38,.54-2.59,1.42-3.51,2.57-.95,1.36-1.41,3-1.32,4.65-.03,1.28,.22,2.56,.74,3.73,.47,1.01,1.17,1.89,2.04,2.59,.9,.7,1.93,1.2,3.04,1.49,1.21,.32,2.46,.46,3.71,.46,1.22,.02,2.43-.11,3.62-.38Zm-7.74-3.94c-.59-.49-1.06-1.1-1.41-1.77-.36-.73-.54-1.54-.52-2.35-.08-1.2,.38-2.38,1.24-3.22,.92-.8,2-1.39,3.17-1.74,1.39-.42,2.83-.72,4.27-.9,1.56-.2,3.08-.43,4.55-.69,.56-.09,1.12-.21,1.65-.38,.53-.11,.99-.42,1.27-.88h.14v4.52c.03,1.3-.25,2.58-.8,3.75-.51,1.08-1.24,2.04-2.14,2.82-.93,.79-2.01,1.38-3.17,1.76-1.24,.41-2.54,.61-3.85,.61-.81,0-1.61-.12-2.37-.38-.74-.24-1.43-.63-2.04-1.13Z"/><path d="M531.62,177.43c.51-.06,1.02-.06,1.54-.06v-2.88c-.99,.12-1.98,.17-2.97,.17-1.25-.12-2.04-.43-2.35-1.08-.36-.85-.52-1.76-.47-2.67v-19.18h5.77v-2.88h0l-5.77,.13v-8.55h-3.47v8.58h-4.96v2.88h4.96v19.25c-.05,2.42,.39,4.09,1.32,4.99s2.54,1.36,4.86,1.36c.51,0,1.04,0,1.55-.06Z"/><path d="M563.56,178.01c1.06,0,2.11-.14,3.12-.43,1.03-.29,2.02-.71,2.95-1.24,.9-.52,1.73-1.16,2.45-1.92,.69-.74,1.25-1.6,1.62-2.54h.11v5.4h0l3.24-.14v-39.36h-3.47v16.35h-.12c-.35-.99-.88-1.91-1.57-2.7-.68-.75-1.47-1.4-2.34-1.92-.89-.53-1.88-.93-2.88-1.18-2.93-.71-6.02-.42-8.77,.83-1.56,.78-2.92,1.9-3.99,3.28-1.1,1.43-1.89,3.07-2.38,4.81-1.03,3.78-1.03,7.76,0,11.54,.47,1.74,1.28,3.38,2.38,4.81,1.07,1.38,2.43,2.49,3.99,3.25,1.77,.83,3.7,1.23,5.65,1.18Zm-7.13-6.72c-.78-1.17-1.34-2.48-1.65-3.85v.02c-.7-2.88-.7-5.88,0-8.77,.32-1.37,.88-2.67,1.65-3.85,.74-1.13,1.73-2.09,2.88-2.79,1.29-.74,2.76-1.12,4.24-1.07,3.08-.15,6.01,1.31,7.74,3.85,.81,1.16,1.38,2.47,1.71,3.85,.7,2.88,.7,5.88,0,8.77-.32,1.38-.9,2.68-1.71,3.85-1.73,2.54-4.66,4-7.74,3.85-1.48,.05-2.95-.33-4.24-1.07-1.15-.7-2.14-1.65-2.88-2.79Z"/><path d="M595.01,178.01c3.6,0,6.42-.88,8.35-2.64,2.11-2.01,3.53-4.63,4.05-7.5h-3.47c-.44,2.02-1.48,3.87-2.97,5.3-1.65,1.39-3.79,2.11-5.95,1.98-1.48,.05-2.95-.32-4.25-1.05-1.13-.67-2.12-1.58-2.88-2.64-.78-1.09-1.35-2.31-1.67-3.61l-.04-.04c-.34-1.25-.52-2.55-.53-3.85h21.89c.08-1.97-.12-3.95-.55-5.88-.4-1.83-1.14-3.57-2.18-5.13-2.17-3.25-5.88-5.14-9.78-4.99-2.02-.05-4.01,.39-5.82,1.3-1.58,.82-2.95,1.98-4,3.41-1.05,1.45-1.82,3.08-2.29,4.81-.5,1.8-.74,3.64-.74,5.51,0,1.95,.23,3.88,.74,5.77,.45,1.73,1.23,3.37,2.29,4.81,1.05,1.39,2.42,2.51,4,3.25,1.83,.83,3.82,1.23,5.82,1.18Zm-8.46-20.71c.42-1.18,1.05-2.28,1.85-3.25,.77-.94,1.72-1.71,2.81-2.26,1.19-.6,2.51-.88,3.85-.86,1.3-.02,2.59,.27,3.75,.86,1.08,.56,2.04,1.33,2.81,2.26,.78,.96,1.38,2.05,1.79,3.22h0l-.04-.04c.43,1.24,.66,2.54,.69,3.85h-18.41c.14-1.29,.45-2.56,.91-3.78Z"/><path d="M643.42,178.04c2.15,.03,4.29-.35,6.31-1.1,1.85-.7,3.52-1.78,4.94-3.14,1.44-1.42,2.6-3.11,3.41-4.96,.91-2.08,1.49-4.3,1.71-6.56h-3.75c-.16,1.7-.6,3.37-1.27,4.93-.62,1.47-1.5,2.82-2.59,3.99-1.09,1.15-2.39,2.08-3.85,2.7-1.57,.67-3.26,1-4.96,.96-2.34,.07-4.64-.45-6.73-1.49-1.82-.94-3.39-2.29-4.61-3.94-1.21-1.68-2.12-3.57-2.64-5.57-1.14-4.14-1.14-8.51,0-12.65,.54-1.99,1.43-3.87,2.64-5.54,1.21-1.65,2.79-3,4.61-3.94,2.09-1.04,4.39-1.56,6.73-1.49,1.39,0,2.78,.21,4.11,.63,1.29,.41,2.5,1.04,3.59,1.85,1.1,.83,2.03,1.85,2.75,3.01v.04c.78,1.24,1.33,2.62,1.63,4.05h3.75c-.21-1.93-.85-3.79-1.85-5.45-.95-1.55-2.19-2.9-3.64-4-1.45-1.09-3.08-1.91-4.81-2.45-4.5-1.35-9.33-1.04-13.63,.86-2.23,1.06-4.2,2.61-5.77,4.52-1.57,1.93-2.75,4.14-3.47,6.53-1.55,5.07-1.55,10.48,0,15.55,.72,2.38,1.9,4.58,3.47,6.5,1.58,1.9,3.54,3.43,5.77,4.5,2.55,1.16,5.34,1.73,8.13,1.67Z"/><path d="M666.08,176c.89,.7,1.92,1.21,3.03,1.49,1.21,.32,2.46,.46,3.72,.46,1.21,.02,2.42-.11,3.61-.38,.95-.23,1.86-.61,2.7-1.1,.8-.49,1.53-1.1,2.15-1.8,.69-.77,1.34-1.6,1.92-2.45h.12c0,.67,.04,1.35,.13,2.01,.08,.56,.27,1.1,.58,1.58,.31,.45,.74,.81,1.24,1.02,.67,.27,1.4,.38,2.13,.36,.39,0,.79-.02,1.18-.06,.32-.03,.67-.09,1.08-.16v-2.88c-.35,.15-.72,.22-1.11,.22-.17,.03-.35,.03-.51,0-.99-.14-1.68-1.08-1.53-2.08v-15.11c.06-1.61-.27-3.21-.96-4.66-.56-1.12-1.39-2.08-2.42-2.78-1.02-.67-2.16-1.13-3.37-1.36-1.24-.24-2.49-.36-3.75-.36-1.53-.02-3.05,.16-4.52,.55-1.29,.34-2.49,.92-3.56,1.71-1.02,.79-1.85,1.81-2.39,2.98h0v-.05c-.62,1.36-.97,2.81-1.05,4.3h3.47c.08-2.32,.81-4,2.21-5.05,1.58-1.11,3.47-1.65,5.39-1.57,.97,0,1.93,.08,2.88,.25,.85,.13,1.64,.44,2.37,.9,.69,.44,1.24,1.07,1.61,1.8,.41,.9,.62,1.89,.58,2.88,.03,.63-.08,1.28-.3,1.88-.18,.44-.48,.84-.86,1.13-.4,.3-.88,.49-1.38,.58-.55,.12-1.19,.2-1.92,.28-1.88,.22-3.72,.45-5.55,.69-1.68,.2-3.33,.62-4.9,1.23-1.37,.54-2.57,1.42-3.49,2.57-.95,1.36-1.42,3-1.33,4.65-.03,1.28,.22,2.56,.74,3.73,.47,1.01,1.17,1.89,2.05,2.59Zm1.92-9.71c.92-.8,2-1.39,3.16-1.74,1.39-.42,2.83-.72,4.28-.9,1.56-.2,3.08-.43,4.55-.69,.56-.09,1.12-.21,1.65-.38,.53-.12,.98-.43,1.27-.88h.14v4.52c.02,1.3-.25,2.58-.8,3.75-.51,1.08-1.24,2.04-2.15,2.82-.93,.79-2,1.38-3.16,1.76-1.24,.41-2.54,.61-3.85,.61-.81,0-1.61-.13-2.37-.38-.74-.24-1.43-.63-2.04-1.13-.59-.49-1.06-1.09-1.4-1.77-.37-.73-.55-1.53-.53-2.35-.08-1.2,.38-2.38,1.24-3.22Z"/><path d="M696.87,176.08c.88,.9,2.49,1.36,4.81,1.36,.52,0,1.02,0,1.54-.06s1.03-.06,1.55-.06v-2.88c-.99,.12-1.98,.17-2.98,.17-1.25-.12-2.03-.43-2.34-1.08-.36-.85-.52-1.76-.47-2.67v-19.18h5.77v-2.88l-5.73,.18v-8.55h-3.47v8.58h-4.96v2.88h4.96v19.2c0,2.42,.44,4.09,1.33,4.99Z"/><path d="M732.95,174.3c-1-.14-1.68-1.08-1.53-2.08v-15.11c.06-1.61-.27-3.21-.96-4.66-.56-1.12-1.39-2.08-2.42-2.78-1.02-.67-2.16-1.13-3.37-1.36-1.24-.24-2.49-.36-3.75-.36-1.52-.02-3.05,.17-4.52,.55-1.29,.34-2.49,.92-3.56,1.71-1.02,.79-1.85,1.81-2.39,2.98h0v-.05c-.62,1.36-.97,2.81-1.05,4.3h3.47c.08-2.32,.81-4,2.21-5.05,1.58-1.11,3.48-1.65,5.4-1.57,.97,0,1.93,.08,2.88,.25,.84,.14,1.64,.45,2.37,.9,.68,.45,1.23,1.07,1.6,1.8,.41,.9,.62,1.89,.58,2.88,.03,.63-.08,1.28-.3,1.88-.18,.45-.47,.84-.86,1.13-.4,.3-.88,.49-1.38,.58-.54,.12-1.19,.2-1.92,.28-1.88,.22-3.72,.45-5.54,.69-1.68,.2-3.33,.62-4.9,1.23-1.38,.53-2.58,1.41-3.5,2.57-.95,1.36-1.42,3-1.33,4.65-.03,1.29,.23,2.56,.75,3.73,.47,1.01,1.16,1.89,2.03,2.59,.9,.7,1.93,1.2,3.04,1.49,1.21,.32,2.46,.46,3.72,.46,1.21,.02,2.42-.11,3.61-.38,.95-.23,1.86-.61,2.7-1.1,.81-.49,1.53-1.1,2.15-1.8,.69-.77,1.34-1.6,1.92-2.45h.12c0,.67,.04,1.35,.13,2.01,.08,.56,.28,1.11,.59,1.58,.31,.45,.74,.81,1.24,1.02,.67,.27,1.4,.38,2.13,.36,.39,0,.79-.02,1.18-.06,.31-.03,.66-.09,1.07-.16v-2.88c-.35,.15-.72,.22-1.1,.22-.17,.03-.35,.03-.52,0Zm-4.99-8.1c.03,1.3-.25,2.58-.8,3.75-.51,1.08-1.24,2.04-2.14,2.82-.93,.79-2.01,1.38-3.17,1.76-1.24,.41-2.54,.61-3.85,.61-.81,0-1.61-.12-2.37-.38-.74-.24-1.43-.63-2.04-1.13-.59-.49-1.06-1.1-1.41-1.77-.36-.73-.54-1.54-.52-2.35-.08-1.2,.38-2.38,1.24-3.22,.92-.8,2-1.39,3.17-1.74,1.39-.42,2.83-.72,4.27-.9,1.57-.2,3.08-.43,4.55-.69,.56-.09,1.12-.21,1.65-.38,.53-.11,.99-.42,1.27-.88h.14v4.52Z"/><rect x="738.4" y="138.05" width="3.47" height="39.36"/><path d="M768.11,163.91c0,1.41-.16,2.83-.49,4.21-.3,1.3-.82,2.54-1.54,3.66-.68,1.05-1.59,1.92-2.65,2.57-1.17,.66-2.5,1-3.85,.96-2.76,0-4.69-.66-5.82-1.98-1.24-1.69-1.88-3.75-1.8-5.85v-18.52h-3.47v18.47c-.02,1.52,.17,3.04,.56,4.51,.32,1.24,.91,2.38,1.73,3.37,.84,.95,1.9,1.68,3.1,2.13,1.47,.53,3.03,.78,4.6,.74,2.04,.03,4.05-.5,5.82-1.51,1.75-1.02,3.14-2.55,4-4.38h.11v5.13h3.18v-28.44h-3.47v14.94Z"/><path d="M798.99,151.11c-.88-.98-1.98-1.73-3.22-2.18-1.61-.56-3.3-.82-5-.77-1.96,0-3.89,.53-5.57,1.57-1.61,.96-2.85,2.42-3.52,4.16h-.12v-4.92h-3.47v28.4h3.47v-16.59c.03-1.31,.26-2.61,.69-3.85,.38-1.13,.98-2.17,1.76-3.08,.76-.88,1.7-1.57,2.76-2.05,1.17-.51,2.44-.76,3.72-.74,1.2-.04,2.39,.19,3.5,.66,.88,.4,1.66,1.03,2.23,1.82,.58,.82,.97,1.75,1.15,2.73,.23,1.12,.35,2.25,.34,3.38v17.74h3.47v-18.27c.02-1.54-.15-3.08-.5-4.58-.28-1.27-.87-2.45-1.7-3.44Z"/><path d="M817.62,173.22l-9.37-24.25h0l-3.65-.04,11.36,28.34-1.21,3.19-.83,1.83c-.24,.51-.57,.98-.96,1.39-.37,.4-.8,.73-1.29,.96-.62,.24-1.27,.36-1.92,.34-.4,0-.8-.03-1.19-.09l-1.18-.19v2.88c.33,.12,.67,.18,1.02,.19l1.62,.08c.92,.02,1.84-.08,2.73-.3,.69-.18,1.33-.51,1.88-.96,.6-.54,1.09-1.17,1.46-1.88,.47-.8,.91-1.8,1.43-3.01l12.35-32.74h-3.47l-8.77,24.25Z"/><path d="M834.5,176.19c.89,.7,1.93,1.2,3.03,1.49,1.21,.32,2.46,.46,3.72,.46,1.21,.02,2.42-.11,3.61-.38,.95-.23,1.86-.61,2.7-1.1,.8-.49,1.53-1.1,2.15-1.8,.7-.77,1.34-1.59,1.92-2.45h.11c0,.67,.04,1.35,.13,2.01,.08,.56,.28,1.1,.58,1.58,.32,.45,.75,.8,1.26,1.01,.67,.26,1.4,.38,2.13,.36,.39,0,.79-.02,1.18-.06,.32-.03,.67-.09,1.08-.16v-2.88c-.35,.15-.72,.22-1.11,.22-.17,.03-.35,.03-.52,0-.99-.15-1.66-1.09-1.51-2.08v-15.11c.06-1.61-.27-3.21-.96-4.66-.56-1.12-1.39-2.08-2.42-2.78-1.02-.67-2.16-1.13-3.37-1.36-1.24-.24-2.49-.36-3.75-.36-1.53-.02-3.05,.16-4.52,.55-1.28,.34-2.49,.92-3.55,1.71-1.03,.79-1.86,1.81-2.4,2.98h0l-.02-.04c-.62,1.36-.97,2.81-1.05,4.3h3.47c.08-2.32,.81-4,2.21-5.05,1.58-1.11,3.47-1.65,5.39-1.57,.97,0,1.93,.08,2.88,.25,.85,.14,1.65,.44,2.38,.9,.68,.44,1.24,1.07,1.6,1.8,.41,.9,.62,1.89,.58,2.88,.03,.63-.08,1.28-.3,1.88-.18,.44-.48,.84-.86,1.13-.4,.3-.87,.49-1.37,.58-.55,.12-1.18,.2-1.92,.28-1.88,.22-3.72,.45-5.54,.69-1.68,.19-3.33,.61-4.9,1.23-1.37,.54-2.58,1.42-3.5,2.57-.95,1.36-1.42,3-1.33,4.65-.03,1.28,.22,2.56,.74,3.73,.47,1.01,1.17,1.89,2.05,2.59Zm1.94-9.72c.92-.8,2-1.39,3.17-1.74,1.39-.42,2.83-.72,4.27-.9,1.56-.2,3.08-.43,4.55-.69,.56-.09,1.12-.21,1.65-.38,.53-.11,.99-.42,1.27-.88h.11v4.52c.02,1.3-.25,2.58-.8,3.75-.51,1.08-1.24,2.04-2.15,2.82-.93,.79-2,1.38-3.16,1.76-1.22,.4-2.51,.61-3.8,.61-.81,0-1.61-.13-2.38-.38-.74-.24-1.43-.62-2.04-1.13-.59-.49-1.06-1.09-1.4-1.77-.37-.73-.55-1.53-.53-2.35-.08-1.2,.38-2.38,1.24-3.22Z"/><path d="M299.21,193.18h-4.14l-15.83,39.36h3.97l4.69-12.24h17.91l4.81,12.24h4.02l-15.43-39.36Zm-10.14,23.92l7.88-20.19,7.61,20.19h-15.49Z"/><rect x="316.96" y="193.18" width="3.47" height="5.57"/><path d="M316.97,235.96c.04,1.01-.15,2.02-.56,2.95-.36,.79-1.22,1.18-2.59,1.18-.3,.03-.59,.03-.88,0l-.96-.08v2.88c.4,0,.79,0,1.18,.05s.78,.06,1.19,.06c1.04,.04,2.07-.18,3-.63,.76-.39,1.41-.99,1.88-1.71,.48-.76,.81-1.62,.96-2.5,.16-1.01,.24-2.02,.24-3.04v-31.03h-3.46v31.87Z"/><path d="M345.89,219.03c0,1.42-.16,2.84-.49,4.22-.3,1.3-.83,2.54-1.55,3.66-.67,1.05-1.58,1.92-2.64,2.57-1.17,.66-2.5,1-3.85,.96-2.71,0-4.64-.66-5.77-1.98-1.24-1.69-1.88-3.75-1.8-5.85v-18.52h-3.47v18.46c-.02,1.53,.17,3.05,.56,4.52,.32,1.24,.91,2.38,1.73,3.37,.84,.95,1.9,1.68,3.1,2.13,1.47,.53,3.03,.78,4.6,.74,2.04,.03,4.05-.5,5.82-1.51,1.75-1.02,3.14-2.55,4-4.38h.11v5.13h3.13v-28.44h-3.47v14.93Z"/><path d="M376.15,206.22c-.88-.99-1.99-1.74-3.23-2.18-1.61-.56-3.3-.82-4.99-.77-1.97-.02-3.89,.53-5.57,1.57-1.61,.95-2.85,2.42-3.52,4.16h-.12v-4.9h-3.47v28.4h3.47v-16.6c.03-1.31,.26-2.61,.69-3.85,.38-1.13,.98-2.17,1.76-3.09,.76-.87,1.7-1.57,2.76-2.04,1.17-.52,2.44-.77,3.72-.74,1.2-.04,2.39,.18,3.5,.65,.89,.4,1.66,1.03,2.23,1.83,.58,.82,.97,1.74,1.15,2.72,.23,1.12,.35,2.25,.34,3.39v17.72h3.47v-18.27c.02-1.54-.15-3.08-.5-4.58-.28-1.27-.87-2.45-1.7-3.44Z"/><path d="M390.25,228.87c-.35-.85-.5-1.76-.46-2.67v-19.22h5.77v-2.88h0l-5.73,.04v-8.55h-3.47v8.55h-4.97v2.88h4.97v19.41c-.04,2.43,.44,4.09,1.32,4.99,.88,.9,2.5,1.35,4.81,1.35,.52,0,1.04,0,1.55-.05s1.03-.06,1.55-.06v-2.88c-.99,.12-1.98,.16-2.98,.16-1.25-.11-2.03-.42-2.35-1.07Z"/><path d="M423.14,229.6c-1-.14-1.69-1.09-1.54-2.09v-15.11c.06-1.61-.27-3.2-.96-4.65-.56-1.12-1.39-2.08-2.42-2.78-1.02-.67-2.16-1.13-3.37-1.36-1.24-.24-2.49-.36-3.75-.36-1.52-.02-3.05,.17-4.52,.55-1.29,.33-2.5,.91-3.56,1.71-1.02,.79-1.85,1.81-2.39,2.97h0l-.02-.09c-.62,1.36-.97,2.82-1.05,4.31h3.49c.08-2.32,.81-4,2.21-5.05,1.58-1.11,3.48-1.65,5.4-1.57,.97,0,1.93,.08,2.88,.24,.84,.14,1.64,.46,2.37,.91,.68,.44,1.23,1.07,1.6,1.79,.41,.9,.62,1.89,.58,2.88,.03,.65-.07,1.31-.3,1.92-.18,.45-.47,.84-.86,1.13-.41,.29-.88,.49-1.38,.58-.54,.11-1.19,.2-1.92,.28-1.88,.22-3.72,.44-5.54,.68-1.68,.2-3.33,.63-4.9,1.24-1.38,.53-2.59,1.41-3.5,2.57-.95,1.36-1.42,3-1.33,4.65-.03,1.28,.22,2.55,.75,3.72,.46,1.01,1.16,1.9,2.03,2.6,.9,.69,1.93,1.2,3.04,1.49,1.21,.32,2.46,.46,3.72,.46,1.21,.02,2.42-.11,3.61-.38,.95-.23,1.87-.61,2.7-1.11,.8-.49,1.53-1.09,2.15-1.79,.69-.77,1.34-1.6,1.92-2.45h.12c0,.67,.04,1.35,.13,2.01,.08,.56,.28,1.11,.59,1.58,.31,.45,.74,.81,1.24,1.02,.67,.26,1.39,.38,2.12,.36,.39,0,.8-.02,1.19-.06,.31-.04,.66-.09,1.07-.16v-2.88c-.35,.15-.72,.22-1.1,.22-.17,.03-.35,.03-.51,0Zm-5-8.1c.03,1.3-.25,2.58-.8,3.75-.51,1.08-1.24,2.04-2.14,2.82-.93,.79-2.01,1.38-3.17,1.76-1.24,.41-2.54,.61-3.85,.61-.81,0-1.61-.12-2.37-.38-.75-.24-1.44-.63-2.04-1.13-.59-.49-1.07-1.09-1.41-1.76-.36-.73-.54-1.54-.52-2.35-.08-1.2,.38-2.38,1.24-3.22,.92-.8,2-1.39,3.17-1.74,1.39-.42,2.83-.73,4.27-.9,1.57-.2,3.08-.43,4.55-.69,.56-.09,1.12-.22,1.65-.38,.53-.12,.98-.43,1.27-.88h.14v4.52Z"/><path d="M457.73,203.28c-1.86,0-3.67,.47-5.29,1.38-1.67,.95-2.99,2.42-3.75,4.19-.41-1.75-1.52-3.26-3.06-4.19-1.54-.92-3.31-1.39-5.11-1.38-2.01-.09-3.99,.43-5.7,1.49-1.54,1.04-2.78,2.46-3.61,4.13h-.16v-4.81h-3.18v28.44h3.47v-15.88c0-1.4,.15-2.81,.5-4.16,.3-1.18,.81-2.31,1.51-3.31,.69-.94,1.61-1.7,2.65-2.2,1.2-.57,2.52-.84,3.85-.8,.96-.03,1.92,.16,2.81,.55,.74,.34,1.38,.86,1.85,1.52,.46,.68,.79,1.45,.96,2.26,.2,.89,.3,1.81,.3,2.73v19.3h3.47v-16.1c0-1.29,.12-2.58,.37-3.85,.21-1.15,.63-2.26,1.23-3.27,.59-.95,1.4-1.74,2.38-2.3,1.15-.61,2.45-.89,3.75-.85,2.5,0,4.28,.62,5.24,1.85,1.09,1.57,1.62,3.47,1.48,5.38v19.14h3.47v-19.29c0-6.65-3.13-9.98-9.42-9.98Z"/><path d="M494.22,208.25c-2.17-3.25-5.88-5.14-9.78-4.99-2.02-.05-4.02,.39-5.83,1.3-1.58,.82-2.94,1.98-3.99,3.41-1.05,1.45-1.82,3.08-2.29,4.81-.49,1.8-.74,3.64-.74,5.51,0,1.95,.24,3.88,.74,5.77,.45,1.73,1.23,3.37,2.29,4.81,1.05,1.39,2.41,2.5,3.99,3.25,1.83,.83,3.82,1.23,5.83,1.18,3.6,0,6.42-.88,8.35-2.64,2.11-2.01,3.53-4.63,4.06-7.5h-3.48c-.44,2.02-1.48,3.87-2.97,5.3-1.65,1.39-3.79,2.11-5.95,1.98-1.49,.05-2.95-.32-4.25-1.05-1.13-.67-2.12-1.58-2.88-2.64-.78-1.09-1.36-2.32-1.68-3.62l-.04-.04c-.34-1.26-.51-2.55-.52-3.85h21.89c.08-1.97-.12-3.94-.56-5.87-.39-1.83-1.13-3.57-2.17-5.13Zm-19.15,8.1c.14-1.29,.45-2.56,.9-3.77,.43-1.18,1.06-2.29,1.86-3.26,.77-.93,1.73-1.7,2.81-2.26,1.19-.59,2.51-.88,3.85-.85,1.3-.03,2.58,.27,3.74,.85,1.09,.56,2.04,1.33,2.82,2.26,.78,.96,1.38,2.06,1.79,3.23h0c.41,1.22,.63,2.51,.64,3.8h-18.4Z"/><path d="M521.8,206.21c-.88-.98-1.99-1.73-3.23-2.18-1.6-.56-3.29-.82-4.98-.77-1.97-.02-3.89,.53-5.57,1.57-1.62,.95-2.87,2.41-3.54,4.16h-.11v-4.89h-3.47v28.4h3.47v-16.6c.03-1.31,.26-2.61,.69-3.85,.38-1.13,.98-2.18,1.76-3.09,.76-.87,1.7-1.57,2.76-2.04,1.17-.52,2.44-.77,3.72-.74,1.2-.04,2.39,.18,3.5,.65,.89,.4,1.66,1.03,2.23,1.83,.57,.82,.96,1.74,1.16,2.72,.22,1.12,.33,2.25,.33,3.39v17.71h3.47v-18.27c.02-1.54-.14-3.08-.49-4.58-.29-1.27-.88-2.44-1.71-3.44Z"/><polygon points="504.38 204.08 504.38 204.09 504.38 204.09 504.38 204.08"/><path d="M535.89,228.87c-.35-.85-.5-1.76-.46-2.67v-19.23h5.77v-2.88h0l-5.72,.05v-8.55h-3.48v8.55h-4.95v2.88h4.95v19.41c-.04,2.43,.46,4.09,1.33,4.99s2.49,1.35,4.81,1.35c.51,0,1.02,0,1.54-.05s1.03-.06,1.54-.06v-2.88c-.99,.12-1.98,.16-2.97,.16-1.25-.11-2.03-.42-2.35-1.07Z"/><path d="M580.21,209.38h-.11c-.35-.99-.88-1.91-1.57-2.7-.68-.75-1.47-1.4-2.35-1.92-.89-.53-1.88-.93-2.88-1.18-2.93-.71-6.02-.42-8.77,.83-1.56,.78-2.92,1.9-4,3.28-1.09,1.44-1.89,3.07-2.37,4.81-1.03,3.78-1.03,7.76,0,11.54,.48,1.74,1.28,3.37,2.37,4.81,1.07,1.38,2.43,2.48,4,3.25,1.77,.83,3.69,1.23,5.64,1.18,1.06,0,2.11-.15,3.13-.44,1.03-.28,2.02-.7,2.94-1.24,.91-.51,1.74-1.16,2.45-1.92,.7-.74,1.25-1.6,1.63-2.54h.1v5.4l3.26-.13v-39.36h-3.48v16.35Zm-.59,13.31c-.33,1.38-.9,2.68-1.71,3.85-.8,1.15-1.86,2.11-3.09,2.78-1.43,.76-3.04,1.13-4.66,1.08-1.49,.05-2.95-.33-4.24-1.08-1.15-.7-2.13-1.65-2.88-2.78-.77-1.17-1.33-2.48-1.64-3.85-.7-2.88-.7-5.88,0-8.77,.32-1.37,.87-2.67,1.64-3.85,.74-1.13,1.73-2.09,2.88-2.79,1.29-.74,2.76-1.11,4.24-1.07,1.62-.06,3.23,.32,4.66,1.07,1.23,.68,2.29,1.63,3.09,2.79,.81,1.16,1.39,2.47,1.71,3.85,.69,2.88,.69,5.88,0,8.77Z"/><path d="M610.76,208.25c-2.17-3.25-5.88-5.14-9.78-4.99-2.02-.05-4.02,.39-5.82,1.3-1.58,.81-2.95,1.98-4,3.41-1.05,1.45-1.83,3.08-2.29,4.81-.5,1.8-.74,3.64-.74,5.51,0,1.95,.23,3.88,.74,5.77,.45,1.73,1.23,3.37,2.29,4.81,1.05,1.39,2.42,2.51,4,3.25,1.83,.83,3.82,1.23,5.82,1.18,3.59,0,6.38-.88,8.35-2.64,2.11-2.01,3.52-4.63,4.05-7.5h-3.47c-.44,2.02-1.48,3.87-2.97,5.3-1.65,1.39-3.79,2.11-5.95,1.98-1.49,.05-2.95-.32-4.25-1.05-1.13-.67-2.12-1.57-2.88-2.64-.78-1.09-1.35-2.32-1.68-3.62l-.04-.04c-.34-1.26-.51-2.55-.52-3.85h21.88c.08-1.97-.11-3.94-.55-5.87-.39-1.83-1.13-3.57-2.17-5.13Zm-19.15,8.1c.14-1.29,.45-2.56,.91-3.77,.42-1.18,1.05-2.29,1.85-3.26,.77-.93,1.73-1.7,2.81-2.26,1.19-.59,2.51-.88,3.85-.85,1.3-.03,2.58,.27,3.74,.85,1.08,.56,2.04,1.33,2.81,2.26,.79,.96,1.39,2.06,1.8,3.23h-.04c.42,1.22,.65,2.5,.68,3.8h-18.4Z"/><path d="M653.67,211.74v-.12c.99-.2,1.94-.6,2.79-1.15,.82-.55,1.55-1.22,2.14-2.01,1.24-1.63,1.91-3.62,1.92-5.65,.06-1.6-.31-3.19-1.05-4.61-.67-1.2-1.63-2.22-2.78-2.97-1.23-.79-2.6-1.33-4.03-1.61-1.59-.32-3.19-.46-4.81-.46h-16.62v39.36h16.64c1.85,.03,3.69-.16,5.49-.58,1.35-.32,2.63-.82,3.85-1.49,.97-.54,1.82-1.26,2.51-2.13,.59-.75,1.07-1.58,1.43-2.45,.32-.78,.54-1.6,.66-2.42,.11-.7,.16-1.41,.16-2.13,.07-2.37-.73-4.67-2.26-6.48-1.56-1.77-3.72-2.88-6.07-3.11Zm-18.7-15.38h12.89c5.91,0,8.88,2.46,8.88,7.38,0,.89-.18,1.78-.55,2.6-.38,.83-.94,1.56-1.65,2.13-.82,.64-1.76,1.13-2.76,1.43-1.27,.37-2.59,.55-3.91,.52h-12.89v-14.06Zm23.26,24.87c.05,1.37-.23,2.71-.83,3.94-.53,1.02-1.31,1.88-2.26,2.51-1.01,.63-2.13,1.08-3.31,1.29-1.31,.25-2.63,.37-3.97,.37h0l-12.89-.03v-15.71h12.89c3.35,0,5.91,.65,7.69,1.92,1.81,1.33,2.82,3.48,2.67,5.71Z"/><path d="M689.92,229.57c-1-.15-1.67-1.09-1.52-2.09v-15.11c.05-1.61-.28-3.2-.96-4.65-.56-1.12-1.39-2.07-2.42-2.78-1.02-.67-2.16-1.13-3.37-1.36-1.24-.24-2.49-.36-3.75-.36-1.53-.02-3.05,.16-4.52,.55-1.29,.33-2.5,.91-3.56,1.71-1.02,.79-1.85,1.81-2.39,2.97h0v-.09c-.62,1.36-.97,2.82-1.05,4.31h3.47c.07-2.32,.81-4,2.2-5.05,1.58-1.1,3.48-1.65,5.4-1.57,.97,0,1.93,.08,2.88,.24,.84,.14,1.64,.45,2.37,.91,.68,.44,1.24,1.06,1.61,1.79,.41,.9,.62,1.89,.58,2.88,.03,.65-.07,1.31-.3,1.92-.18,.45-.48,.84-.87,1.13-.4,.3-.88,.49-1.37,.58-.54,.11-1.18,.2-1.92,.28-1.87,.22-3.71,.44-5.54,.68-1.68,.2-3.33,.62-4.9,1.24-1.38,.53-2.58,1.41-3.49,2.57-.96,1.36-1.43,3-1.33,4.65-.03,1.28,.22,2.55,.74,3.72,.47,1.01,1.16,1.9,2.04,2.6,.9,.69,1.93,1.2,3.04,1.49,1.21,.32,2.46,.46,3.72,.46,1.21,.02,2.42-.11,3.61-.38,.95-.23,1.86-.61,2.7-1.11,.8-.49,1.53-1.09,2.15-1.79,.69-.77,1.34-1.6,1.92-2.45h.12c0,.67,.04,1.35,.13,2.01,.08,.56,.27,1.1,.58,1.58,.31,.45,.74,.8,1.24,1.02,.67,.26,1.4,.38,2.13,.36,.39,0,.79-.02,1.18-.06,.32-.04,.67-.09,1.08-.16v-2.88c-.35,.15-.72,.22-1.11,.22-.17,.03-.35,.03-.52,0Zm-5.03-8.1c.02,1.3-.25,2.58-.8,3.75-.52,1.08-1.25,2.04-2.15,2.82-.93,.79-2,1.38-3.16,1.76-1.24,.41-2.54,.61-3.85,.61-.81,0-1.61-.13-2.37-.38-.75-.24-1.44-.62-2.04-1.13-.59-.48-1.07-1.09-1.41-1.76-.36-.73-.54-1.54-.52-2.35-.08-1.2,.38-2.38,1.24-3.22,.91-.8,2-1.39,3.16-1.74,1.39-.42,2.83-.73,4.28-.9,1.56-.2,3.08-.43,4.55-.69,.56-.09,1.12-.22,1.65-.38,.52-.12,.98-.43,1.26-.88h.15v4.52Z"/><path d="M702.03,205.38c-1.89,1.31-3.34,3.17-4.11,5.35h-.12v-6.65h-3.19v28.43h3.47v-15.16c0-1.42,.25-2.84,.77-4.15,.49-1.23,1.23-2.36,2.18-3.28,.95-.93,2.09-1.66,3.34-2.13,1.37-.51,2.83-.73,4.29-.63v-3.47c-2.34-.17-4.66,.42-6.63,1.7Z"/><path d="M729.72,225.47c-.44,.96-1.06,1.83-1.82,2.57-.73,.72-1.6,1.29-2.54,1.68-.96,.4-1.99,.61-3.03,.61-1.52,.04-3.02-.33-4.36-1.05-1.23-.67-2.29-1.62-3.11-2.76-.86-1.16-1.51-2.46-1.92-3.85-.85-2.89-.85-5.98,0-8.88,.41-1.38,1.07-2.68,1.92-3.85,.82-1.13,1.88-2.08,3.11-2.76,1.34-.71,2.84-1.07,4.36-1.04,1.97-.13,3.9,.53,5.4,1.82h0l-.04-.16c1.38,1.37,2.3,3.12,2.64,5.02h3.47c-.18-2.87-1.55-5.52-3.77-7.34-2.24-1.65-4.97-2.51-7.75-2.42-1.99-.04-3.96,.38-5.77,1.21-1.63,.77-3.06,1.88-4.21,3.25-1.17,1.41-2.06,3.05-2.6,4.81-1.16,3.79-1.16,7.85,0,11.63,.54,1.76,1.42,3.39,2.6,4.81,1.15,1.37,2.59,2.47,4.21,3.22,1.81,.82,3.78,1.22,5.77,1.18,2.92,.12,5.78-.91,7.94-2.88,2.19-2.15,3.55-5.02,3.85-8.08h-3.48c-.1,1.13-.39,2.23-.88,3.25Z"/><path d="M759.37,208.19c-2.16-3.26-5.88-5.15-9.78-4.99-2.02-.05-4.01,.39-5.82,1.3-1.58,.81-2.94,1.98-3.99,3.41-1.05,1.45-1.83,3.08-2.29,4.81-.5,1.8-.75,3.64-.75,5.51,0,1.95,.24,3.88,.75,5.77,.45,1.73,1.23,3.37,2.29,4.81,1.05,1.39,2.41,2.51,3.99,3.25,1.83,.83,3.82,1.23,5.82,1.18,3.61,0,6.38-.88,8.36-2.64,2.11-2.01,3.52-4.63,4.05-7.5h-3.47c-.44,2.02-1.48,3.87-2.98,5.3-1.65,1.39-3.79,2.11-5.95,1.98-1.48,.05-2.95-.32-4.24-1.05-1.13-.67-2.12-1.57-2.88-2.64-.78-1.09-1.36-2.32-1.68-3.62h0l-.04-.04c-.34-1.26-.51-2.55-.52-3.85h21.89c.07-1.97-.12-3.94-.56-5.87-.4-1.83-1.14-3.57-2.18-5.13Zm-19.11,8.1c.14-1.29,.45-2.56,.9-3.77,.43-1.18,1.06-2.28,1.85-3.26,.78-.93,1.73-1.7,2.82-2.26,2.39-1.13,5.15-1.13,7.55,0,1.08,.56,2.04,1.33,2.81,2.26,.79,.96,1.39,2.06,1.8,3.23,.42,1.22,.65,2.5,.68,3.8h-18.4Z"/><polygon points="766.16 232.47 769.63 232.47 769.63 193.11 766.16 193.15 766.16 232.47"/><path d="M797.57,207.7c-1.16-1.38-2.6-2.48-4.22-3.25-3.67-1.63-7.87-1.63-11.54,0-1.62,.77-3.07,1.88-4.22,3.25-1.16,1.42-2.05,3.06-2.59,4.81-1.18,3.79-1.18,7.85,0,11.63,.55,1.75,1.42,3.38,2.59,4.81,1.15,1.37,2.6,2.47,4.22,3.22,3.68,1.59,7.86,1.59,11.54,0,1.62-.75,3.07-1.86,4.22-3.22,1.16-1.42,2.04-3.06,2.59-4.81,1.16-3.79,1.16-7.85,0-11.63-.55-1.75-1.42-3.38-2.59-4.81Zm-.69,14.98c-.4,1.38-1.03,2.68-1.87,3.85-.83,1.14-1.89,2.09-3.13,2.76-2.72,1.38-5.93,1.38-8.65,0-1.23-.67-2.3-1.62-3.12-2.76-.85-1.16-1.47-2.46-1.88-3.85-.85-2.89-.85-5.98,0-8.88,.4-1.38,1.04-2.68,1.88-3.85,.83-1.13,1.88-2.08,3.12-2.76,2.72-1.38,5.93-1.38,8.65,0,1.23,.68,2.3,1.63,3.13,2.76,.84,1.17,1.46,2.47,1.87,3.85,.86,2.89,.86,5.98,0,8.88Z"/><path d="M826.34,206.19c-.88-.98-1.98-1.73-3.22-2.18-1.61-.56-3.3-.82-4.99-.77-1.97-.02-3.89,.53-5.57,1.57-1.62,.95-2.86,2.42-3.53,4.16h-.12v-4.9h-3.43v28.43h3.47v-16.6c.03-1.31,.26-2.61,.69-3.85,.38-1.13,.98-2.17,1.76-3.09,.76-.87,1.7-1.57,2.76-2.04,1.17-.52,2.44-.77,3.72-.74,1.2-.04,2.39,.18,3.5,.65,.89,.4,1.66,1.03,2.23,1.83,.56,.81,.94,1.73,1.12,2.69,.23,1.12,.33,2.25,.33,3.39v17.72h3.47v-18.27c.02-1.54-.14-3.08-.49-4.58-.29-1.27-.87-2.44-1.71-3.44Z"/><path d="M857.65,229.57c-.99-.15-1.67-1.09-1.52-2.09v-15.11c.06-1.61-.27-3.2-.96-4.65-.56-1.12-1.39-2.08-2.42-2.78-1.02-.67-2.16-1.13-3.37-1.36-1.24-.24-2.49-.36-3.75-.36-1.53-.02-3.05,.16-4.52,.55-1.28,.34-2.49,.91-3.55,1.71-1.03,.78-1.86,1.8-2.4,2.97h0v-.09c-.62,1.36-.97,2.82-1.05,4.31h3.47c.08-2.32,.81-4,2.21-5.05,1.58-1.11,3.47-1.65,5.39-1.57,.97,0,1.93,.08,2.88,.24,.85,.14,1.65,.46,2.38,.91,.68,.44,1.23,1.06,1.6,1.79,.41,.9,.62,1.89,.58,2.88,.03,.65-.07,1.31-.3,1.92-.18,.44-.48,.84-.86,1.13-.41,.29-.87,.49-1.37,.58-.55,.11-1.18,.2-1.92,.28-1.88,.22-3.72,.44-5.54,.68-1.68,.2-3.33,.62-4.9,1.24-1.37,.53-2.59,1.41-3.5,2.57-.95,1.36-1.42,3-1.33,4.65-.03,1.28,.22,2.55,.74,3.72,.47,1.02,1.17,1.9,2.05,2.6,.9,.69,1.93,1.2,3.03,1.49,1.21,.32,2.46,.46,3.72,.46,1.21,.02,2.42-.11,3.61-.38,.95-.23,1.87-.61,2.7-1.11,.8-.49,1.53-1.09,2.15-1.79,.7-.77,1.34-1.59,1.92-2.45h.11c0,.67,.04,1.35,.13,2.01,.08,.56,.28,1.1,.58,1.58,.31,.45,.74,.8,1.24,1.02,.67,.26,1.4,.38,2.13,.36,.39,0,.79-.02,1.18-.06,.32-.04,.67-.09,1.08-.16v-2.88c-.35,.15-.72,.22-1.11,.22-.17,.03-.35,.03-.51,0Zm-4.97-8.1c.05,2.52-1.03,4.93-2.95,6.57-.93,.79-2,1.38-3.16,1.76-1.24,.41-2.54,.62-3.85,.61-.81,0-1.61-.13-2.38-.38-.75-.24-1.44-.62-2.04-1.13-.59-.48-1.07-1.08-1.4-1.76-.37-.73-.55-1.53-.53-2.35-.08-1.2,.38-2.38,1.24-3.22,.92-.8,2-1.39,3.17-1.74,1.39-.42,2.83-.73,4.27-.9,1.56-.2,3.08-.43,4.55-.69,.56-.09,1.12-.22,1.65-.38,.53-.12,.98-.43,1.27-.88h.15v4.52Z"/></g></g></g></svg>