<?xml version="1.0" encoding="UTF-8"?><svg xmlns="http://www.w3.org/2000/svg" viewBox="0 0 1243.29 163.7"><defs><style>.f{fill:#f5f5f5;}</style></defs><g id="a"/><g id="b"><g id="c"><g id="d"><g id="e"><g><polygon class="f" points="771.65 16.37 771.65 3.75 730.93 3.75 730.93 66.81 771.65 66.81 771.65 54.21 743.54 54.21 743.54 41.59 771.65 41.59 771.65 28.98 743.54 28.98 743.54 16.37 771.65 16.37"/><path class="f" d="M802,57.28c-6.39,0-11.23-2.25-14.23-5.86l-6.94,9c4,5.05,11.35,7.48,20,7.48,11.99,0,19.46-4.32,19.46-14.68,0-9.46-6.57-12.53-14.41-14.15-8.02-1.71-10.45-2.25-10.45-4.5,0-2.08,1.89-3.16,5.76-3.16,4.78,0,9.64,1.8,12.17,4.6l6.66-8.65c-3.93-4.06-9.64-6.67-17.93-6.67-11.89,0-19.01,5.23-19.09,14.34,0,9.82,8.24,12.79,15,14.23,7.57,1.71,10,2.08,10,4.6s-2.66,3.42-6,3.42Z"/><path class="f" d="M850.58,67.92c7.57,0,13.52-2.79,17.39-6.67l-6.58-9.55c-2.77,2.92-6.61,4.58-10.63,4.6-6.8,0-11.8-4.78-11.8-12s5.05-12,11.8-12c3.93,0,7.69,1.63,10.36,4.51l6.76-9.54c-4.05-4.06-9.91-6.58-17.12-6.58-13.96,0-24.05,9.31-24.05,23.63s10.09,23.6,23.87,23.6Z"/><path class="f" d="M896.99,67.9c13.88,0,24.24-9.54,24.24-23.6s-10.36-23.61-24.24-23.61-24.23,9.56-24.23,23.61,10.35,23.6,24.23,23.6Zm0-35.59h0c6.85,0,12,4.78,12,12s-5.13,12-12,12-12-4.78-12-12,5.15-12,12-12Z"/><rect class="f" x="930.8" y="3.75" width="12" height="63.06"/><path class="f" d="M979.2,38.53l-12.34,1.08c-8.29,.72-14.42,6.04-14.42,14.15s6.31,14.05,15.23,14.05c7.12,0,11.44-3.39,13.87-7v6.1h11.9v-27.81c0-12.61-6.49-18.29-19.73-18.29-9.82,0-17.12,3.31-20.1,10.15l8.83,6.31c1.63-4.24,6.58-5.77,11.27-5.77,5.4,0,7.83,1.89,7.83,4.51v.72c0,.99-.81,1.62-2.34,1.8h0Zm2.34,8.28v1.88c0,4.96-4.05,9.28-10.36,9.28-4.23,0-6.39-1.89-6.39-4.77,0-2.57,1.89-4.37,5.58-5l11.17-1.39Z"/><path class="f" d="M1067.22,60.51v6.3h11.9l-.05-63.06h-11.9V28.26c-3.44-4.93-9.12-7.8-15.13-7.66-11.08,0-20.36,8.57-20.36,23.7s9.37,23.69,20.54,23.69c5.94,.19,11.58-2.62,15-7.48Zm-11.44-4.15c-6.8,0-11.8-4.77-11.8-12.07h0c0-7.3,5-12.09,11.8-12.09s11.8,4.61,11.8,12.08-5,12.07-11.8,12.07h0Z"/><path class="f" d="M1098.15,32.93l10.54-17.12c1.01-1.35,1.55-2.99,1.53-4.68,.01-3.41-2.03-6.49-5.17-7.81-4.3-1.81-9.24,.21-11.05,4.51-1.81,4.3,.21,9.24,4.51,11.05l-6.49,10.63,6.13,3.42Z"/><path class="f" d="M1129.12,3.72l-29.19,63.07h13.87l4.6-9.91,33.15,.02,4.6,9.91h13.87l-29.19-63.09h-11.71Zm-4.87,40.55l10.73-23.25,10.72,23.25h-21.45Z"/><path class="f" d="M1202,20.69c-6.4,0-10.36,3.12-12.8,8.51v-7.39h-11.44v45h11.89v-20.38c0-8.65,3.43-13.07,11.36-13.07,1.83-.08,3.66,.16,5.4,.73v-12.8c-1.44-.4-2.92-.62-4.41-.63v.03Z"/><path class="f" d="M1243.29,31.81v-10h-11.44V9.7h-11.89v12.11h-8.2v10h8.2v21.2c0,10.36,4.87,14.23,13.24,14.23v.03c3.28-.06,6.55-.5,9.73-1.31v-11.26c-2.16,.48-4.36,.72-6.57,.72-3.16,0-4.51-1.17-4.51-4.06V31.81h11.44Z"/><path class="f" d="M736.87,80.09h-.3c-4.12,.11-7.37,3.54-7.26,7.66v.36c.1,4.07,3.49,7.3,7.56,7.2h.3c4.12-.06,7.41-3.44,7.36-7.56v-.24c-.07-4.16-3.5-7.48-7.66-7.42Z"/><polygon class="f" points="730.93 100.63 730.93 145.68 742.87 145.68 742.82 100.63 730.93 100.63"/><path class="f" d="M804.34,82.61h-22.88v63.07h22.94c17.75,0,30.91-13.34,30.91-31.54h-.05c0-18.2-13.16-31.53-30.92-31.53Zm.01,50.45h-10.27v-37.84h10.27c10.82,0,18.29,8.11,18.29,18.92s-7.47,18.92-18.29,18.92Z"/><path class="f" d="M850.4,80.09h-.3c-4.12,.11-7.37,3.54-7.26,7.66v.36c.1,4.07,3.49,7.3,7.56,7.2h.3c4.12-.06,7.41-3.44,7.36-7.56v-.24c-.07-4.16-3.5-7.48-7.66-7.42Z"/><polygon class="f" points="844.46 100.63 844.46 145.68 856.4 145.68 856.35 100.63 844.46 100.63"/><path class="f" d="M890.37,117.93c-8.02-1.71-10.45-2.25-10.45-4.51,0-2.07,1.89-3.15,5.77-3.15,4.77,0,9.64,1.8,12.16,4.59l6.67-8.64c-3.93-4.06-9.64-6.67-17.93-6.67h-.06c-11.89,0-19.01,5.26-19.03,14.33,0,9.83,8.25,12.8,15,14.24,7.56,1.71,10,2.08,10,4.6s-2.67,3.42-6,3.42c-6.4,0-11.24-2.25-14.24-5.86l-6.93,9c4,5.05,11.35,7.48,20,7.48,11.98,0,19.46-4.33,19.46-14.69,0-9.46-6.58-12.52-14.42-14.14Z"/><path class="f" d="M933.71,117.93c-8.02-1.71-10.45-2.25-10.45-4.51,0-2.07,1.89-3.15,5.76-3.15,4.78,0,9.64,1.8,12.17,4.59l6.66-8.64c-3.92-4.06-9.64-6.67-17.92-6.67h-.06c-11.9,0-19.01,5.26-19.03,14.33,0,9.83,8.24,12.8,15,14.24,7.57,1.71,10,2.08,10,4.6s-2.67,3.42-6,3.42c-6.4,0-11.24-2.25-14.24-5.86l-6.94,9c4,5.05,11.36,7.48,20,7.48,11.99,0,19.46-4.33,19.46-14.69,0-9.46-6.57-12.52-14.41-14.14Z"/><path class="f" d="M977.6,99.55h-.06c-14.14,0-23,10.22-23,23.65s8.92,23.61,24.14,23.61c8.65,0,14.24-2.79,17.93-5.95l-4.95-9.82c-3.54,3.08-8.11,4.72-12.8,4.6-5.31,0-10.63-2.65-12.07-8.65l-.09-.18h33.16v-3.26c0-14.54-8.47-24-22.26-24h0Zm-10.99,18.56c1.17-5.4,4.86-8.46,10.6-8.47h0c5.75,.01,8.98,3.52,9.67,8.47h-20.27Z"/><path class="f" d="M1035.34,99.55h-.06c-5.83-.08-11.31,2.76-14.6,7.57v-6.49h-11.53v45.01h11.89v-21.54c0-8.01,2.88-13.15,9.82-13.15,5.05,0,8.2,2.88,8.2,9.73v25h12.22v-27.93c0-11.44-5.4-18.2-15.94-18.2h0Z"/><polygon class="f" points="1081.19 125.32 1069.66 100.63 1055.79 100.63 1074.89 139.19 1063.85 163.7 1076.46 163.7 1104.89 100.63 1092.28 100.63 1081.19 125.32"/><polygon class="f" points="142.9 3.81 115.69 3.81 115.69 146 208.37 146 208.37 120.81 142.9 120.81 142.9 3.81"/><polygon class="f" points="461.59 3.81 349.18 3.81 349.18 29 391.87 29 391.87 146 418.87 146 418.87 29 461.57 29 461.59 3.81"/><path class="f" d="M588.74,3.81l-49.52,142.19h28.65l9.59-28.47h56.68l9.62,28.47h28.7L622.92,3.81h-34.18Zm-2.82,88.49l19.85-58.38,19.85,58.38h-39.7Z"/><path class="f" d="M277.73,.04l.04-.04c-40.97,0-74.19,33.22-74.19,74.19s33.22,74.19,74.19,74.19,74.19-33.22,74.19-74.19C351.93,33.22,318.7,.02,277.73,.04Zm50.97,96.77l.07-.07c-1.57,2.46-3.84,4.4-6.53,5.55-22.52,9.91-51.91,18.27-67,20.15-1.88,.28-3.8,.03-5.54-.72-5.1-2.27-6.52-9.15-7.12-11.94-2.14-10.05-1-55.21,3.66-76.43,2.24-10.28,11.37-10.35,17.38-9.18,44.72,8.71,65.2,48.69,66.89,61.67,.58,3.76-.05,7.6-1.81,10.97Z"/><path class="f" d="M70.59,105.69l.07-.04c-6.27,3.41-21.19,13.68-25.85,16.12-7.5,3.95-15.83,6.29-20.25-1.51-13.61-24,17.64-58.8,37.6-76.76C95.69,13.31,50.74-22.41,26.79,20.19,12.27,46.01-1.46,91.51,.13,118.19c1,17.49,10.24,27.83,25.29,27.83h54.66c15.41,0,23-12.06,22.22-23.3-1-14.01-15.91-25.64-31.71-17.03Z"/><path class="f" d="M517.92,.81c-1.59-.36-3.22-.53-4.85-.53-.58,0-1.16,0-1.74,.07-11.56,.9-20.51,10.5-20.61,22.09,.06,1.5,.2,2.99,.41,4.48,.46,2.77,1.13,5.51,2,8.18,1.56,4.96,3.65,9.73,6.23,14.24l8.53,13.82c15.68,28.16,9.68,47.71-11.21,52.2l-23.82,4.45c-.59,.11-1.19,.17-1.79,.17-5.08-.03-9.17-4.16-9.14-9.24,.02-3.08,1.57-5.94,4.14-7.63l16.89-11.41c7.1-4.73,9.02-14.31,4.29-21.41-2.87-4.3-7.7-6.89-12.87-6.88-6.7,0-13.12,2.71-17.77,7.54-8.29,8.64-13.88,20.38-13.39,33.3,1.51,39.21,29.81,43.92,45.7,44.19,34.2,.59,46.32-20.74,46.32-45.76l.22-59.87V22.63c0-10.49-7.3-19.56-17.54-21.82h0Z"/></g></g></g></g></g></svg>