<?xml version="1.0" encoding="UTF-8"?><svg xmlns="http://www.w3.org/2000/svg" viewBox="0 0 366.44 101.44"><defs><style>.d{fill:#1a1c1d;}</style></defs><g id="a"/><g id="b"><g id="c"><g><path class="d" d="M68.76,34.85c-1.36-9.63-10.58-16.95-21.16-16.95-19.12,0-26.31,16.27-26.31,33.22s7.19,32.41,26.31,32.41c13.02,0,20.34-8.95,21.97-21.7h20.61c-2.17,24.14-18.85,39.6-42.58,39.6C17.63,101.44,0,79.06,0,51.13S17.63,0,47.6,0c21.29,0,39.19,12.48,41.77,34.85h-20.61Z"/><path class="d" d="M162.47,34.85c-1.36-9.63-10.58-16.95-21.16-16.95-19.12,0-26.31,16.27-26.31,33.22s7.19,32.41,26.31,32.41c13.02,0,20.34-8.95,21.97-21.7h20.61c-2.17,24.14-18.85,39.6-42.58,39.6-29.97,0-47.6-22.38-47.6-50.31S111.34,0,141.31,0c21.29,0,39.19,12.48,41.77,34.85h-20.61Z"/><path class="d" d="M256.19,34.85c-1.36-9.63-10.58-16.95-21.16-16.95-19.12,0-26.31,16.27-26.31,33.22s7.19,32.41,26.31,32.41c13.02,0,20.34-8.95,21.97-21.7h20.61c-2.17,24.14-18.85,39.6-42.58,39.6-29.97,0-47.6-22.38-47.6-50.31S205.06,0,235.03,0c21.29,0,39.19,12.48,41.77,34.85h-20.61Z"/><path class="d" d="M285.35,2.31h45.57c18.44,0,30.92,5.97,30.92,24,0,9.49-4.75,16.14-13.15,20.21,11.8,3.39,17.77,12.48,17.77,24.55,0,19.67-16.68,28.07-34.17,28.07h-46.92V2.31Zm21.29,39.19h21.56c7.46,0,13.02-3.39,13.02-11.53,0-9.22-7.05-11.12-14.64-11.12h-19.94v22.65Zm0,41.09h22.78c8.41,0,15.73-2.71,15.73-12.75s-6.24-13.83-15.32-13.83h-23.19v26.58Z"/></g></g></g></svg>